<?xml version="1.0" standalone="no"?>
<!DOCTYPE svg PUBLIC "-//W3C//DTD SVG 1.1//EN" "http://www.w3.org/Graphics/SVG/1.1/DTD/svg11.dtd">
<svg version="1.1" width="1200" height="342" onload="init(evt)" viewBox="0 0 1200 342" xmlns="http://www.w3.org/2000/svg" xmlns:xlink="http://www.w3.org/1999/xlink">
<!-- Flame graph stack visualization. See https://github.com/brendangregg/FlameGraph for latest version, and http://www.brendangregg.com/flamegraphs.html for examples. -->
<!-- NOTES:  -->
<defs>
	<linearGradient id="background" y1="0" y2="1" x1="0" x2="0" >
		<stop stop-color="#eeeeee" offset="5%" />
		<stop stop-color="#eeeeb0" offset="95%" />
	</linearGradient>
</defs>
<style type="text/css">
	text { font-family:Verdana; font-size:12px; fill:rgb(0,0,0); }
	#search, #ignorecase { opacity:0.1; cursor:pointer; }
	#search:hover, #search.show, #ignorecase:hover, #ignorecase.show { opacity:1; }
	#subtitle { text-anchor:middle; font-color:rgb(160,160,160); }
	#title { text-anchor:middle; font-size:17px}
	#unzoom { cursor:pointer; }
	#frames > *:hover { stroke:black; stroke-width:0.5; cursor:pointer; }
	.hide { display:none; }
	.parent { opacity:0.5; }
</style>
<script type="text/ecmascript">
<![CDATA[
	"use strict";
	var details, searchbtn, unzoombtn, matchedtxt, svg, searching, currentSearchTerm, ignorecase, ignorecaseBtn;
	function init(evt) {
		details = document.getElementById("details").firstChild;
		searchbtn = document.getElementById("search");
		ignorecaseBtn = document.getElementById("ignorecase");
		unzoombtn = document.getElementById("unzoom");
		matchedtxt = document.getElementById("matched");
		svg = document.getElementsByTagName("svg")[0];
		searching = 0;
		currentSearchTerm = null;

		// use GET parameters to restore a flamegraphs state.
		var params = get_params();
		if (params.x && params.y)
			zoom(find_group(document.querySelector('[x="' + params.x + '"][y="' + params.y + '"]')));
                if (params.s) search(params.s);
	}

	// event listeners
	window.addEventListener("click", function(e) {
		var target = find_group(e.target);
		if (target) {
			if (target.nodeName == "a") {
				if (e.ctrlKey === false) return;
				e.preventDefault();
			}
			if (target.classList.contains("parent")) unzoom(true);
			zoom(target);
			if (!document.querySelector('.parent')) {
				// we have basically done a clearzoom so clear the url
				var params = get_params();
				if (params.x) delete params.x;
				if (params.y) delete params.y;
				history.replaceState(null, null, parse_params(params));
				unzoombtn.classList.add("hide");
				return;
			}

			// set parameters for zoom state
			var el = target.querySelector("rect");
			if (el && el.attributes && el.attributes.y && el.attributes._orig_x) {
				var params = get_params()
				params.x = el.attributes._orig_x.value;
				params.y = el.attributes.y.value;
				history.replaceState(null, null, parse_params(params));
			}
		}
		else if (e.target.id == "unzoom") clearzoom();
		else if (e.target.id == "search") search_prompt();
		else if (e.target.id == "ignorecase") toggle_ignorecase();
	}, false)

	// mouse-over for info
	// show
	window.addEventListener("mouseover", function(e) {
		var target = find_group(e.target);
		if (target) details.nodeValue = "Function: " + g_to_text(target);
	}, false)

	// clear
	window.addEventListener("mouseout", function(e) {
		var target = find_group(e.target);
		if (target) details.nodeValue = ' ';
	}, false)

	// ctrl-F for search
	// ctrl-I to toggle case-sensitive search
	window.addEventListener("keydown",function (e) {
		if (e.keyCode === 114 || (e.ctrlKey && e.keyCode === 70)) {
			e.preventDefault();
			search_prompt();
		}
		else if (e.ctrlKey && e.keyCode === 73) {
			e.preventDefault();
			toggle_ignorecase();
		}
	}, false)

	// functions
	function get_params() {
		var params = {};
		var paramsarr = window.location.search.substr(1).split('&');
		for (var i = 0; i < paramsarr.length; ++i) {
			var tmp = paramsarr[i].split("=");
			if (!tmp[0] || !tmp[1]) continue;
			params[tmp[0]]  = decodeURIComponent(tmp[1]);
		}
		return params;
	}
	function parse_params(params) {
		var uri = "?";
		for (var key in params) {
			uri += key + '=' + encodeURIComponent(params[key]) + '&';
		}
		if (uri.slice(-1) == "&")
			uri = uri.substring(0, uri.length - 1);
		if (uri == '?')
			uri = window.location.href.split('?')[0];
		return uri;
	}
	function find_child(node, selector) {
		var children = node.querySelectorAll(selector);
		if (children.length) return children[0];
	}
	function find_group(node) {
		var parent = node.parentElement;
		if (!parent) return;
		if (parent.id == "frames") return node;
		return find_group(parent);
	}
	function orig_save(e, attr, val) {
		if (e.attributes["_orig_" + attr] != undefined) return;
		if (e.attributes[attr] == undefined) return;
		if (val == undefined) val = e.attributes[attr].value;
		e.setAttribute("_orig_" + attr, val);
	}
	function orig_load(e, attr) {
		if (e.attributes["_orig_"+attr] == undefined) return;
		e.attributes[attr].value = e.attributes["_orig_" + attr].value;
		e.removeAttribute("_orig_"+attr);
	}
	function g_to_text(e) {
		var text = find_child(e, "title").firstChild.nodeValue;
		return (text)
	}
	function g_to_func(e) {
		var func = g_to_text(e);
		// if there's any manipulation we want to do to the function
		// name before it's searched, do it here before returning.
		return (func);
	}
	function update_text(e) {
		var r = find_child(e, "rect");
		var t = find_child(e, "text");
		var w = parseFloat(r.attributes.width.value) -3;
		var txt = find_child(e, "title").textContent.replace(/\([^(]*\)$/,"");
		t.attributes.x.value = parseFloat(r.attributes.x.value) + 3;

		// Smaller than this size won't fit anything
		if (w < 2 * 12 * 0.59) {
			t.textContent = "";
			return;
		}

		t.textContent = txt;
		var sl = t.getSubStringLength(0, txt.length);
		// check if only whitespace or if we can fit the entire string into width w
		if (/^ *$/.test(txt) || sl < w)
			return;

		// this isn't perfect, but gives a good starting point
		// and avoids calling getSubStringLength too often
		var start = Math.floor((w/sl) * txt.length);
		for (var x = start; x > 0; x = x-2) {
			if (t.getSubStringLength(0, x + 2) <= w) {
				t.textContent = txt.substring(0, x) + "..";
				return;
			}
		}
		t.textContent = "";
	}

	// zoom
	function zoom_reset(e) {
		if (e.attributes != undefined) {
			orig_load(e, "x");
			orig_load(e, "width");
		}
		if (e.childNodes == undefined) return;
		for (var i = 0, c = e.childNodes; i < c.length; i++) {
			zoom_reset(c[i]);
		}
	}
	function zoom_child(e, x, ratio) {
		if (e.attributes != undefined) {
			if (e.attributes.x != undefined) {
				orig_save(e, "x");
				e.attributes.x.value = (parseFloat(e.attributes.x.value) - x - 10) * ratio + 10;
				if (e.tagName == "text")
					e.attributes.x.value = find_child(e.parentNode, "rect[x]").attributes.x.value + 3;
			}
			if (e.attributes.width != undefined) {
				orig_save(e, "width");
				e.attributes.width.value = parseFloat(e.attributes.width.value) * ratio;
			}
		}

		if (e.childNodes == undefined) return;
		for (var i = 0, c = e.childNodes; i < c.length; i++) {
			zoom_child(c[i], x - 10, ratio);
		}
	}
	function zoom_parent(e) {
		if (e.attributes) {
			if (e.attributes.x != undefined) {
				orig_save(e, "x");
				e.attributes.x.value = 10;
			}
			if (e.attributes.width != undefined) {
				orig_save(e, "width");
				e.attributes.width.value = parseInt(svg.width.baseVal.value) - (10 * 2);
			}
		}
		if (e.childNodes == undefined) return;
		for (var i = 0, c = e.childNodes; i < c.length; i++) {
			zoom_parent(c[i]);
		}
	}
	function zoom(node) {
		var attr = find_child(node, "rect").attributes;
		var width = parseFloat(attr.width.value);
		var xmin = parseFloat(attr.x.value);
		var xmax = parseFloat(xmin + width);
		var ymin = parseFloat(attr.y.value);
		var ratio = (svg.width.baseVal.value - 2 * 10) / width;

		// XXX: Workaround for JavaScript float issues (fix me)
		var fudge = 0.0001;

		unzoombtn.classList.remove("hide");

		var el = document.getElementById("frames").children;
		for (var i = 0; i < el.length; i++) {
			var e = el[i];
			var a = find_child(e, "rect").attributes;
			var ex = parseFloat(a.x.value);
			var ew = parseFloat(a.width.value);
			var upstack;
			// Is it an ancestor
			if (0 == 0) {
				upstack = parseFloat(a.y.value) > ymin;
			} else {
				upstack = parseFloat(a.y.value) < ymin;
			}
			if (upstack) {
				// Direct ancestor
				if (ex <= xmin && (ex+ew+fudge) >= xmax) {
					e.classList.add("parent");
					zoom_parent(e);
					update_text(e);
				}
				// not in current path
				else
					e.classList.add("hide");
			}
			// Children maybe
			else {
				// no common path
				if (ex < xmin || ex + fudge >= xmax) {
					e.classList.add("hide");
				}
				else {
					zoom_child(e, xmin, ratio);
					update_text(e);
				}
			}
		}
		search();
	}
	function unzoom(dont_update_text) {
		unzoombtn.classList.add("hide");
		var el = document.getElementById("frames").children;
		for(var i = 0; i < el.length; i++) {
			el[i].classList.remove("parent");
			el[i].classList.remove("hide");
			zoom_reset(el[i]);
			if(!dont_update_text) update_text(el[i]);
		}
		search();
	}
	function clearzoom() {
		unzoom();

		// remove zoom state
		var params = get_params();
		if (params.x) delete params.x;
		if (params.y) delete params.y;
		history.replaceState(null, null, parse_params(params));
	}

	// search
	function toggle_ignorecase() {
		ignorecase = !ignorecase;
		if (ignorecase) {
			ignorecaseBtn.classList.add("show");
		} else {
			ignorecaseBtn.classList.remove("show");
		}
		reset_search();
		search();
	}
	function reset_search() {
		var el = document.querySelectorAll("#frames rect");
		for (var i = 0; i < el.length; i++) {
			orig_load(el[i], "fill")
		}
		var params = get_params();
		delete params.s;
		history.replaceState(null, null, parse_params(params));
	}
	function search_prompt() {
		if (!searching) {
			var term = prompt("Enter a search term (regexp " +
			    "allowed, eg: ^ext4_)"
			    + (ignorecase ? ", ignoring case" : "")
			    + "\nPress Ctrl-i to toggle case sensitivity", "");
			if (term != null) search(term);
		} else {
			reset_search();
			searching = 0;
			currentSearchTerm = null;
			searchbtn.classList.remove("show");
			searchbtn.firstChild.nodeValue = "Search"
			matchedtxt.classList.add("hide");
			matchedtxt.firstChild.nodeValue = ""
		}
	}
	function search(term) {
		if (term) currentSearchTerm = term;
		if (currentSearchTerm === null) return;

		var re = new RegExp(currentSearchTerm, ignorecase ? 'i' : '');
		var el = document.getElementById("frames").children;
		var matches = new Object();
		var maxwidth = 0;
		for (var i = 0; i < el.length; i++) {
			var e = el[i];
			var func = g_to_func(e);
			var rect = find_child(e, "rect");
			if (func == null || rect == null)
				continue;

			// Save max width. Only works as we have a root frame
			var w = parseFloat(rect.attributes.width.value);
			if (w > maxwidth)
				maxwidth = w;

			if (func.match(re)) {
				// highlight
				var x = parseFloat(rect.attributes.x.value);
				orig_save(rect, "fill");
				rect.attributes.fill.value = "rgb(230,0,230)";

				// remember matches
				if (matches[x] == undefined) {
					matches[x] = w;
				} else {
					if (w > matches[x]) {
						// overwrite with parent
						matches[x] = w;
					}
				}
				searching = 1;
			}
		}
		if (!searching)
			return;
		var params = get_params();
		params.s = currentSearchTerm;
		history.replaceState(null, null, parse_params(params));

		searchbtn.classList.add("show");
		searchbtn.firstChild.nodeValue = "Reset Search";

		// calculate percent matched, excluding vertical overlap
		var count = 0;
		var lastx = -1;
		var lastw = 0;
		var keys = Array();
		for (k in matches) {
			if (matches.hasOwnProperty(k))
				keys.push(k);
		}
		// sort the matched frames by their x location
		// ascending, then width descending
		keys.sort(function(a, b){
			return a - b;
		});
		// Step through frames saving only the biggest bottom-up frames
		// thanks to the sort order. This relies on the tree property
		// where children are always smaller than their parents.
		var fudge = 0.0001;	// JavaScript floating point
		for (var k in keys) {
			var x = parseFloat(keys[k]);
			var w = matches[keys[k]];
			if (x >= lastx + lastw - fudge) {
				count += w;
				lastx = x;
				lastw = w;
			}
		}
		// display matched percent
		matchedtxt.classList.remove("hide");
		var pct = 100 * count / maxwidth;
		if (pct != 100) pct = pct.toFixed(1)
		matchedtxt.firstChild.nodeValue = "Matched: " + pct + "%";
	}
]]>
</script>
<rect x="0.0" y="0" width="1200.0" height="342.0" fill="url(#background)"  />
<text id="title" x="600.00" y="24" >Flame Graph</text>
<text id="details" x="10.00" y="325" > </text>
<text id="unzoom" x="10.00" y="24" class="hide">Reset Zoom</text>
<text id="search" x="1090.00" y="24" >Search</text>
<text id="ignorecase" x="1174.00" y="24" >ic</text>
<text id="matched" x="1090.00" y="325" > </text>
<g id="frames">
<g >
<title>auto&amp; entt::basic_registry&lt;entt::entity, std::allocator&lt;entt::entity&gt; &gt;::assure&lt;BrainTimer&gt; (5,250,000 samples, 0.09%)</title><rect x="1079.1" y="133" width="1.1" height="15.0" fill="rgb(252,220,52)" rx="2" ry="2" />
<text  x="1082.13" y="143.5" ></text>
</g>
<g >
<title>DigestionSystem::update (10,250,000 samples, 0.17%)</title><rect x="63.6" y="181" width="2.1" height="15.0" fill="rgb(210,24,5)" rx="2" ry="2" />
<text  x="66.64" y="191.5" ></text>
</g>
<g >
<title>Node::activate (25,500,000 samples, 0.42%)</title><rect x="1102.8" y="149" width="5.0" height="15.0" fill="rgb(210,24,5)" rx="2" ry="2" />
<text  x="1105.81" y="159.5" ></text>
</g>
<g >
<title>QuadTree::query_node (1,250,000 samples, 0.02%)</title><rect x="60.0" y="37" width="0.3" height="15.0" fill="rgb(232,126,30)" rx="2" ry="2" />
<text  x="63.01" y="47.5" ></text>
</g>
<g >
<title>entt::basic_sigh_mixin&lt;entt::basic_storage&lt;OldPosition, entt::entity, std::allocator&lt;OldPosition&gt;, void&gt;, entt::basic_registry&lt;entt::entity, std::allocator&lt;entt::entity&gt; &gt; &gt;::pop (750,000 samples, 0.01%)</title><rect x="1047.3" y="165" width="0.1" height="15.0" fill="rgb(233,129,30)" rx="2" ry="2" />
<text  x="1050.30" y="175.5" ></text>
</g>
<g >
<title>atan2f32 (1,250,000 samples, 0.02%)</title><rect x="617.4" y="165" width="0.3" height="15.0" fill="rgb(216,50,12)" rx="2" ry="2" />
<text  x="620.44" y="175.5" ></text>
</g>
<g >
<title>malloc (13,000,000 samples, 0.22%)</title><rect x="554.6" y="133" width="2.6" height="15.0" fill="rgb(230,119,28)" rx="2" ry="2" />
<text  x="557.61" y="143.5" ></text>
</g>
<g >
<title>QuadNode::intersects_circle (8,750,000 samples, 0.15%)</title><rect x="19.7" y="149" width="1.7" height="15.0" fill="rgb(231,121,29)" rx="2" ry="2" />
<text  x="22.73" y="159.5" ></text>
</g>
<g >
<title>OutputNode::populate_output (2,250,000 samples, 0.04%)</title><rect x="1163.0" y="165" width="0.5" height="15.0" fill="rgb(240,161,38)" rx="2" ry="2" />
<text  x="1166.03" y="175.5" ></text>
</g>
<g >
<title>Brain::think (226,250,000 samples, 3.77%)</title><rect x="1056.9" y="165" width="44.4" height="15.0" fill="rgb(234,136,32)" rx="2" ry="2" />
<text  x="1059.88" y="175.5" >Brai..</text>
</g>
<g >
<title>atan2f@plt (750,000 samples, 0.01%)</title><rect x="617.7" y="165" width="0.1" height="15.0" fill="rgb(234,135,32)" rx="2" ry="2" />
<text  x="620.68" y="175.5" ></text>
</g>
<g >
<title>auto&amp; entt::basic_registry&lt;entt::entity, std::allocator&lt;entt::entity&gt; &gt;::assure&lt;CreatureState&gt; (4,250,000 samples, 0.07%)</title><rect x="1053.6" y="133" width="0.8" height="15.0" fill="rgb(238,156,37)" rx="2" ry="2" />
<text  x="1056.59" y="143.5" ></text>
</g>
<g >
<title>ReproductionSystem::update (3,500,000 samples, 0.06%)</title><rect x="81.1" y="181" width="0.7" height="15.0" fill="rgb(238,152,36)" rx="2" ry="2" />
<text  x="84.08" y="191.5" ></text>
</g>
<g >
<title>auto&amp; entt::basic_registry&lt;entt::entity, std::allocator&lt;entt::entity&gt; &gt;::assure&lt;OldPosition&gt; (2,250,000 samples, 0.04%)</title><rect x="1046.8" y="165" width="0.5" height="15.0" fill="rgb(230,119,28)" rx="2" ry="2" />
<text  x="1049.81" y="175.5" ></text>
</g>
<g >
<title>all (6,005,500,000 samples, 100%)</title><rect x="10.0" y="293" width="1180.0" height="15.0" fill="rgb(213,39,9)" rx="2" ry="2" />
<text  x="13.00" y="303.5" ></text>
</g>
<g >
<title>operator delete (750,000 samples, 0.01%)</title><rect x="620.2" y="165" width="0.2" height="15.0" fill="rgb(247,196,46)" rx="2" ry="2" />
<text  x="623.24" y="175.5" ></text>
</g>
<g >
<title>atan2f32 (70,250,000 samples, 1.17%)</title><rect x="600.8" y="149" width="13.8" height="15.0" fill="rgb(216,50,12)" rx="2" ry="2" />
<text  x="603.79" y="159.5" ></text>
</g>
<g >
<title>entt::basic_sparse_set&lt;entt::entity, std::allocator&lt;entt::entity&gt; &gt;::try_emplace (750,000 samples, 0.01%)</title><rect x="61.6" y="149" width="0.2" height="15.0" fill="rgb(223,85,20)" rx="2" ry="2" />
<text  x="64.63" y="159.5" ></text>
</g>
<g >
<title>[libc.so.6] (1,500,000 samples, 0.02%)</title><rect x="558.3" y="133" width="0.3" height="15.0" fill="rgb(223,84,20)" rx="2" ry="2" />
<text  x="561.30" y="143.5" ></text>
</g>
<g >
<title>[libc.so.6] (4,250,000 samples, 0.07%)</title><rect x="552.1" y="133" width="0.8" height="15.0" fill="rgb(223,84,20)" rx="2" ry="2" />
<text  x="555.11" y="143.5" ></text>
</g>
<g >
<title>bool entt::internal::all_of&lt;entt::basic_sparse_set&lt;entt::entity, std::allocator&lt;entt::entity&gt; &gt; const* const*, entt::entity&gt; (118,250,000 samples, 1.97%)</title><rect x="1165.9" y="181" width="23.3" height="15.0" fill="rgb(208,14,3)" rx="2" ry="2" />
<text  x="1168.93" y="191.5" >b..</text>
</g>
<g >
<title>[ld-linux-x86-64.so.2] (1,250,000 samples, 0.02%)</title><rect x="10.0" y="245" width="0.2" height="15.0" fill="rgb(243,178,42)" rx="2" ry="2" />
<text  x="13.00" y="255.5" ></text>
</g>
<g >
<title>entt::basic_sparse_set&lt;entt::entity, std::allocator&lt;entt::entity&gt; &gt;::swap_and_pop (3,000,000 samples, 0.05%)</title><rect x="1047.4" y="165" width="0.6" height="15.0" fill="rgb(214,44,10)" rx="2" ry="2" />
<text  x="1050.45" y="175.5" ></text>
</g>
<g >
<title>entt::internal::view_iterator&lt;entt::basic_sparse_set&lt;entt::entity, std::allocator&lt;entt::entity&gt; &gt;, false, 3ul, 0ul&gt;::seek_next (6,500,000 samples, 0.11%)</title><rect x="68.5" y="165" width="1.2" height="15.0" fill="rgb(231,120,28)" rx="2" ry="2" />
<text  x="71.45" y="175.5" ></text>
</g>
<g >
<title>OutputNode::populate_output (19,750,000 samples, 0.33%)</title><rect x="1051.0" y="149" width="3.9" height="15.0" fill="rgb(240,161,38)" rx="2" ry="2" />
<text  x="1053.99" y="159.5" ></text>
</g>
<g >
<title>malloc@plt (2,500,000 samples, 0.04%)</title><rect x="552.9" y="149" width="0.5" height="15.0" fill="rgb(246,192,46)" rx="2" ry="2" />
<text  x="555.94" y="159.5" ></text>
</g>
<g >
<title>Node::reset_next_value (25,250,000 samples, 0.42%)</title><rect x="1088.5" y="149" width="4.9" height="15.0" fill="rgb(251,214,51)" rx="2" ry="2" />
<text  x="1091.47" y="159.5" ></text>
</g>
<g >
<title>Brain::populate_outputs (32,500,000 samples, 0.54%)</title><rect x="1050.3" y="165" width="6.4" height="15.0" fill="rgb(232,126,30)" rx="2" ry="2" />
<text  x="1053.35" y="175.5" ></text>
</g>
<g >
<title>[libc.so.6] (11,000,000 samples, 0.18%)</title><rect x="559.6" y="117" width="2.2" height="15.0" fill="rgb(223,84,20)" rx="2" ry="2" />
<text  x="562.62" y="127.5" ></text>
</g>
<g >
<title>EnvironmentSystem::update (20,750,000 samples, 0.35%)</title><rect x="65.7" y="181" width="4.0" height="15.0" fill="rgb(216,52,12)" rx="2" ry="2" />
<text  x="68.65" y="191.5" ></text>
</g>
<g >
<title>main (6,005,500,000 samples, 100.00%)</title><rect x="10.0" y="277" width="1180.0" height="15.0" fill="rgb(243,179,42)" rx="2" ry="2" />
<text  x="13.00" y="287.5" >main</text>
</g>
<g >
<title>auto&amp; entt::basic_registry&lt;entt::entity, std::allocator&lt;entt::entity&gt; &gt;::assure&lt;Age&gt; (750,000 samples, 0.01%)</title><rect x="1097.7" y="149" width="0.1" height="15.0" fill="rgb(207,11,2)" rx="2" ry="2" />
<text  x="1100.65" y="159.5" ></text>
</g>
<g >
<title>MovementSystem::update (18,500,000 samples, 0.31%)</title><rect x="71.4" y="181" width="3.6" height="15.0" fill="rgb(248,198,47)" rx="2" ry="2" />
<text  x="74.40" y="191.5" ></text>
</g>
<g >
<title>entt::basic_sparse_set&lt;entt::entity, std::allocator&lt;entt::entity&gt; &gt;::try_emplace (2,750,000 samples, 0.05%)</title><rect x="74.2" y="165" width="0.5" height="15.0" fill="rgb(223,85,20)" rx="2" ry="2" />
<text  x="77.15" y="175.5" ></text>
</g>
<g >
<title>entt::internal::view_iterator&lt;entt::basic_sparse_set&lt;entt::entity, std::allocator&lt;entt::entity&gt; &gt;, false, 3ul, 0ul&gt;::seek_next (2,500,000 samples, 0.04%)</title><rect x="65.2" y="165" width="0.5" height="15.0" fill="rgb(231,120,28)" rx="2" ry="2" />
<text  x="68.16" y="175.5" ></text>
</g>
<g >
<title>SpatialIndexSystem::update (2,182,250,000 samples, 36.34%)</title><rect x="621.1" y="181" width="428.8" height="15.0" fill="rgb(249,206,49)" rx="2" ry="2" />
<text  x="624.07" y="191.5" >SpatialIndexSystem::update</text>
</g>
<g >
<title>QuadTree::query_node (118,250,000 samples, 1.97%)</title><rect x="37.0" y="101" width="23.3" height="15.0" fill="rgb(232,126,30)" rx="2" ry="2" />
<text  x="40.02" y="111.5" >Q..</text>
</g>
<g >
<title>entt::internal::view_iterator&lt;entt::basic_sparse_set&lt;entt::entity, std::allocator&lt;entt::entity&gt; &gt;, false, 2ul, 0ul&gt;::seek_next (1,750,000 samples, 0.03%)</title><rect x="74.7" y="165" width="0.3" height="15.0" fill="rgb(237,149,35)" rx="2" ry="2" />
<text  x="77.69" y="175.5" ></text>
</g>
<g >
<title>sinf@plt (1,000,000 samples, 0.02%)</title><rect x="1161.0" y="149" width="0.2" height="15.0" fill="rgb(238,156,37)" rx="2" ry="2" />
<text  x="1164.02" y="159.5" ></text>
</g>
<g >
<title>CollisionSystem::handle_eating (3,250,000 samples, 0.05%)</title><rect x="16.8" y="165" width="0.6" height="15.0" fill="rgb(223,86,20)" rx="2" ry="2" />
<text  x="19.78" y="175.5" ></text>
</g>
<g >
<title>auto&amp; entt::basic_registry&lt;entt::entity, std::allocator&lt;entt::entity&gt; &gt;::assure&lt;BrainTimer&gt; (750,000 samples, 0.01%)</title><rect x="1053.4" y="133" width="0.2" height="15.0" fill="rgb(252,220,52)" rx="2" ry="2" />
<text  x="1056.44" y="143.5" ></text>
</g>
<g >
<title>InputNode::load_input (91,000,000 samples, 1.52%)</title><rect x="1069.4" y="149" width="17.9" height="15.0" fill="rgb(215,48,11)" rx="2" ry="2" />
<text  x="1072.41" y="159.5" ></text>
</g>
<g >
<title>entt::internal::view_iterator&lt;entt::basic_sparse_set&lt;entt::entity, std::allocator&lt;entt::entity&gt; &gt;, false, 3ul, 1ul&gt;::seek_next (7,250,000 samples, 0.12%)</title><rect x="62.0" y="165" width="1.4" height="15.0" fill="rgb(224,90,21)" rx="2" ry="2" />
<text  x="65.02" y="175.5" ></text>
</g>
<g >
<title>CreatureFactory::spawn_random (2,000,000 samples, 0.03%)</title><rect x="10.2" y="181" width="0.4" height="15.0" fill="rgb(242,171,41)" rx="2" ry="2" />
<text  x="13.25" y="191.5" ></text>
</g>
<g >
<title>decltype (5,750,000 samples, 0.10%)</title><rect x="60.7" y="165" width="1.1" height="15.0" fill="rgb(220,73,17)" rx="2" ry="2" />
<text  x="63.69" y="175.5" ></text>
</g>
<g >
<title>MetabolismSystem::update (8,500,000 samples, 0.14%)</title><rect x="69.7" y="181" width="1.7" height="15.0" fill="rgb(244,183,43)" rx="2" ry="2" />
<text  x="72.73" y="191.5" ></text>
</g>
<g >
<title>QuadTree::query_node (8,500,000 samples, 0.14%)</title><rect x="58.6" y="53" width="1.7" height="15.0" fill="rgb(232,126,30)" rx="2" ry="2" />
<text  x="61.58" y="63.5" ></text>
</g>
<g >
<title>[ld-linux-x86-64.so.2] (1,250,000 samples, 0.02%)</title><rect x="10.0" y="261" width="0.2" height="15.0" fill="rgb(243,178,42)" rx="2" ry="2" />
<text  x="13.00" y="271.5" ></text>
</g>
<g >
<title>auto&amp; entt::basic_registry&lt;entt::entity, std::allocator&lt;entt::entity&gt; &gt;::assure&lt;BrainTimer&gt; (750,000 samples, 0.01%)</title><rect x="1097.8" y="149" width="0.1" height="15.0" fill="rgb(252,220,52)" rx="2" ry="2" />
<text  x="1100.80" y="159.5" ></text>
</g>
<g >
<title>std::_Hashtable&lt;int, std::pair&lt;int const, std::pair&lt;NodeType, int&gt; &gt;, std::allocator&lt;std::pair&lt;int const, std::pair&lt;NodeType, int&gt; &gt; &gt;, std::__detail::_Select1st, std::equal_to&lt;int&gt;, std::hash&lt;int&gt;, std::__detail::_Mod_range_hashing, std::__detail::_Default_ranged_hash, std::__detail::_Prime_rehash_policy, std::__detail::_Hashtable_traits&lt;false, false, true&gt; &gt;::find (28,750,000 samples, 0.48%)</title><rect x="1062.1" y="133" width="5.6" height="15.0" fill="rgb(243,176,42)" rx="2" ry="2" />
<text  x="1065.09" y="143.5" ></text>
</g>
<g >
<title>QuadTree::query_node (81,500,000 samples, 1.36%)</title><rect x="44.2" y="85" width="16.1" height="15.0" fill="rgb(232,126,30)" rx="2" ry="2" />
<text  x="47.24" y="95.5" ></text>
</g>
<g >
<title>[libm.so.6] (28,750,000 samples, 0.48%)</title><rect x="1141.3" y="133" width="5.6" height="15.0" fill="rgb(208,16,4)" rx="2" ry="2" />
<text  x="1144.27" y="143.5" ></text>
</g>
<g >
<title>Simulation::initialize (16,750,000 samples, 0.28%)</title><rect x="10.2" y="197" width="3.3" height="15.0" fill="rgb(222,79,19)" rx="2" ry="2" />
<text  x="13.25" y="207.5" ></text>
</g>
<g >
<title>QuadTree::collect_leaf (11,500,000 samples, 0.19%)</title><rect x="50.6" y="69" width="2.2" height="15.0" fill="rgb(236,142,34)" rx="2" ry="2" />
<text  x="53.57" y="79.5" ></text>
</g>
<g >
<title>auto&amp; entt::basic_registry&lt;entt::entity, std::allocator&lt;entt::entity&gt; &gt;::assure&lt;OldPosition&gt; (1,000,000 samples, 0.02%)</title><rect x="61.4" y="149" width="0.2" height="15.0" fill="rgb(230,119,28)" rx="2" ry="2" />
<text  x="64.43" y="159.5" ></text>
</g>
<g >
<title>decltype (22,750,000 samples, 0.38%)</title><rect x="1082.8" y="133" width="4.5" height="15.0" fill="rgb(220,73,17)" rx="2" ry="2" />
<text  x="1085.82" y="143.5" ></text>
</g>
<g >
<title>_start (6,004,250,000 samples, 99.98%)</title><rect x="10.2" y="261" width="1179.8" height="15.0" fill="rgb(245,185,44)" rx="2" ry="2" />
<text  x="13.25" y="271.5" >_start</text>
</g>
<g >
<title>Fertility::random_location (750,000 samples, 0.01%)</title><rect x="75.1" y="149" width="0.1" height="15.0" fill="rgb(247,197,47)" rx="2" ry="2" />
<text  x="78.09" y="159.5" ></text>
</g>
<g >
<title>PlantFactory::spawn_random (5,500,000 samples, 0.09%)</title><rect x="75.1" y="165" width="1.1" height="15.0" fill="rgb(233,131,31)" rx="2" ry="2" />
<text  x="78.09" y="175.5" ></text>
</g>
<g >
<title>__libc_start_main (6,004,250,000 samples, 99.98%)</title><rect x="10.2" y="245" width="1179.8" height="15.0" fill="rgb(236,142,34)" rx="2" ry="2" />
<text  x="13.25" y="255.5" >__libc_start_main</text>
</g>
<g >
<title>QuadTree::query_node (37,750,000 samples, 0.63%)</title><rect x="52.8" y="69" width="7.5" height="15.0" fill="rgb(232,126,30)" rx="2" ry="2" />
<text  x="55.83" y="79.5" ></text>
</g>
<g >
<title>QuadNode::intersects_circle (10,750,000 samples, 0.18%)</title><rect x="24.4" y="133" width="2.2" height="15.0" fill="rgb(231,121,29)" rx="2" ry="2" />
<text  x="27.44" y="143.5" ></text>
</g>
<g >
<title>QuadNode::intersects_circle (15,500,000 samples, 0.26%)</title><rect x="40.9" y="85" width="3.0" height="15.0" fill="rgb(231,121,29)" rx="2" ry="2" />
<text  x="43.90" y="95.5" ></text>
</g>
<g >
<title>entt::internal::view_iterator&lt;entt::basic_sparse_set&lt;entt::entity, std::allocator&lt;entt::entity&gt; &gt;, false, 4ul, 0ul&gt;::seek_next (9,750,000 samples, 0.16%)</title><rect x="618.3" y="165" width="1.9" height="15.0" fill="rgb(224,90,21)" rx="2" ry="2" />
<text  x="621.32" y="175.5" ></text>
</g>
<g >
<title>Brain::update_nodes (305,250,000 samples, 5.08%)</title><rect x="1101.3" y="165" width="60.0" height="15.0" fill="rgb(249,205,49)" rx="2" ry="2" />
<text  x="1104.34" y="175.5" >Brain:..</text>
</g>
<g >
<title>[ld-linux-x86-64.so.2] (1,000,000 samples, 0.02%)</title><rect x="10.0" y="213" width="0.2" height="15.0" fill="rgb(243,178,42)" rx="2" ry="2" />
<text  x="13.00" y="223.5" ></text>
</g>
<g >
<title>Node::update (5,500,000 samples, 0.09%)</title><rect x="1162.0" y="165" width="1.0" height="15.0" fill="rgb(241,166,39)" rx="2" ry="2" />
<text  x="1164.95" y="175.5" ></text>
</g>
<g >
<title>InputNode::load_input (3,250,000 samples, 0.05%)</title><rect x="1161.3" y="165" width="0.7" height="15.0" fill="rgb(215,48,11)" rx="2" ry="2" />
<text  x="1164.31" y="175.5" ></text>
</g>
<g >
<title>SensorSystem::set_direction (283,250,000 samples, 4.72%)</title><rect x="561.8" y="165" width="55.6" height="15.0" fill="rgb(235,141,33)" rx="2" ry="2" />
<text  x="564.78" y="175.5" >Senso..</text>
</g>
<g >
<title>Brain::get_node (2,250,000 samples, 0.04%)</title><rect x="1067.7" y="149" width="0.5" height="15.0" fill="rgb(229,110,26)" rx="2" ry="2" />
<text  x="1070.74" y="159.5" ></text>
</g>
<g >
<title>Node::accept_input (6,000,000 samples, 0.10%)</title><rect x="1087.3" y="149" width="1.2" height="15.0" fill="rgb(232,127,30)" rx="2" ry="2" />
<text  x="1090.29" y="159.5" ></text>
</g>
<g >
<title>[ld-linux-x86-64.so.2] (1,250,000 samples, 0.02%)</title><rect x="10.0" y="229" width="0.2" height="15.0" fill="rgb(243,178,42)" rx="2" ry="2" />
<text  x="13.00" y="239.5" ></text>
</g>
<g >
<title>decltype (4,250,000 samples, 0.07%)</title><rect x="1098.2" y="149" width="0.8" height="15.0" fill="rgb(220,73,17)" rx="2" ry="2" />
<text  x="1101.19" y="159.5" ></text>
</g>
<g >
<title>cfree (9,250,000 samples, 0.15%)</title><rect x="551.1" y="149" width="1.8" height="15.0" fill="rgb(223,86,20)" rx="2" ry="2" />
<text  x="554.12" y="159.5" ></text>
</g>
<g >
<title>auto&amp; entt::basic_registry&lt;entt::entity, std::allocator&lt;entt::entity&gt; &gt;::assure&lt;CreatureState&gt; (4,750,000 samples, 0.08%)</title><rect x="1081.1" y="133" width="1.0" height="15.0" fill="rgb(238,156,37)" rx="2" ry="2" />
<text  x="1084.15" y="143.5" ></text>
</g>
<g >
<title>[libm.so.6] (28,000,000 samples, 0.47%)</title><rect x="1155.5" y="149" width="5.5" height="15.0" fill="rgb(208,16,4)" rx="2" ry="2" />
<text  x="1158.52" y="159.5" ></text>
</g>
<g >
<title>QuadNode::intersects_circle (1,000,000 samples, 0.02%)</title><rect x="59.7" y="37" width="0.2" height="15.0" fill="rgb(231,121,29)" rx="2" ry="2" />
<text  x="62.71" y="47.5" ></text>
</g>
<g >
<title>main (6,004,250,000 samples, 99.98%)</title><rect x="10.2" y="213" width="1179.8" height="15.0" fill="rgb(243,179,42)" rx="2" ry="2" />
<text  x="13.25" y="223.5" >main</text>
</g>
<g >
<title>operator new (16,500,000 samples, 0.27%)</title><rect x="553.9" y="149" width="3.3" height="15.0" fill="rgb(216,51,12)" rx="2" ry="2" />
<text  x="556.92" y="159.5" ></text>
</g>
<g >
<title>operator delete (2,500,000 samples, 0.04%)</title><rect x="553.4" y="149" width="0.5" height="15.0" fill="rgb(247,196,46)" rx="2" ry="2" />
<text  x="556.43" y="159.5" ></text>
</g>
<g >
<title>Fertility::random_location (3,000,000 samples, 0.05%)</title><rect x="10.7" y="165" width="0.6" height="15.0" fill="rgb(247,197,47)" rx="2" ry="2" />
<text  x="13.74" y="175.5" ></text>
</g>
<g >
<title>auto&amp; entt::basic_registry&lt;entt::entity, std::allocator&lt;entt::entity&gt; &gt;::assure&lt;Stomach&gt; (750,000 samples, 0.01%)</title><rect x="17.3" y="149" width="0.1" height="15.0" fill="rgb(250,209,50)" rx="2" ry="2" />
<text  x="20.27" y="159.5" ></text>
</g>
<g >
<title>entt::basic_sparse_set&lt;entt::entity, std::allocator&lt;entt::entity&gt; &gt;::index (1,000,000 samples, 0.02%)</title><rect x="61.8" y="165" width="0.2" height="15.0" fill="rgb(238,154,36)" rx="2" ry="2" />
<text  x="64.82" y="175.5" ></text>
</g>
<g >
<title>Brain::reset_next_values (6,250,000 samples, 0.10%)</title><rect x="1068.2" y="149" width="1.2" height="15.0" fill="rgb(249,205,49)" rx="2" ry="2" />
<text  x="1071.18" y="159.5" ></text>
</g>
<g >
<title>[ld-linux-x86-64.so.2] (1,000,000 samples, 0.02%)</title><rect x="10.0" y="197" width="0.2" height="15.0" fill="rgb(243,178,42)" rx="2" ry="2" />
<text  x="13.00" y="207.5" ></text>
</g>
<g >
<title>auto&amp; entt::basic_registry&lt;entt::entity, std::allocator&lt;entt::entity&gt; &gt;::assure&lt;Velocity&gt; (2,250,000 samples, 0.04%)</title><rect x="1054.4" y="133" width="0.5" height="15.0" fill="rgb(223,85,20)" rx="2" ry="2" />
<text  x="1057.42" y="143.5" ></text>
</g>
<g >
<title>auto&amp; entt::basic_registry&lt;entt::entity, std::allocator&lt;entt::entity&gt; &gt;::assure&lt;OldPosition&gt; (1,000,000 samples, 0.02%)</title><rect x="73.9" y="165" width="0.2" height="15.0" fill="rgb(230,119,28)" rx="2" ry="2" />
<text  x="76.86" y="175.5" ></text>
</g>
<g >
<title>QuadTree::query_closest (1,750,000 samples, 0.03%)</title><rect x="80.3" y="181" width="0.3" height="15.0" fill="rgb(216,54,12)" rx="2" ry="2" />
<text  x="83.29" y="191.5" ></text>
</g>
<g >
<title>siv::BasicPerlinNoise&lt;double&gt;::noise3D (4,500,000 samples, 0.07%)</title><rect x="75.3" y="149" width="0.9" height="15.0" fill="rgb(220,73,17)" rx="2" ry="2" />
<text  x="78.28" y="159.5" ></text>
</g>
<g >
<title>cfree (2,000,000 samples, 0.03%)</title><rect x="617.9" y="165" width="0.4" height="15.0" fill="rgb(223,86,20)" rx="2" ry="2" />
<text  x="620.93" y="175.5" ></text>
</g>
<g >
<title>entt::basic_storage&lt;OldPosition, entt::entity, std::allocator&lt;OldPosition&gt;, void&gt;::pop (9,250,000 samples, 0.15%)</title><rect x="1048.0" y="165" width="1.9" height="15.0" fill="rgb(205,1,0)" rx="2" ry="2" />
<text  x="1051.04" y="175.5" ></text>
</g>
<g >
<title>siv::BasicPerlinNoise&lt;double&gt;::noise3D (1,000,000 samples, 0.02%)</title><rect x="10.4" y="165" width="0.2" height="15.0" fill="rgb(220,73,17)" rx="2" ry="2" />
<text  x="13.44" y="175.5" ></text>
</g>
<g >
<title>QuadNode::intersects_circle (17,250,000 samples, 0.29%)</title><rect x="47.2" y="69" width="3.4" height="15.0" fill="rgb(231,121,29)" rx="2" ry="2" />
<text  x="50.19" y="79.5" ></text>
</g>
<g >
<title>PlantSystem::update (5,750,000 samples, 0.10%)</title><rect x="75.0" y="181" width="1.2" height="15.0" fill="rgb(242,174,41)" rx="2" ry="2" />
<text  x="78.04" y="191.5" ></text>
</g>
<g >
<title>QuadTree::update_bounds (2,000,000 samples, 0.03%)</title><rect x="80.7" y="181" width="0.4" height="15.0" fill="rgb(205,3,0)" rx="2" ry="2" />
<text  x="83.69" y="191.5" ></text>
</g>
<g >
<title>atanf32 (60,000,000 samples, 1.00%)</title><rect x="602.8" y="133" width="11.8" height="15.0" fill="rgb(239,156,37)" rx="2" ry="2" />
<text  x="605.80" y="143.5" ></text>
</g>
<g >
<title>Node::activate (39,000,000 samples, 0.65%)</title><rect x="1133.6" y="133" width="7.7" height="15.0" fill="rgb(210,24,5)" rx="2" ry="2" />
<text  x="1136.61" y="143.5" ></text>
</g>
<g >
<title>CollisionSystem::update (253,000,000 samples, 4.21%)</title><rect x="13.7" y="181" width="49.7" height="15.0" fill="rgb(221,76,18)" rx="2" ry="2" />
<text  x="16.73" y="191.5" >Colli..</text>
</g>
<g >
<title>auto&amp; entt::basic_registry&lt;entt::entity, std::allocator&lt;entt::entity&gt; &gt;::assure&lt;CreatureEnergy&gt; (3,750,000 samples, 0.06%)</title><rect x="1080.4" y="133" width="0.7" height="15.0" fill="rgb(210,25,6)" rx="2" ry="2" />
<text  x="1083.41" y="143.5" ></text>
</g>
<g >
<title>auto&amp; entt::basic_registry&lt;entt::entity, std::allocator&lt;entt::entity&gt; &gt;::assure&lt;Stomach&gt; (1,500,000 samples, 0.02%)</title><rect x="1082.1" y="133" width="0.3" height="15.0" fill="rgb(250,209,50)" rx="2" ry="2" />
<text  x="1085.08" y="143.5" ></text>
</g>
<g >
<title>QuadTree::query_node (212,500,000 samples, 3.54%)</title><rect x="18.5" y="165" width="41.8" height="15.0" fill="rgb(232,126,30)" rx="2" ry="2" />
<text  x="21.50" y="175.5" >Qua..</text>
</g>
<g >
<title>expm1f32 (34,500,000 samples, 0.57%)</title><rect x="1147.1" y="133" width="6.8" height="15.0" fill="rgb(230,116,27)" rx="2" ry="2" />
<text  x="1150.12" y="143.5" ></text>
</g>
<g >
<title>auto&amp; entt::basic_registry&lt;entt::entity, std::allocator&lt;entt::entity&gt; &gt;::assure&lt;Age&gt; (1,500,000 samples, 0.02%)</title><rect x="1078.8" y="133" width="0.3" height="15.0" fill="rgb(207,11,2)" rx="2" ry="2" />
<text  x="1081.84" y="143.5" ></text>
</g>
<g >
<title>entt::basic_sparse_set&lt;entt::entity, std::allocator&lt;entt::entity&gt; &gt;::index (9,250,000 samples, 0.15%)</title><rect x="1054.9" y="149" width="1.8" height="15.0" fill="rgb(238,154,36)" rx="2" ry="2" />
<text  x="1057.92" y="159.5" ></text>
</g>
<g >
<title>[libc.so.6] (6,004,250,000 samples, 99.98%)</title><rect x="10.2" y="229" width="1179.8" height="15.0" fill="rgb(223,84,20)" rx="2" ry="2" />
<text  x="13.25" y="239.5" >[libc.so.6]</text>
</g>
<g >
<title>DeathSystem::update (1,000,000 samples, 0.02%)</title><rect x="63.4" y="181" width="0.2" height="15.0" fill="rgb(254,227,54)" rx="2" ry="2" />
<text  x="66.44" y="191.5" ></text>
</g>
<g >
<title>[libm.so.6] (21,500,000 samples, 0.36%)</title><rect x="1093.4" y="149" width="4.3" height="15.0" fill="rgb(208,16,4)" rx="2" ry="2" />
<text  x="1096.43" y="159.5" ></text>
</g>
<g >
<title>QuadTree::query_node (197,500,000 samples, 3.29%)</title><rect x="21.4" y="149" width="38.9" height="15.0" fill="rgb(232,126,30)" rx="2" ry="2" />
<text  x="24.45" y="159.5" >Qua..</text>
</g>
<g >
<title>auto&amp; entt::basic_registry&lt;entt::entity, std::allocator&lt;entt::entity&gt; &gt;::assure&lt;CreatureState&gt; (1,000,000 samples, 0.02%)</title><rect x="1098.0" y="149" width="0.2" height="15.0" fill="rgb(238,156,37)" rx="2" ry="2" />
<text  x="1101.00" y="159.5" ></text>
</g>
<g >
<title>PlantFactory::spawn_random (14,750,000 samples, 0.25%)</title><rect x="10.6" y="181" width="2.9" height="15.0" fill="rgb(233,131,31)" rx="2" ry="2" />
<text  x="13.64" y="191.5" ></text>
</g>
<g >
<title>cfree (16,250,000 samples, 0.27%)</title><rect x="558.6" y="133" width="3.2" height="15.0" fill="rgb(223,86,20)" rx="2" ry="2" />
<text  x="561.59" y="143.5" ></text>
</g>
<g >
<title>QuadTree::insert (1,840,250,000 samples, 30.64%)</title><rect x="685.2" y="165" width="361.6" height="15.0" fill="rgb(208,16,3)" rx="2" ry="2" />
<text  x="688.23" y="175.5" >QuadTree::insert</text>
</g>
<g >
<title>operator new (2,250,000 samples, 0.04%)</title><rect x="620.4" y="165" width="0.4" height="15.0" fill="rgb(216,51,12)" rx="2" ry="2" />
<text  x="623.39" y="175.5" ></text>
</g>
<g >
<title>[libc.so.6] (1,500,000 samples, 0.02%)</title><rect x="550.7" y="149" width="0.3" height="15.0" fill="rgb(223,84,20)" rx="2" ry="2" />
<text  x="553.73" y="159.5" ></text>
</g>
<g >
<title>Simulation::update (5,987,000,000 samples, 99.69%)</title><rect x="13.5" y="197" width="1176.4" height="15.0" fill="rgb(206,7,1)" rx="2" ry="2" />
<text  x="16.54" y="207.5" >Simulation::update</text>
</g>
<g >
<title>__atan2f_finite (7,000,000 samples, 0.12%)</title><rect x="601.4" y="133" width="1.4" height="15.0" fill="rgb(249,204,49)" rx="2" ry="2" />
<text  x="604.42" y="143.5" ></text>
</g>
<g >
<title>SensorSystem::set_direction (1,000,000 samples, 0.02%)</title><rect x="81.8" y="181" width="0.2" height="15.0" fill="rgb(235,141,33)" rx="2" ry="2" />
<text  x="84.77" y="191.5" ></text>
</g>
<g >
<title>QuadTree::query_node (146,750,000 samples, 2.44%)</title><rect x="31.4" y="117" width="28.9" height="15.0" fill="rgb(232,126,30)" rx="2" ry="2" />
<text  x="34.42" y="127.5" >Qu..</text>
</g>
<g >
<title>QuadTree::collect_leaf (5,500,000 samples, 0.09%)</title><rect x="57.5" y="53" width="1.1" height="15.0" fill="rgb(236,142,34)" rx="2" ry="2" />
<text  x="60.50" y="63.5" ></text>
</g>
<g >
<title>QuadNode::intersects_circle (6,250,000 samples, 0.10%)</title><rect x="56.3" y="53" width="1.2" height="15.0" fill="rgb(231,121,29)" rx="2" ry="2" />
<text  x="59.27" y="63.5" ></text>
</g>
<g >
<title>Brain::get_node (15,250,000 samples, 0.25%)</title><rect x="1059.1" y="133" width="3.0" height="15.0" fill="rgb(229,110,26)" rx="2" ry="2" />
<text  x="1062.09" y="143.5" ></text>
</g>
<g >
<title>siv::BasicPerlinNoise&lt;double&gt;::noise3D (11,000,000 samples, 0.18%)</title><rect x="11.4" y="165" width="2.1" height="15.0" fill="rgb(220,73,17)" rx="2" ry="2" />
<text  x="14.38" y="175.5" ></text>
</g>
<g >
<title>QuadTree::query_node (171,500,000 samples, 2.86%)</title><rect x="26.6" y="133" width="33.7" height="15.0" fill="rgb(232,126,30)" rx="2" ry="2" />
<text  x="29.55" y="143.5" >Qu..</text>
</g>
<g >
<title>Brain::reset_next_values (750,000 samples, 0.01%)</title><rect x="1056.7" y="165" width="0.2" height="15.0" fill="rgb(249,205,49)" rx="2" ry="2" />
<text  x="1059.73" y="175.5" ></text>
</g>
<g >
<title>tanhf32 (8,000,000 samples, 0.13%)</title><rect x="1153.9" y="133" width="1.6" height="15.0" fill="rgb(243,178,42)" rx="2" ry="2" />
<text  x="1156.94" y="143.5" ></text>
</g>
<g >
<title>QuadTree::insert (20,750,000 samples, 0.35%)</title><rect x="76.2" y="181" width="4.0" height="15.0" fill="rgb(208,16,3)" rx="2" ry="2" />
<text  x="79.17" y="191.5" ></text>
</g>
<g >
<title>ThinkingSystem::update (578,500,000 samples, 9.63%)</title><rect x="1049.9" y="181" width="113.6" height="15.0" fill="rgb(245,184,44)" rx="2" ry="2" />
<text  x="1052.86" y="191.5" >ThinkingSystem..</text>
</g>
<g >
<title>auto&amp; entt::basic_registry&lt;entt::entity, std::allocator&lt;entt::entity&gt; &gt;::assure&lt;VisionSensors&gt; (2,250,000 samples, 0.04%)</title><rect x="1082.4" y="133" width="0.4" height="15.0" fill="rgb(224,87,20)" rx="2" ry="2" />
<text  x="1085.37" y="143.5" ></text>
</g>
<g >
<title>std::_Deque_base&lt;int, std::allocator&lt;int&gt; &gt;::~_Deque_base (23,500,000 samples, 0.39%)</title><rect x="557.2" y="149" width="4.6" height="15.0" fill="rgb(242,171,40)" rx="2" ry="2" />
<text  x="560.17" y="159.5" ></text>
</g>
<g >
<title>QuadTree::query_closest (2,426,750,000 samples, 40.41%)</title><rect x="85.0" y="165" width="476.8" height="15.0" fill="rgb(216,54,12)" rx="2" ry="2" />
<text  x="87.96" y="175.5" >QuadTree::query_closest</text>
</g>
<g >
<title>auto&amp; entt::basic_registry&lt;entt::entity, std::allocator&lt;entt::entity&gt; &gt;::assure&lt;Size&gt; (2,000,000 samples, 0.03%)</title><rect x="60.3" y="165" width="0.4" height="15.0" fill="rgb(240,161,38)" rx="2" ry="2" />
<text  x="63.30" y="175.5" ></text>
</g>
<g >
<title>SensorSystem::update (2,743,750,000 samples, 45.69%)</title><rect x="82.0" y="181" width="539.1" height="15.0" fill="rgb(248,199,47)" rx="2" ry="2" />
<text  x="84.96" y="191.5" >SensorSystem::update</text>
</g>
<g >
<title>std::_Deque_base&lt;int, std::allocator&lt;int&gt; &gt;::~_Deque_base (1,250,000 samples, 0.02%)</title><rect x="620.8" y="165" width="0.3" height="15.0" fill="rgb(242,171,40)" rx="2" ry="2" />
<text  x="623.83" y="175.5" ></text>
</g>
<g >
<title>__atan2f_finite (1,500,000 samples, 0.02%)</title><rect x="600.5" y="149" width="0.3" height="15.0" fill="rgb(249,204,49)" rx="2" ry="2" />
<text  x="603.49" y="159.5" ></text>
</g>
<g >
<title>auto&amp; entt::basic_registry&lt;entt::entity, std::allocator&lt;entt::entity&gt; &gt;::assure&lt;Position&gt; (14,500,000 samples, 0.24%)</title><rect x="614.6" y="149" width="2.8" height="15.0" fill="rgb(234,137,32)" rx="2" ry="2" />
<text  x="617.59" y="159.5" ></text>
</g>
<g >
<title>expf@plt (1,000,000 samples, 0.02%)</title><rect x="1146.9" y="133" width="0.2" height="15.0" fill="rgb(219,66,15)" rx="2" ry="2" />
<text  x="1149.92" y="143.5" ></text>
</g>
<g >
<title>entt::internal::view_iterator&lt;entt::basic_sparse_set&lt;entt::entity, std::allocator&lt;entt::entity&gt; &gt;, false, 2ul, 0ul&gt;::seek_next (2,000,000 samples, 0.03%)</title><rect x="71.0" y="165" width="0.4" height="15.0" fill="rgb(237,149,35)" rx="2" ry="2" />
<text  x="74.01" y="175.5" ></text>
</g>
<g >
<title>[libm.so.6] (10,250,000 samples, 0.17%)</title><rect x="1163.5" y="181" width="2.0" height="15.0" fill="rgb(208,16,4)" rx="2" ry="2" />
<text  x="1166.52" y="191.5" ></text>
</g>
<g >
<title>entt::internal::view_iterator&lt;entt::basic_sparse_set&lt;entt::entity, std::allocator&lt;entt::entity&gt; &gt;, false, 3ul, 0ul&gt;::seek_next (1,000,000 samples, 0.02%)</title><rect x="1189.5" y="181" width="0.2" height="15.0" fill="rgb(231,120,28)" rx="2" ry="2" />
<text  x="1192.46" y="191.5" ></text>
</g>
<g >
<title>QuadTree::divide_node (182,000,000 samples, 3.03%)</title><rect x="649.5" y="165" width="35.7" height="15.0" fill="rgb(225,94,22)" rx="2" ry="2" />
<text  x="652.47" y="175.5" >Qua..</text>
</g>
<g >
<title>entt::basic_sparse_set&lt;entt::entity, std::allocator&lt;entt::entity&gt; &gt;::index (11,750,000 samples, 0.20%)</title><rect x="1099.0" y="149" width="2.3" height="15.0" fill="rgb(238,154,36)" rx="2" ry="2" />
<text  x="1102.03" y="159.5" ></text>
</g>
<g >
<title>QuadNode::intersects_circle (13,500,000 samples, 0.22%)</title><rect x="28.7" y="117" width="2.7" height="15.0" fill="rgb(231,121,29)" rx="2" ry="2" />
<text  x="31.72" y="127.5" ></text>
</g>
<g >
<title>BrainMutator::mutate (1,000,000 samples, 0.02%)</title><rect x="81.5" y="165" width="0.2" height="15.0" fill="rgb(216,51,12)" rx="2" ry="2" />
<text  x="84.47" y="175.5" ></text>
</g>
<g >
<title>QuadNode::intersects_circle (15,000,000 samples, 0.25%)</title><rect x="34.0" y="101" width="3.0" height="15.0" fill="rgb(231,121,29)" rx="2" ry="2" />
<text  x="37.02" y="111.5" ></text>
</g>
<g >
<title>Node::update (242,750,000 samples, 4.04%)</title><rect x="1107.8" y="149" width="47.7" height="15.0" fill="rgb(241,166,39)" rx="2" ry="2" />
<text  x="1110.82" y="159.5" >Node..</text>
</g>
<g >
<title>Brain::apply_weights (50,000,000 samples, 0.83%)</title><rect x="1057.9" y="149" width="9.8" height="15.0" fill="rgb(240,162,38)" rx="2" ry="2" />
<text  x="1060.91" y="159.5" ></text>
</g>
<g >
<title>auto&amp; entt::basic_registry&lt;entt::entity, std::allocator&lt;entt::entity&gt; &gt;::assure&lt;VisionSensors&gt; (6,000,000 samples, 0.10%)</title><rect x="1086.1" y="117" width="1.2" height="15.0" fill="rgb(224,87,20)" rx="2" ry="2" />
<text  x="1089.11" y="127.5" ></text>
</g>
<g >
<title>auto&amp; entt::basic_registry&lt;entt::entity, std::allocator&lt;entt::entity&gt; &gt;::assure&lt;ChildEnergy&gt; (1,250,000 samples, 0.02%)</title><rect x="1080.2" y="133" width="0.2" height="15.0" fill="rgb(226,98,23)" rx="2" ry="2" />
<text  x="1083.16" y="143.5" ></text>
</g>
<g >
<title>auto&amp; entt::basic_registry&lt;entt::entity, std::allocator&lt;entt::entity&gt; &gt;::assure&lt;OldPosition&gt; (1,250,000 samples, 0.02%)</title><rect x="1165.6" y="181" width="0.3" height="15.0" fill="rgb(230,119,28)" rx="2" ry="2" />
<text  x="1168.64" y="191.5" ></text>
</g>
<g >
<title>QuadNode::intersects_circle (5,500,000 samples, 0.09%)</title><rect x="17.4" y="165" width="1.1" height="15.0" fill="rgb(231,121,29)" rx="2" ry="2" />
<text  x="20.42" y="175.5" ></text>
</g>
<g >
<title>QuadTree::collect_leaf (1,500,000 samples, 0.02%)</title><rect x="43.9" y="85" width="0.3" height="15.0" fill="rgb(236,142,34)" rx="2" ry="2" />
<text  x="46.94" y="95.5" ></text>
</g>
</g>
</svg>
