<?xml version="1.0" standalone="no"?>
<!DOCTYPE svg PUBLIC "-//W3C//DTD SVG 1.1//EN" "http://www.w3.org/Graphics/SVG/1.1/DTD/svg11.dtd">
<svg version="1.1" width="1200" height="342" onload="init(evt)" viewBox="0 0 1200 342" xmlns="http://www.w3.org/2000/svg" xmlns:xlink="http://www.w3.org/1999/xlink">
<!-- Flame graph stack visualization. See https://github.com/brendangregg/FlameGraph for latest version, and http://www.brendangregg.com/flamegraphs.html for examples. -->
<!-- NOTES:  -->
<defs>
	<linearGradient id="background" y1="0" y2="1" x1="0" x2="0" >
		<stop stop-color="#eeeeee" offset="5%" />
		<stop stop-color="#eeeeb0" offset="95%" />
	</linearGradient>
</defs>
<style type="text/css">
	text { font-family:Verdana; font-size:12px; fill:rgb(0,0,0); }
	#search, #ignorecase { opacity:0.1; cursor:pointer; }
	#search:hover, #search.show, #ignorecase:hover, #ignorecase.show { opacity:1; }
	#subtitle { text-anchor:middle; font-color:rgb(160,160,160); }
	#title { text-anchor:middle; font-size:17px}
	#unzoom { cursor:pointer; }
	#frames > *:hover { stroke:black; stroke-width:0.5; cursor:pointer; }
	.hide { display:none; }
	.parent { opacity:0.5; }
</style>
<script type="text/ecmascript">
<![CDATA[
	"use strict";
	var details, searchbtn, unzoombtn, matchedtxt, svg, searching, currentSearchTerm, ignorecase, ignorecaseBtn;
	function init(evt) {
		details = document.getElementById("details").firstChild;
		searchbtn = document.getElementById("search");
		ignorecaseBtn = document.getElementById("ignorecase");
		unzoombtn = document.getElementById("unzoom");
		matchedtxt = document.getElementById("matched");
		svg = document.getElementsByTagName("svg")[0];
		searching = 0;
		currentSearchTerm = null;

		// use GET parameters to restore a flamegraphs state.
		var params = get_params();
		if (params.x && params.y)
			zoom(find_group(document.querySelector('[x="' + params.x + '"][y="' + params.y + '"]')));
                if (params.s) search(params.s);
	}

	// event listeners
	window.addEventListener("click", function(e) {
		var target = find_group(e.target);
		if (target) {
			if (target.nodeName == "a") {
				if (e.ctrlKey === false) return;
				e.preventDefault();
			}
			if (target.classList.contains("parent")) unzoom(true);
			zoom(target);
			if (!document.querySelector('.parent')) {
				// we have basically done a clearzoom so clear the url
				var params = get_params();
				if (params.x) delete params.x;
				if (params.y) delete params.y;
				history.replaceState(null, null, parse_params(params));
				unzoombtn.classList.add("hide");
				return;
			}

			// set parameters for zoom state
			var el = target.querySelector("rect");
			if (el && el.attributes && el.attributes.y && el.attributes._orig_x) {
				var params = get_params()
				params.x = el.attributes._orig_x.value;
				params.y = el.attributes.y.value;
				history.replaceState(null, null, parse_params(params));
			}
		}
		else if (e.target.id == "unzoom") clearzoom();
		else if (e.target.id == "search") search_prompt();
		else if (e.target.id == "ignorecase") toggle_ignorecase();
	}, false)

	// mouse-over for info
	// show
	window.addEventListener("mouseover", function(e) {
		var target = find_group(e.target);
		if (target) details.nodeValue = "Function: " + g_to_text(target);
	}, false)

	// clear
	window.addEventListener("mouseout", function(e) {
		var target = find_group(e.target);
		if (target) details.nodeValue = ' ';
	}, false)

	// ctrl-F for search
	// ctrl-I to toggle case-sensitive search
	window.addEventListener("keydown",function (e) {
		if (e.keyCode === 114 || (e.ctrlKey && e.keyCode === 70)) {
			e.preventDefault();
			search_prompt();
		}
		else if (e.ctrlKey && e.keyCode === 73) {
			e.preventDefault();
			toggle_ignorecase();
		}
	}, false)

	// functions
	function get_params() {
		var params = {};
		var paramsarr = window.location.search.substr(1).split('&');
		for (var i = 0; i < paramsarr.length; ++i) {
			var tmp = paramsarr[i].split("=");
			if (!tmp[0] || !tmp[1]) continue;
			params[tmp[0]]  = decodeURIComponent(tmp[1]);
		}
		return params;
	}
	function parse_params(params) {
		var uri = "?";
		for (var key in params) {
			uri += key + '=' + encodeURIComponent(params[key]) + '&';
		}
		if (uri.slice(-1) == "&")
			uri = uri.substring(0, uri.length - 1);
		if (uri == '?')
			uri = window.location.href.split('?')[0];
		return uri;
	}
	function find_child(node, selector) {
		var children = node.querySelectorAll(selector);
		if (children.length) return children[0];
	}
	function find_group(node) {
		var parent = node.parentElement;
		if (!parent) return;
		if (parent.id == "frames") return node;
		return find_group(parent);
	}
	function orig_save(e, attr, val) {
		if (e.attributes["_orig_" + attr] != undefined) return;
		if (e.attributes[attr] == undefined) return;
		if (val == undefined) val = e.attributes[attr].value;
		e.setAttribute("_orig_" + attr, val);
	}
	function orig_load(e, attr) {
		if (e.attributes["_orig_"+attr] == undefined) return;
		e.attributes[attr].value = e.attributes["_orig_" + attr].value;
		e.removeAttribute("_orig_"+attr);
	}
	function g_to_text(e) {
		var text = find_child(e, "title").firstChild.nodeValue;
		return (text)
	}
	function g_to_func(e) {
		var func = g_to_text(e);
		// if there's any manipulation we want to do to the function
		// name before it's searched, do it here before returning.
		return (func);
	}
	function update_text(e) {
		var r = find_child(e, "rect");
		var t = find_child(e, "text");
		var w = parseFloat(r.attributes.width.value) -3;
		var txt = find_child(e, "title").textContent.replace(/\([^(]*\)$/,"");
		t.attributes.x.value = parseFloat(r.attributes.x.value) + 3;

		// Smaller than this size won't fit anything
		if (w < 2 * 12 * 0.59) {
			t.textContent = "";
			return;
		}

		t.textContent = txt;
		var sl = t.getSubStringLength(0, txt.length);
		// check if only whitespace or if we can fit the entire string into width w
		if (/^ *$/.test(txt) || sl < w)
			return;

		// this isn't perfect, but gives a good starting point
		// and avoids calling getSubStringLength too often
		var start = Math.floor((w/sl) * txt.length);
		for (var x = start; x > 0; x = x-2) {
			if (t.getSubStringLength(0, x + 2) <= w) {
				t.textContent = txt.substring(0, x) + "..";
				return;
			}
		}
		t.textContent = "";
	}

	// zoom
	function zoom_reset(e) {
		if (e.attributes != undefined) {
			orig_load(e, "x");
			orig_load(e, "width");
		}
		if (e.childNodes == undefined) return;
		for (var i = 0, c = e.childNodes; i < c.length; i++) {
			zoom_reset(c[i]);
		}
	}
	function zoom_child(e, x, ratio) {
		if (e.attributes != undefined) {
			if (e.attributes.x != undefined) {
				orig_save(e, "x");
				e.attributes.x.value = (parseFloat(e.attributes.x.value) - x - 10) * ratio + 10;
				if (e.tagName == "text")
					e.attributes.x.value = find_child(e.parentNode, "rect[x]").attributes.x.value + 3;
			}
			if (e.attributes.width != undefined) {
				orig_save(e, "width");
				e.attributes.width.value = parseFloat(e.attributes.width.value) * ratio;
			}
		}

		if (e.childNodes == undefined) return;
		for (var i = 0, c = e.childNodes; i < c.length; i++) {
			zoom_child(c[i], x - 10, ratio);
		}
	}
	function zoom_parent(e) {
		if (e.attributes) {
			if (e.attributes.x != undefined) {
				orig_save(e, "x");
				e.attributes.x.value = 10;
			}
			if (e.attributes.width != undefined) {
				orig_save(e, "width");
				e.attributes.width.value = parseInt(svg.width.baseVal.value) - (10 * 2);
			}
		}
		if (e.childNodes == undefined) return;
		for (var i = 0, c = e.childNodes; i < c.length; i++) {
			zoom_parent(c[i]);
		}
	}
	function zoom(node) {
		var attr = find_child(node, "rect").attributes;
		var width = parseFloat(attr.width.value);
		var xmin = parseFloat(attr.x.value);
		var xmax = parseFloat(xmin + width);
		var ymin = parseFloat(attr.y.value);
		var ratio = (svg.width.baseVal.value - 2 * 10) / width;

		// XXX: Workaround for JavaScript float issues (fix me)
		var fudge = 0.0001;

		unzoombtn.classList.remove("hide");

		var el = document.getElementById("frames").children;
		for (var i = 0; i < el.length; i++) {
			var e = el[i];
			var a = find_child(e, "rect").attributes;
			var ex = parseFloat(a.x.value);
			var ew = parseFloat(a.width.value);
			var upstack;
			// Is it an ancestor
			if (0 == 0) {
				upstack = parseFloat(a.y.value) > ymin;
			} else {
				upstack = parseFloat(a.y.value) < ymin;
			}
			if (upstack) {
				// Direct ancestor
				if (ex <= xmin && (ex+ew+fudge) >= xmax) {
					e.classList.add("parent");
					zoom_parent(e);
					update_text(e);
				}
				// not in current path
				else
					e.classList.add("hide");
			}
			// Children maybe
			else {
				// no common path
				if (ex < xmin || ex + fudge >= xmax) {
					e.classList.add("hide");
				}
				else {
					zoom_child(e, xmin, ratio);
					update_text(e);
				}
			}
		}
		search();
	}
	function unzoom(dont_update_text) {
		unzoombtn.classList.add("hide");
		var el = document.getElementById("frames").children;
		for(var i = 0; i < el.length; i++) {
			el[i].classList.remove("parent");
			el[i].classList.remove("hide");
			zoom_reset(el[i]);
			if(!dont_update_text) update_text(el[i]);
		}
		search();
	}
	function clearzoom() {
		unzoom();

		// remove zoom state
		var params = get_params();
		if (params.x) delete params.x;
		if (params.y) delete params.y;
		history.replaceState(null, null, parse_params(params));
	}

	// search
	function toggle_ignorecase() {
		ignorecase = !ignorecase;
		if (ignorecase) {
			ignorecaseBtn.classList.add("show");
		} else {
			ignorecaseBtn.classList.remove("show");
		}
		reset_search();
		search();
	}
	function reset_search() {
		var el = document.querySelectorAll("#frames rect");
		for (var i = 0; i < el.length; i++) {
			orig_load(el[i], "fill")
		}
		var params = get_params();
		delete params.s;
		history.replaceState(null, null, parse_params(params));
	}
	function search_prompt() {
		if (!searching) {
			var term = prompt("Enter a search term (regexp " +
			    "allowed, eg: ^ext4_)"
			    + (ignorecase ? ", ignoring case" : "")
			    + "\nPress Ctrl-i to toggle case sensitivity", "");
			if (term != null) search(term);
		} else {
			reset_search();
			searching = 0;
			currentSearchTerm = null;
			searchbtn.classList.remove("show");
			searchbtn.firstChild.nodeValue = "Search"
			matchedtxt.classList.add("hide");
			matchedtxt.firstChild.nodeValue = ""
		}
	}
	function search(term) {
		if (term) currentSearchTerm = term;
		if (currentSearchTerm === null) return;

		var re = new RegExp(currentSearchTerm, ignorecase ? 'i' : '');
		var el = document.getElementById("frames").children;
		var matches = new Object();
		var maxwidth = 0;
		for (var i = 0; i < el.length; i++) {
			var e = el[i];
			var func = g_to_func(e);
			var rect = find_child(e, "rect");
			if (func == null || rect == null)
				continue;

			// Save max width. Only works as we have a root frame
			var w = parseFloat(rect.attributes.width.value);
			if (w > maxwidth)
				maxwidth = w;

			if (func.match(re)) {
				// highlight
				var x = parseFloat(rect.attributes.x.value);
				orig_save(rect, "fill");
				rect.attributes.fill.value = "rgb(230,0,230)";

				// remember matches
				if (matches[x] == undefined) {
					matches[x] = w;
				} else {
					if (w > matches[x]) {
						// overwrite with parent
						matches[x] = w;
					}
				}
				searching = 1;
			}
		}
		if (!searching)
			return;
		var params = get_params();
		params.s = currentSearchTerm;
		history.replaceState(null, null, parse_params(params));

		searchbtn.classList.add("show");
		searchbtn.firstChild.nodeValue = "Reset Search";

		// calculate percent matched, excluding vertical overlap
		var count = 0;
		var lastx = -1;
		var lastw = 0;
		var keys = Array();
		for (k in matches) {
			if (matches.hasOwnProperty(k))
				keys.push(k);
		}
		// sort the matched frames by their x location
		// ascending, then width descending
		keys.sort(function(a, b){
			return a - b;
		});
		// Step through frames saving only the biggest bottom-up frames
		// thanks to the sort order. This relies on the tree property
		// where children are always smaller than their parents.
		var fudge = 0.0001;	// JavaScript floating point
		for (var k in keys) {
			var x = parseFloat(keys[k]);
			var w = matches[keys[k]];
			if (x >= lastx + lastw - fudge) {
				count += w;
				lastx = x;
				lastw = w;
			}
		}
		// display matched percent
		matchedtxt.classList.remove("hide");
		var pct = 100 * count / maxwidth;
		if (pct != 100) pct = pct.toFixed(1)
		matchedtxt.firstChild.nodeValue = "Matched: " + pct + "%";
	}
]]>
</script>
<rect x="0.0" y="0" width="1200.0" height="342.0" fill="url(#background)"  />
<text id="title" x="600.00" y="24" >Flame Graph</text>
<text id="details" x="10.00" y="325" > </text>
<text id="unzoom" x="10.00" y="24" class="hide">Reset Zoom</text>
<text id="search" x="1090.00" y="24" >Search</text>
<text id="ignorecase" x="1174.00" y="24" >ic</text>
<text id="matched" x="1090.00" y="325" > </text>
<g id="frames">
<g >
<title>MovementSystem::update (24,000,000 samples, 0.38%)</title><rect x="63.0" y="181" width="4.5" height="15.0" fill="rgb(248,198,47)" rx="2" ry="2" />
<text  x="66.03" y="191.5" ></text>
</g>
<g >
<title>auto&amp; entt::basic_registry&lt;entt::entity, std::allocator&lt;entt::entity&gt; &gt;::assure&lt;VisionSensors&gt; (10,500,000 samples, 0.16%)</title><rect x="1087.5" y="117" width="2.0" height="15.0" fill="rgb(224,87,20)" rx="2" ry="2" />
<text  x="1090.54" y="127.5" ></text>
</g>
<g >
<title>QuadTree::query_node (108,250,000 samples, 1.69%)</title><rect x="30.6" y="117" width="20.0" height="15.0" fill="rgb(232,126,30)" rx="2" ry="2" />
<text  x="33.61" y="127.5" ></text>
</g>
<g >
<title>[libc.so.6] (6,395,750,000 samples, 99.98%)</title><rect x="10.3" y="229" width="1179.7" height="15.0" fill="rgb(223,84,20)" rx="2" ry="2" />
<text  x="13.28" y="239.5" >[libc.so.6]</text>
</g>
<g >
<title>expm1f32 (25,250,000 samples, 0.39%)</title><rect x="1155.5" y="133" width="4.7" height="15.0" fill="rgb(230,116,27)" rx="2" ry="2" />
<text  x="1158.51" y="143.5" ></text>
</g>
<g >
<title>entt::basic_sparse_set&lt;entt::entity, std::allocator&lt;entt::entity&gt; &gt;::index (14,000,000 samples, 0.22%)</title><rect x="1053.5" y="149" width="2.6" height="15.0" fill="rgb(238,154,36)" rx="2" ry="2" />
<text  x="1056.50" y="159.5" ></text>
</g>
<g >
<title>QuadTree::query_node (7,250,000 samples, 0.11%)</title><rect x="49.2" y="53" width="1.4" height="15.0" fill="rgb(232,126,30)" rx="2" ry="2" />
<text  x="52.24" y="63.5" ></text>
</g>
<g >
<title>QuadTree::collect_leaf (4,000,000 samples, 0.06%)</title><rect x="48.5" y="53" width="0.7" height="15.0" fill="rgb(236,142,34)" rx="2" ry="2" />
<text  x="51.50" y="63.5" ></text>
</g>
<g >
<title>Simulation::initialize (15,000,000 samples, 0.23%)</title><rect x="10.6" y="197" width="2.7" height="15.0" fill="rgb(222,79,19)" rx="2" ry="2" />
<text  x="13.55" y="207.5" ></text>
</g>
<g >
<title>QuadNode::intersects_circle (16,000,000 samples, 0.25%)</title><rect x="27.7" y="117" width="2.9" height="15.0" fill="rgb(231,121,29)" rx="2" ry="2" />
<text  x="30.66" y="127.5" ></text>
</g>
<g >
<title>[ld-linux-x86-64.so.2] (1,500,000 samples, 0.02%)</title><rect x="10.0" y="245" width="0.3" height="15.0" fill="rgb(243,178,42)" rx="2" ry="2" />
<text  x="13.00" y="255.5" ></text>
</g>
<g >
<title>QuadNode::intersects_circle (5,500,000 samples, 0.09%)</title><rect x="47.5" y="53" width="1.0" height="15.0" fill="rgb(231,121,29)" rx="2" ry="2" />
<text  x="50.49" y="63.5" ></text>
</g>
<g >
<title>bool entt::internal::all_of&lt;entt::basic_sparse_set&lt;entt::entity, std::allocator&lt;entt::entity&gt; &gt; const* const*, entt::entity&gt; (113,500,000 samples, 1.77%)</title><rect x="1168.6" y="181" width="20.9" height="15.0" fill="rgb(208,14,3)" rx="2" ry="2" />
<text  x="1171.56" y="191.5" ></text>
</g>
<g >
<title>main (6,397,250,000 samples, 100.00%)</title><rect x="10.0" y="277" width="1180.0" height="15.0" fill="rgb(243,179,42)" rx="2" ry="2" />
<text  x="13.00" y="287.5" >main</text>
</g>
<g >
<title>DeathSystem::update (1,500,000 samples, 0.02%)</title><rect x="54.5" y="181" width="0.2" height="15.0" fill="rgb(254,227,54)" rx="2" ry="2" />
<text  x="57.45" y="191.5" ></text>
</g>
<g >
<title>[ld-linux-x86-64.so.2] (1,500,000 samples, 0.02%)</title><rect x="10.0" y="229" width="0.3" height="15.0" fill="rgb(243,178,42)" rx="2" ry="2" />
<text  x="13.00" y="239.5" ></text>
</g>
<g >
<title>auto&amp; entt::basic_registry&lt;entt::entity, std::allocator&lt;entt::entity&gt; &gt;::assure&lt;OldPosition&gt; (2,500,000 samples, 0.04%)</title><rect x="1043.2" y="165" width="0.4" height="15.0" fill="rgb(230,119,28)" rx="2" ry="2" />
<text  x="1046.17" y="175.5" ></text>
</g>
<g >
<title>siv::BasicPerlinNoise&lt;double&gt;::noise3D (4,500,000 samples, 0.07%)</title><rect x="67.7" y="149" width="0.9" height="15.0" fill="rgb(220,73,17)" rx="2" ry="2" />
<text  x="70.73" y="159.5" ></text>
</g>
<g >
<title>QuadTree::update_bounds (4,750,000 samples, 0.07%)</title><rect x="72.3" y="181" width="0.9" height="15.0" fill="rgb(205,3,0)" rx="2" ry="2" />
<text  x="75.35" y="191.5" ></text>
</g>
<g >
<title>entt::internal::view_iterator&lt;entt::basic_sparse_set&lt;entt::entity, std::allocator&lt;entt::entity&gt; &gt;, false, 3ul, 0ul&gt;::seek_next (6,250,000 samples, 0.10%)</title><rect x="60.2" y="165" width="1.2" height="15.0" fill="rgb(231,120,28)" rx="2" ry="2" />
<text  x="63.22" y="175.5" ></text>
</g>
<g >
<title>QuadTree::divide_node (273,000,000 samples, 4.27%)</title><rect x="554.0" y="165" width="50.4" height="15.0" fill="rgb(225,94,22)" rx="2" ry="2" />
<text  x="557.05" y="175.5" >QuadT..</text>
</g>
<g >
<title>InputNode::load_input (1,000,000 samples, 0.02%)</title><rect x="1165.3" y="165" width="0.2" height="15.0" fill="rgb(215,48,11)" rx="2" ry="2" />
<text  x="1168.33" y="175.5" ></text>
</g>
<g >
<title>QuadTree::query_closest (2,180,000,000 samples, 34.08%)</title><rect x="75.3" y="165" width="402.1" height="15.0" fill="rgb(216,54,12)" rx="2" ry="2" />
<text  x="78.25" y="175.5" >QuadTree::query_closest</text>
</g>
<g >
<title>std::_Deque_base&lt;int, std::allocator&lt;int&gt; &gt;::~_Deque_base (19,500,000 samples, 0.30%)</title><rect x="473.8" y="149" width="3.6" height="15.0" fill="rgb(242,171,40)" rx="2" ry="2" />
<text  x="476.76" y="159.5" ></text>
</g>
<g >
<title>PlantFactory::spawn_random (13,000,000 samples, 0.20%)</title><rect x="10.9" y="181" width="2.4" height="15.0" fill="rgb(233,131,31)" rx="2" ry="2" />
<text  x="13.92" y="191.5" ></text>
</g>
<g >
<title>CollisionSystem::handle_eating (5,500,000 samples, 0.09%)</title><rect x="17.1" y="165" width="1.0" height="15.0" fill="rgb(223,86,20)" rx="2" ry="2" />
<text  x="20.06" y="175.5" ></text>
</g>
<g >
<title>siv::BasicPerlinNoise&lt;double&gt;::noise3D (9,500,000 samples, 0.15%)</title><rect x="11.6" y="165" width="1.7" height="15.0" fill="rgb(220,73,17)" rx="2" ry="2" />
<text  x="14.57" y="175.5" ></text>
</g>
<g >
<title>entt::internal::view_iterator&lt;entt::basic_sparse_set&lt;entt::entity, std::allocator&lt;entt::entity&gt; &gt;, false, 2ul, 0ul&gt;::seek_next (2,250,000 samples, 0.04%)</title><rect x="62.6" y="165" width="0.4" height="15.0" fill="rgb(237,149,35)" rx="2" ry="2" />
<text  x="65.62" y="175.5" ></text>
</g>
<g >
<title>all (6,397,250,000 samples, 100%)</title><rect x="10.0" y="293" width="1180.0" height="15.0" fill="rgb(213,39,9)" rx="2" ry="2" />
<text  x="13.00" y="303.5" ></text>
</g>
<g >
<title>auto&amp; entt::basic_registry&lt;entt::entity, std::allocator&lt;entt::entity&gt; &gt;::assure&lt;BrainTimer&gt; (1,000,000 samples, 0.02%)</title><rect x="1051.2" y="133" width="0.1" height="15.0" fill="rgb(252,220,52)" rx="2" ry="2" />
<text  x="1054.15" y="143.5" ></text>
</g>
<g >
<title>operator new (17,250,000 samples, 0.27%)</title><rect x="470.6" y="149" width="3.2" height="15.0" fill="rgb(216,51,12)" rx="2" ry="2" />
<text  x="473.58" y="159.5" ></text>
</g>
<g >
<title>QuadNode::intersects_circle (15,500,000 samples, 0.24%)</title><rect x="37.0" y="85" width="2.9" height="15.0" fill="rgb(231,121,29)" rx="2" ry="2" />
<text  x="40.02" y="95.5" ></text>
</g>
<g >
<title>[ld-linux-x86-64.so.2] (1,500,000 samples, 0.02%)</title><rect x="10.0" y="213" width="0.3" height="15.0" fill="rgb(243,178,42)" rx="2" ry="2" />
<text  x="13.00" y="223.5" ></text>
</g>
<g >
<title>Brain::apply_weights (750,000 samples, 0.01%)</title><rect x="1046.7" y="165" width="0.1" height="15.0" fill="rgb(240,162,38)" rx="2" ry="2" />
<text  x="1049.68" y="175.5" ></text>
</g>
<g >
<title>SpatialIndexSystem::update (2,853,750,000 samples, 44.61%)</title><rect x="520.0" y="181" width="526.4" height="15.0" fill="rgb(249,206,49)" rx="2" ry="2" />
<text  x="523.02" y="191.5" >SpatialIndexSystem::update</text>
</g>
<g >
<title>malloc (1,000,000 samples, 0.02%)</title><rect x="469.7" y="149" width="0.2" height="15.0" fill="rgb(230,119,28)" rx="2" ry="2" />
<text  x="472.71" y="159.5" ></text>
</g>
<g >
<title>_start (6,395,750,000 samples, 99.98%)</title><rect x="10.3" y="261" width="1179.7" height="15.0" fill="rgb(245,185,44)" rx="2" ry="2" />
<text  x="13.28" y="271.5" >_start</text>
</g>
<g >
<title>siv::BasicPerlinNoise&lt;double&gt;::noise3D (1,750,000 samples, 0.03%)</title><rect x="10.6" y="165" width="0.3" height="15.0" fill="rgb(220,73,17)" rx="2" ry="2" />
<text  x="13.60" y="175.5" ></text>
</g>
<g >
<title>InputNode::load_input (111,250,000 samples, 1.74%)</title><rect x="1069.0" y="149" width="20.5" height="15.0" fill="rgb(215,48,11)" rx="2" ry="2" />
<text  x="1071.95" y="159.5" ></text>
</g>
<g >
<title>__atan2f_finite (10,000,000 samples, 0.16%)</title><rect x="503.4" y="133" width="1.8" height="15.0" fill="rgb(249,204,49)" rx="2" ry="2" />
<text  x="506.37" y="143.5" ></text>
</g>
<g >
<title>[ld-linux-x86-64.so.2] (1,500,000 samples, 0.02%)</title><rect x="10.0" y="261" width="0.3" height="15.0" fill="rgb(243,178,42)" rx="2" ry="2" />
<text  x="13.00" y="271.5" ></text>
</g>
<g >
<title>cfree (1,750,000 samples, 0.03%)</title><rect x="516.9" y="165" width="0.3" height="15.0" fill="rgb(223,86,20)" rx="2" ry="2" />
<text  x="519.93" y="175.5" ></text>
</g>
<g >
<title>cfree (15,500,000 samples, 0.24%)</title><rect x="466.8" y="149" width="2.9" height="15.0" fill="rgb(223,86,20)" rx="2" ry="2" />
<text  x="469.85" y="159.5" ></text>
</g>
<g >
<title>atan2f32 (2,250,000 samples, 0.04%)</title><rect x="516.5" y="165" width="0.4" height="15.0" fill="rgb(216,50,12)" rx="2" ry="2" />
<text  x="519.47" y="175.5" ></text>
</g>
<g >
<title>entt::internal::view_iterator&lt;entt::basic_sparse_set&lt;entt::entity, std::allocator&lt;entt::entity&gt; &gt;, false, 3ul, 0ul&gt;::seek_next (4,750,000 samples, 0.07%)</title><rect x="55.8" y="165" width="0.9" height="15.0" fill="rgb(231,120,28)" rx="2" ry="2" />
<text  x="58.84" y="175.5" ></text>
</g>
<g >
<title>entt::basic_sparse_set&lt;entt::entity, std::allocator&lt;entt::entity&gt; &gt;::try_emplace (1,250,000 samples, 0.02%)</title><rect x="66.7" y="165" width="0.2" height="15.0" fill="rgb(223,85,20)" rx="2" ry="2" />
<text  x="69.67" y="175.5" ></text>
</g>
<g >
<title>decltype (3,500,000 samples, 0.05%)</title><rect x="51.0" y="165" width="0.7" height="15.0" fill="rgb(220,73,17)" rx="2" ry="2" />
<text  x="54.04" y="175.5" ></text>
</g>
<g >
<title>auto&amp; entt::basic_registry&lt;entt::entity, std::allocator&lt;entt::entity&gt; &gt;::assure&lt;Creature&gt; (750,000 samples, 0.01%)</title><rect x="60.0" y="165" width="0.1" height="15.0" fill="rgb(252,220,52)" rx="2" ry="2" />
<text  x="62.99" y="175.5" ></text>
</g>
<g >
<title>decltype (3,000,000 samples, 0.05%)</title><rect x="1109.3" y="149" width="0.5" height="15.0" fill="rgb(220,73,17)" rx="2" ry="2" />
<text  x="1112.26" y="159.5" ></text>
</g>
<g >
<title>entt::internal::view_iterator&lt;entt::basic_sparse_set&lt;entt::entity, std::allocator&lt;entt::entity&gt; &gt;, false, 2ul, 0ul&gt;::seek_next (3,000,000 samples, 0.05%)</title><rect x="66.9" y="165" width="0.6" height="15.0" fill="rgb(237,149,35)" rx="2" ry="2" />
<text  x="69.90" y="175.5" ></text>
</g>
<g >
<title>QuadTree::query_node (172,500,000 samples, 2.70%)</title><rect x="18.8" y="165" width="31.8" height="15.0" fill="rgb(232,126,30)" rx="2" ry="2" />
<text  x="21.76" y="175.5" >Qu..</text>
</g>
<g >
<title>auto&amp; entt::basic_registry&lt;entt::entity, std::allocator&lt;entt::entity&gt; &gt;::assure&lt;CreatureState&gt; (750,000 samples, 0.01%)</title><rect x="1053.3" y="149" width="0.1" height="15.0" fill="rgb(238,156,37)" rx="2" ry="2" />
<text  x="1056.27" y="159.5" ></text>
</g>
<g >
<title>QuadTree::collect_leaf (1,500,000 samples, 0.02%)</title><rect x="39.9" y="85" width="0.3" height="15.0" fill="rgb(236,142,34)" rx="2" ry="2" />
<text  x="42.88" y="95.5" ></text>
</g>
<g >
<title>Brain::update_nodes (276,000,000 samples, 4.31%)</title><rect x="1114.4" y="165" width="50.9" height="15.0" fill="rgb(249,205,49)" rx="2" ry="2" />
<text  x="1117.42" y="175.5" >Brain..</text>
</g>
<g >
<title>[libm.so.6] (17,750,000 samples, 0.28%)</title><rect x="1162.0" y="149" width="3.2" height="15.0" fill="rgb(208,16,4)" rx="2" ry="2" />
<text  x="1164.96" y="159.5" ></text>
</g>
<g >
<title>auto&amp; entt::basic_registry&lt;entt::entity, std::allocator&lt;entt::entity&gt; &gt;::assure&lt;CreatureEnergy&gt; (1,500,000 samples, 0.02%)</title><rect x="1082.9" y="133" width="0.3" height="15.0" fill="rgb(210,25,6)" rx="2" ry="2" />
<text  x="1085.92" y="143.5" ></text>
</g>
<g >
<title>QuadTree::query_node (1,500,000 samples, 0.02%)</title><rect x="50.3" y="37" width="0.3" height="15.0" fill="rgb(232,126,30)" rx="2" ry="2" />
<text  x="53.30" y="47.5" ></text>
</g>
<g >
<title>tanhf32 (9,750,000 samples, 0.15%)</title><rect x="1160.2" y="133" width="1.8" height="15.0" fill="rgb(243,178,42)" rx="2" ry="2" />
<text  x="1163.16" y="143.5" ></text>
</g>
<g >
<title>atan2f32 (59,750,000 samples, 0.93%)</title><rect x="502.8" y="149" width="11.0" height="15.0" fill="rgb(216,50,12)" rx="2" ry="2" />
<text  x="505.77" y="159.5" ></text>
</g>
<g >
<title>auto&amp; entt::basic_registry&lt;entt::entity, std::allocator&lt;entt::entity&gt; &gt;::assure&lt;Age&gt; (3,250,000 samples, 0.05%)</title><rect x="1081.4" y="133" width="0.6" height="15.0" fill="rgb(207,11,2)" rx="2" ry="2" />
<text  x="1084.36" y="143.5" ></text>
</g>
<g >
<title>DigestionSystem::update (10,750,000 samples, 0.17%)</title><rect x="54.7" y="181" width="2.0" height="15.0" fill="rgb(210,24,5)" rx="2" ry="2" />
<text  x="57.73" y="191.5" ></text>
</g>
<g >
<title>QuadTree::query_node (56,500,000 samples, 0.88%)</title><rect x="40.2" y="85" width="10.4" height="15.0" fill="rgb(232,126,30)" rx="2" ry="2" />
<text  x="43.16" y="95.5" ></text>
</g>
<g >
<title>[libc.so.6] (7,250,000 samples, 0.11%)</title><rect x="476.0" y="117" width="1.4" height="15.0" fill="rgb(223,84,20)" rx="2" ry="2" />
<text  x="479.02" y="127.5" ></text>
</g>
<g >
<title>auto&amp; entt::basic_registry&lt;entt::entity, std::allocator&lt;entt::entity&gt; &gt;::assure&lt;Position&gt; (14,500,000 samples, 0.23%)</title><rect x="513.8" y="149" width="2.7" height="15.0" fill="rgb(234,137,32)" rx="2" ry="2" />
<text  x="516.79" y="159.5" ></text>
</g>
<g >
<title>QuadNode::intersects_circle (8,750,000 samples, 0.14%)</title><rect x="19.5" y="149" width="1.7" height="15.0" fill="rgb(231,121,29)" rx="2" ry="2" />
<text  x="22.55" y="159.5" ></text>
</g>
<g >
<title>MetabolismSystem::update (9,000,000 samples, 0.14%)</title><rect x="61.4" y="181" width="1.6" height="15.0" fill="rgb(244,183,43)" rx="2" ry="2" />
<text  x="64.37" y="191.5" ></text>
</g>
<g >
<title>malloc (14,750,000 samples, 0.23%)</title><rect x="471.0" y="133" width="2.8" height="15.0" fill="rgb(230,119,28)" rx="2" ry="2" />
<text  x="474.04" y="143.5" ></text>
</g>
<g >
<title>operator delete (2,500,000 samples, 0.04%)</title><rect x="470.1" y="149" width="0.5" height="15.0" fill="rgb(247,196,46)" rx="2" ry="2" />
<text  x="473.12" y="159.5" ></text>
</g>
<g >
<title>QuadNode::intersects_circle (3,750,000 samples, 0.06%)</title><rect x="18.1" y="165" width="0.7" height="15.0" fill="rgb(231,121,29)" rx="2" ry="2" />
<text  x="21.07" y="175.5" ></text>
</g>
<g >
<title>QuadNode::intersects_circle (13,000,000 samples, 0.20%)</title><rect x="42.0" y="69" width="2.4" height="15.0" fill="rgb(231,121,29)" rx="2" ry="2" />
<text  x="45.05" y="79.5" ></text>
</g>
<g >
<title>Node::update (226,250,000 samples, 3.54%)</title><rect x="1120.2" y="149" width="41.8" height="15.0" fill="rgb(241,166,39)" rx="2" ry="2" />
<text  x="1123.23" y="159.5" >Nod..</text>
</g>
<g >
<title>SensorSystem::update (2,420,500,000 samples, 37.84%)</title><rect x="73.5" y="181" width="446.5" height="15.0" fill="rgb(248,199,47)" rx="2" ry="2" />
<text  x="76.54" y="191.5" >SensorSystem::update</text>
</g>
<g >
<title>auto&amp; entt::basic_registry&lt;entt::entity, std::allocator&lt;entt::entity&gt; &gt;::assure&lt;Size&gt; (750,000 samples, 0.01%)</title><rect x="1043.7" y="165" width="0.1" height="15.0" fill="rgb(240,161,38)" rx="2" ry="2" />
<text  x="1046.68" y="175.5" ></text>
</g>
<g >
<title>operator delete (1,750,000 samples, 0.03%)</title><rect x="519.0" y="165" width="0.3" height="15.0" fill="rgb(247,196,46)" rx="2" ry="2" />
<text  x="521.96" y="175.5" ></text>
</g>
<g >
<title>Node::update (1,000,000 samples, 0.02%)</title><rect x="1165.5" y="165" width="0.2" height="15.0" fill="rgb(241,166,39)" rx="2" ry="2" />
<text  x="1168.51" y="175.5" ></text>
</g>
<g >
<title>decltype (30,000,000 samples, 0.47%)</title><rect x="1083.9" y="133" width="5.6" height="15.0" fill="rgb(220,73,17)" rx="2" ry="2" />
<text  x="1086.94" y="143.5" ></text>
</g>
<g >
<title>auto&amp; entt::basic_registry&lt;entt::entity, std::allocator&lt;entt::entity&gt; &gt;::assure&lt;Velocity&gt; (3,750,000 samples, 0.06%)</title><rect x="1052.6" y="133" width="0.7" height="15.0" fill="rgb(223,85,20)" rx="2" ry="2" />
<text  x="1055.58" y="143.5" ></text>
</g>
<g >
<title>QuadNode::intersects_circle (15,000,000 samples, 0.23%)</title><rect x="32.3" y="101" width="2.8" height="15.0" fill="rgb(231,121,29)" rx="2" ry="2" />
<text  x="35.32" y="111.5" ></text>
</g>
<g >
<title>QuadTree::query_node (135,500,000 samples, 2.12%)</title><rect x="25.6" y="133" width="25.0" height="15.0" fill="rgb(232,126,30)" rx="2" ry="2" />
<text  x="28.59" y="143.5" >Q..</text>
</g>
<g >
<title>ReproductionSystem::update (1,250,000 samples, 0.02%)</title><rect x="73.2" y="181" width="0.3" height="15.0" fill="rgb(238,152,36)" rx="2" ry="2" />
<text  x="76.22" y="191.5" ></text>
</g>
<g >
<title>entt::basic_sigh_mixin&lt;entt::basic_storage&lt;OldPosition, entt::entity, std::allocator&lt;OldPosition&gt;, void&gt;, entt::basic_registry&lt;entt::entity, std::allocator&lt;entt::entity&gt; &gt; &gt;::pop (750,000 samples, 0.01%)</title><rect x="1043.8" y="165" width="0.2" height="15.0" fill="rgb(233,129,30)" rx="2" ry="2" />
<text  x="1046.82" y="175.5" ></text>
</g>
<g >
<title>[libm.so.6] (12,500,000 samples, 0.20%)</title><rect x="1166.0" y="181" width="2.3" height="15.0" fill="rgb(208,16,4)" rx="2" ry="2" />
<text  x="1168.97" y="191.5" ></text>
</g>
<g >
<title>auto&amp; entt::basic_registry&lt;entt::entity, std::allocator&lt;entt::entity&gt; &gt;::assure&lt;Position&gt; (1,000,000 samples, 0.02%)</title><rect x="50.6" y="165" width="0.2" height="15.0" fill="rgb(234,137,32)" rx="2" ry="2" />
<text  x="53.63" y="175.5" ></text>
</g>
<g >
<title>Fertility::random_location (750,000 samples, 0.01%)</title><rect x="67.5" y="149" width="0.1" height="15.0" fill="rgb(247,197,47)" rx="2" ry="2" />
<text  x="70.50" y="159.5" ></text>
</g>
<g >
<title>auto&amp; entt::basic_registry&lt;entt::entity, std::allocator&lt;entt::entity&gt; &gt;::assure&lt;Size&gt; (1,250,000 samples, 0.02%)</title><rect x="50.8" y="165" width="0.2" height="15.0" fill="rgb(240,161,38)" rx="2" ry="2" />
<text  x="53.81" y="175.5" ></text>
</g>
<g >
<title>entt::basic_sparse_set&lt;entt::entity, std::allocator&lt;entt::entity&gt; &gt;::index (3,000,000 samples, 0.05%)</title><rect x="51.7" y="165" width="0.5" height="15.0" fill="rgb(238,154,36)" rx="2" ry="2" />
<text  x="54.69" y="175.5" ></text>
</g>
<g >
<title>entt::basic_storage&lt;OldPosition, entt::entity, std::allocator&lt;OldPosition&gt;, void&gt;::pop (8,500,000 samples, 0.13%)</title><rect x="1044.8" y="165" width="1.6" height="15.0" fill="rgb(205,1,0)" rx="2" ry="2" />
<text  x="1047.83" y="175.5" ></text>
</g>
<g >
<title>OutputNode::populate_output (32,750,000 samples, 0.51%)</title><rect x="1047.2" y="149" width="6.1" height="15.0" fill="rgb(240,161,38)" rx="2" ry="2" />
<text  x="1050.23" y="159.5" ></text>
</g>
<g >
<title>entt::basic_sparse_set&lt;entt::entity, std::allocator&lt;entt::entity&gt; &gt;::swap_and_pop (4,750,000 samples, 0.07%)</title><rect x="1044.0" y="165" width="0.8" height="15.0" fill="rgb(214,44,10)" rx="2" ry="2" />
<text  x="1046.96" y="175.5" ></text>
</g>
<g >
<title>QuadNode::intersects_circle (10,000,000 samples, 0.16%)</title><rect x="23.7" y="133" width="1.9" height="15.0" fill="rgb(231,121,29)" rx="2" ry="2" />
<text  x="26.74" y="143.5" ></text>
</g>
<g >
<title>Brain::reset_next_values (4,000,000 samples, 0.06%)</title><rect x="1068.2" y="149" width="0.8" height="15.0" fill="rgb(249,205,49)" rx="2" ry="2" />
<text  x="1071.21" y="159.5" ></text>
</g>
<g >
<title>QuadTree::insert (2,378,750,000 samples, 37.18%)</title><rect x="604.4" y="165" width="438.8" height="15.0" fill="rgb(208,16,3)" rx="2" ry="2" />
<text  x="607.40" y="175.5" >QuadTree::insert</text>
</g>
<g >
<title>malloc@plt (1,250,000 samples, 0.02%)</title><rect x="469.9" y="149" width="0.2" height="15.0" fill="rgb(246,192,46)" rx="2" ry="2" />
<text  x="472.89" y="159.5" ></text>
</g>
<g >
<title>[libm.so.6] (30,000,000 samples, 0.47%)</title><rect x="1149.9" y="133" width="5.6" height="15.0" fill="rgb(208,16,4)" rx="2" ry="2" />
<text  x="1152.93" y="143.5" ></text>
</g>
<g >
<title>std::_Deque_base&lt;int, std::allocator&lt;int&gt; &gt;::~_Deque_base (2,000,000 samples, 0.03%)</title><rect x="519.6" y="165" width="0.4" height="15.0" fill="rgb(242,171,40)" rx="2" ry="2" />
<text  x="522.65" y="175.5" ></text>
</g>
<g >
<title>SensorSystem::set_direction (212,000,000 samples, 3.31%)</title><rect x="477.4" y="165" width="39.1" height="15.0" fill="rgb(235,141,33)" rx="2" ry="2" />
<text  x="480.36" y="175.5" >Sen..</text>
</g>
<g >
<title>Brain::populate_outputs (750,000 samples, 0.01%)</title><rect x="13.3" y="181" width="0.2" height="15.0" fill="rgb(232,126,30)" rx="2" ry="2" />
<text  x="16.32" y="191.5" ></text>
</g>
<g >
<title>auto&amp; entt::basic_registry&lt;entt::entity, std::allocator&lt;entt::entity&gt; &gt;::assure&lt;CreatureState&gt; (6,750,000 samples, 0.11%)</title><rect x="1051.3" y="133" width="1.3" height="15.0" fill="rgb(238,156,37)" rx="2" ry="2" />
<text  x="1054.34" y="143.5" ></text>
</g>
<g >
<title>entt::internal::view_iterator&lt;entt::basic_sparse_set&lt;entt::entity, std::allocator&lt;entt::entity&gt; &gt;, false, 4ul, 0ul&gt;::seek_next (9,250,000 samples, 0.14%)</title><rect x="517.2" y="165" width="1.8" height="15.0" fill="rgb(224,90,21)" rx="2" ry="2" />
<text  x="520.25" y="175.5" ></text>
</g>
<g >
<title>Brain::think (316,250,000 samples, 4.94%)</title><rect x="1056.1" y="165" width="58.3" height="15.0" fill="rgb(234,136,32)" rx="2" ry="2" />
<text  x="1059.09" y="175.5" >Brain:..</text>
</g>
<g >
<title>QuadTree::collect_leaf (4,750,000 samples, 0.07%)</title><rect x="44.4" y="69" width="0.9" height="15.0" fill="rgb(236,142,34)" rx="2" ry="2" />
<text  x="47.45" y="79.5" ></text>
</g>
<g >
<title>QuadTree::insert (19,500,000 samples, 0.30%)</title><rect x="68.6" y="181" width="3.6" height="15.0" fill="rgb(208,16,3)" rx="2" ry="2" />
<text  x="71.56" y="191.5" ></text>
</g>
<g >
<title>PlantFactory::spawn_random (5,750,000 samples, 0.09%)</title><rect x="67.5" y="165" width="1.1" height="15.0" fill="rgb(233,131,31)" rx="2" ry="2" />
<text  x="70.50" y="175.5" ></text>
</g>
<g >
<title>QuadTree::query_node (159,500,000 samples, 2.49%)</title><rect x="21.2" y="149" width="29.4" height="15.0" fill="rgb(232,126,30)" rx="2" ry="2" />
<text  x="24.16" y="159.5" >Qu..</text>
</g>
<g >
<title>[libm.so.6] (24,750,000 samples, 0.39%)</title><rect x="1104.7" y="149" width="4.6" height="15.0" fill="rgb(208,16,4)" rx="2" ry="2" />
<text  x="1107.69" y="159.5" ></text>
</g>
<g >
<title>Node::activate (23,500,000 samples, 0.37%)</title><rect x="1115.9" y="149" width="4.3" height="15.0" fill="rgb(210,24,5)" rx="2" ry="2" />
<text  x="1118.90" y="159.5" ></text>
</g>
<g >
<title>Simulation::update (6,378,750,000 samples, 99.71%)</title><rect x="13.3" y="197" width="1176.6" height="15.0" fill="rgb(206,7,1)" rx="2" ry="2" />
<text  x="16.32" y="207.5" >Simulation::update</text>
</g>
<g >
<title>Brain::populate_outputs (50,250,000 samples, 0.79%)</title><rect x="1046.8" y="165" width="9.3" height="15.0" fill="rgb(232,126,30)" rx="2" ry="2" />
<text  x="1049.82" y="175.5" ></text>
</g>
<g >
<title>std::_Hashtable&lt;int, std::pair&lt;int const, std::pair&lt;NodeType, int&gt; &gt;, std::allocator&lt;std::pair&lt;int const, std::pair&lt;NodeType, int&gt; &gt; &gt;, std::__detail::_Select1st, std::equal_to&lt;int&gt;, std::hash&lt;int&gt;, std::__detail::_Mod_range_hashing, std::__detail::_Default_ranged_hash, std::__detail::_Prime_rehash_policy, std::__detail::_Hashtable_traits&lt;false, false, true&gt; &gt;::find (38,000,000 samples, 0.59%)</title><rect x="1060.9" y="133" width="7.0" height="15.0" fill="rgb(243,176,42)" rx="2" ry="2" />
<text  x="1063.93" y="143.5" ></text>
</g>
<g >
<title>entt::internal::view_iterator&lt;entt::basic_sparse_set&lt;entt::entity, std::allocator&lt;entt::entity&gt; &gt;, false, 3ul, 1ul&gt;::seek_next (12,000,000 samples, 0.19%)</title><rect x="52.2" y="165" width="2.3" height="15.0" fill="rgb(224,90,21)" rx="2" ry="2" />
<text  x="55.24" y="175.5" ></text>
</g>
<g >
<title>operator new (2,000,000 samples, 0.03%)</title><rect x="519.3" y="165" width="0.3" height="15.0" fill="rgb(216,51,12)" rx="2" ry="2" />
<text  x="522.28" y="175.5" ></text>
</g>
<g >
<title>auto&amp; entt::basic_registry&lt;entt::entity, std::allocator&lt;entt::entity&gt; &gt;::assure&lt;BrainTimer&gt; (4,250,000 samples, 0.07%)</title><rect x="1082.0" y="133" width="0.7" height="15.0" fill="rgb(252,220,52)" rx="2" ry="2" />
<text  x="1084.96" y="143.5" ></text>
</g>
<g >
<title>Brain::get_node (1,500,000 samples, 0.02%)</title><rect x="1067.9" y="149" width="0.3" height="15.0" fill="rgb(229,110,26)" rx="2" ry="2" />
<text  x="1070.94" y="159.5" ></text>
</g>
<g >
<title>auto&amp; entt::basic_registry&lt;entt::entity, std::allocator&lt;entt::entity&gt; &gt;::assure&lt;CreatureState&gt; (3,500,000 samples, 0.05%)</title><rect x="1083.2" y="133" width="0.6" height="15.0" fill="rgb(238,156,37)" rx="2" ry="2" />
<text  x="1086.20" y="143.5" ></text>
</g>
<g >
<title>Node::reset_next_value (71,000,000 samples, 1.11%)</title><rect x="1091.6" y="149" width="13.1" height="15.0" fill="rgb(251,214,51)" rx="2" ry="2" />
<text  x="1094.59" y="159.5" ></text>
</g>
<g >
<title>atanf32 (46,500,000 samples, 0.73%)</title><rect x="505.2" y="133" width="8.6" height="15.0" fill="rgb(239,156,37)" rx="2" ry="2" />
<text  x="508.21" y="143.5" ></text>
</g>
<g >
<title>entt::basic_sparse_set&lt;entt::entity, std::allocator&lt;entt::entity&gt; &gt;::index (24,500,000 samples, 0.38%)</title><rect x="1109.8" y="149" width="4.5" height="15.0" fill="rgb(238,154,36)" rx="2" ry="2" />
<text  x="1112.81" y="159.5" ></text>
</g>
<g >
<title>cfree (13,000,000 samples, 0.20%)</title><rect x="475.0" y="133" width="2.4" height="15.0" fill="rgb(223,86,20)" rx="2" ry="2" />
<text  x="477.96" y="143.5" ></text>
</g>
<g >
<title>QuadTree::collect_leaf (750,000 samples, 0.01%)</title><rect x="35.1" y="101" width="0.1" height="15.0" fill="rgb(236,142,34)" rx="2" ry="2" />
<text  x="38.09" y="111.5" ></text>
</g>
<g >
<title>QuadTree::query_closest (750,000 samples, 0.01%)</title><rect x="72.2" y="181" width="0.1" height="15.0" fill="rgb(216,54,12)" rx="2" ry="2" />
<text  x="75.16" y="191.5" ></text>
</g>
<g >
<title>[ld-linux-x86-64.so.2] (1,250,000 samples, 0.02%)</title><rect x="10.0" y="197" width="0.2" height="15.0" fill="rgb(243,178,42)" rx="2" ry="2" />
<text  x="13.00" y="207.5" ></text>
</g>
<g >
<title>PlantSystem::update (6,000,000 samples, 0.09%)</title><rect x="67.5" y="181" width="1.1" height="15.0" fill="rgb(242,174,41)" rx="2" ry="2" />
<text  x="70.46" y="191.5" ></text>
</g>
<g >
<title>Node::accept_input (11,500,000 samples, 0.18%)</title><rect x="1089.5" y="149" width="2.1" height="15.0" fill="rgb(232,127,30)" rx="2" ry="2" />
<text  x="1092.47" y="159.5" ></text>
</g>
<g >
<title>auto&amp; entt::basic_registry&lt;entt::entity, std::allocator&lt;entt::entity&gt; &gt;::assure&lt;OldPosition&gt; (1,500,000 samples, 0.02%)</title><rect x="1168.3" y="181" width="0.3" height="15.0" fill="rgb(230,119,28)" rx="2" ry="2" />
<text  x="1171.28" y="191.5" ></text>
</g>
<g >
<title>EnvironmentSystem::update (25,250,000 samples, 0.39%)</title><rect x="56.7" y="181" width="4.7" height="15.0" fill="rgb(216,52,12)" rx="2" ry="2" />
<text  x="59.71" y="191.5" ></text>
</g>
<g >
<title>[libc.so.6] (8,250,000 samples, 0.13%)</title><rect x="468.2" y="133" width="1.5" height="15.0" fill="rgb(223,84,20)" rx="2" ry="2" />
<text  x="471.18" y="143.5" ></text>
</g>
<g >
<title>Brain::get_node (15,250,000 samples, 0.24%)</title><rect x="1058.1" y="133" width="2.8" height="15.0" fill="rgb(229,110,26)" rx="2" ry="2" />
<text  x="1061.12" y="143.5" ></text>
</g>
<g >
<title>CollisionSystem::update (222,250,000 samples, 3.47%)</title><rect x="13.5" y="181" width="41.0" height="15.0" fill="rgb(221,76,18)" rx="2" ry="2" />
<text  x="16.46" y="191.5" >Col..</text>
</g>
<g >
<title>__libc_start_main (6,395,750,000 samples, 99.98%)</title><rect x="10.3" y="245" width="1179.7" height="15.0" fill="rgb(236,142,34)" rx="2" ry="2" />
<text  x="13.28" y="255.5" >__libc_start_main</text>
</g>
<g >
<title>CreatureFactory::spawn_random (2,000,000 samples, 0.03%)</title><rect x="10.6" y="181" width="0.3" height="15.0" fill="rgb(242,171,41)" rx="2" ry="2" />
<text  x="13.55" y="191.5" ></text>
</g>
<g >
<title>ThinkingSystem::update (648,250,000 samples, 10.13%)</title><rect x="1046.4" y="181" width="119.6" height="15.0" fill="rgb(245,184,44)" rx="2" ry="2" />
<text  x="1049.40" y="191.5" >ThinkingSystem..</text>
</g>
<g >
<title>main (6,395,750,000 samples, 99.98%)</title><rect x="10.3" y="213" width="1179.7" height="15.0" fill="rgb(243,179,42)" rx="2" ry="2" />
<text  x="13.28" y="223.5" >main</text>
</g>
<g >
<title>OutputNode::populate_output (1,250,000 samples, 0.02%)</title><rect x="1165.7" y="165" width="0.2" height="15.0" fill="rgb(240,161,38)" rx="2" ry="2" />
<text  x="1168.70" y="175.5" ></text>
</g>
<g >
<title>QuadTree::query_node (83,250,000 samples, 1.30%)</title><rect x="35.2" y="101" width="15.4" height="15.0" fill="rgb(232,126,30)" rx="2" ry="2" />
<text  x="38.22" y="111.5" ></text>
</g>
<g >
<title>auto&amp; entt::basic_registry&lt;entt::entity, std::allocator&lt;entt::entity&gt; &gt;::assure&lt;ChildEnergy&gt; (1,000,000 samples, 0.02%)</title><rect x="1082.7" y="133" width="0.2" height="15.0" fill="rgb(226,98,23)" rx="2" ry="2" />
<text  x="1085.74" y="143.5" ></text>
</g>
<g >
<title>QuadTree::query_node (28,500,000 samples, 0.45%)</title><rect x="45.3" y="69" width="5.3" height="15.0" fill="rgb(232,126,30)" rx="2" ry="2" />
<text  x="48.32" y="79.5" ></text>
</g>
<g >
<title>Node::activate (50,500,000 samples, 0.79%)</title><rect x="1140.6" y="133" width="9.3" height="15.0" fill="rgb(210,24,5)" rx="2" ry="2" />
<text  x="1143.61" y="143.5" ></text>
</g>
<g >
<title>Random::float_range (1,250,000 samples, 0.02%)</title><rect x="11.2" y="149" width="0.2" height="15.0" fill="rgb(225,93,22)" rx="2" ry="2" />
<text  x="14.15" y="159.5" ></text>
</g>
<g >
<title>QuadNode::intersects_circle (1,000,000 samples, 0.02%)</title><rect x="50.1" y="37" width="0.2" height="15.0" fill="rgb(231,121,29)" rx="2" ry="2" />
<text  x="53.07" y="47.5" ></text>
</g>
<g >
<title>Fertility::random_location (2,750,000 samples, 0.04%)</title><rect x="10.9" y="165" width="0.5" height="15.0" fill="rgb(247,197,47)" rx="2" ry="2" />
<text  x="13.92" y="175.5" ></text>
</g>
<g >
<title>auto&amp; entt::basic_registry&lt;entt::entity, std::allocator&lt;entt::entity&gt; &gt;::assure&lt;OldPosition&gt; (750,000 samples, 0.01%)</title><rect x="51.5" y="149" width="0.1" height="15.0" fill="rgb(230,119,28)" rx="2" ry="2" />
<text  x="54.46" y="159.5" ></text>
</g>
<g >
<title>auto&amp; entt::basic_registry&lt;entt::entity, std::allocator&lt;entt::entity&gt; &gt;::assure&lt;OldPosition&gt; (2,000,000 samples, 0.03%)</title><rect x="66.3" y="165" width="0.4" height="15.0" fill="rgb(230,119,28)" rx="2" ry="2" />
<text  x="69.30" y="175.5" ></text>
</g>
<g >
<title>Brain::apply_weights (58,000,000 samples, 0.91%)</title><rect x="1057.2" y="149" width="10.7" height="15.0" fill="rgb(240,162,38)" rx="2" ry="2" />
<text  x="1060.24" y="159.5" ></text>
</g>
</g>
</svg>
