<?xml version="1.0" standalone="no"?>
<!DOCTYPE svg PUBLIC "-//W3C//DTD SVG 1.1//EN" "http://www.w3.org/Graphics/SVG/1.1/DTD/svg11.dtd">
<svg version="1.1" width="1200" height="342" onload="init(evt)" viewBox="0 0 1200 342" xmlns="http://www.w3.org/2000/svg" xmlns:xlink="http://www.w3.org/1999/xlink">
<!-- Flame graph stack visualization. See https://github.com/brendangregg/FlameGraph for latest version, and http://www.brendangregg.com/flamegraphs.html for examples. -->
<!-- NOTES:  -->
<defs>
	<linearGradient id="background" y1="0" y2="1" x1="0" x2="0" >
		<stop stop-color="#eeeeee" offset="5%" />
		<stop stop-color="#eeeeb0" offset="95%" />
	</linearGradient>
</defs>
<style type="text/css">
	text { font-family:Verdana; font-size:12px; fill:rgb(0,0,0); }
	#search, #ignorecase { opacity:0.1; cursor:pointer; }
	#search:hover, #search.show, #ignorecase:hover, #ignorecase.show { opacity:1; }
	#subtitle { text-anchor:middle; font-color:rgb(160,160,160); }
	#title { text-anchor:middle; font-size:17px}
	#unzoom { cursor:pointer; }
	#frames > *:hover { stroke:black; stroke-width:0.5; cursor:pointer; }
	.hide { display:none; }
	.parent { opacity:0.5; }
</style>
<script type="text/ecmascript">
<![CDATA[
	"use strict";
	var details, searchbtn, unzoombtn, matchedtxt, svg, searching, currentSearchTerm, ignorecase, ignorecaseBtn;
	function init(evt) {
		details = document.getElementById("details").firstChild;
		searchbtn = document.getElementById("search");
		ignorecaseBtn = document.getElementById("ignorecase");
		unzoombtn = document.getElementById("unzoom");
		matchedtxt = document.getElementById("matched");
		svg = document.getElementsByTagName("svg")[0];
		searching = 0;
		currentSearchTerm = null;

		// use GET parameters to restore a flamegraphs state.
		var params = get_params();
		if (params.x && params.y)
			zoom(find_group(document.querySelector('[x="' + params.x + '"][y="' + params.y + '"]')));
                if (params.s) search(params.s);
	}

	// event listeners
	window.addEventListener("click", function(e) {
		var target = find_group(e.target);
		if (target) {
			if (target.nodeName == "a") {
				if (e.ctrlKey === false) return;
				e.preventDefault();
			}
			if (target.classList.contains("parent")) unzoom(true);
			zoom(target);
			if (!document.querySelector('.parent')) {
				// we have basically done a clearzoom so clear the url
				var params = get_params();
				if (params.x) delete params.x;
				if (params.y) delete params.y;
				history.replaceState(null, null, parse_params(params));
				unzoombtn.classList.add("hide");
				return;
			}

			// set parameters for zoom state
			var el = target.querySelector("rect");
			if (el && el.attributes && el.attributes.y && el.attributes._orig_x) {
				var params = get_params()
				params.x = el.attributes._orig_x.value;
				params.y = el.attributes.y.value;
				history.replaceState(null, null, parse_params(params));
			}
		}
		else if (e.target.id == "unzoom") clearzoom();
		else if (e.target.id == "search") search_prompt();
		else if (e.target.id == "ignorecase") toggle_ignorecase();
	}, false)

	// mouse-over for info
	// show
	window.addEventListener("mouseover", function(e) {
		var target = find_group(e.target);
		if (target) details.nodeValue = "Function: " + g_to_text(target);
	}, false)

	// clear
	window.addEventListener("mouseout", function(e) {
		var target = find_group(e.target);
		if (target) details.nodeValue = ' ';
	}, false)

	// ctrl-F for search
	// ctrl-I to toggle case-sensitive search
	window.addEventListener("keydown",function (e) {
		if (e.keyCode === 114 || (e.ctrlKey && e.keyCode === 70)) {
			e.preventDefault();
			search_prompt();
		}
		else if (e.ctrlKey && e.keyCode === 73) {
			e.preventDefault();
			toggle_ignorecase();
		}
	}, false)

	// functions
	function get_params() {
		var params = {};
		var paramsarr = window.location.search.substr(1).split('&');
		for (var i = 0; i < paramsarr.length; ++i) {
			var tmp = paramsarr[i].split("=");
			if (!tmp[0] || !tmp[1]) continue;
			params[tmp[0]]  = decodeURIComponent(tmp[1]);
		}
		return params;
	}
	function parse_params(params) {
		var uri = "?";
		for (var key in params) {
			uri += key + '=' + encodeURIComponent(params[key]) + '&';
		}
		if (uri.slice(-1) == "&")
			uri = uri.substring(0, uri.length - 1);
		if (uri == '?')
			uri = window.location.href.split('?')[0];
		return uri;
	}
	function find_child(node, selector) {
		var children = node.querySelectorAll(selector);
		if (children.length) return children[0];
	}
	function find_group(node) {
		var parent = node.parentElement;
		if (!parent) return;
		if (parent.id == "frames") return node;
		return find_group(parent);
	}
	function orig_save(e, attr, val) {
		if (e.attributes["_orig_" + attr] != undefined) return;
		if (e.attributes[attr] == undefined) return;
		if (val == undefined) val = e.attributes[attr].value;
		e.setAttribute("_orig_" + attr, val);
	}
	function orig_load(e, attr) {
		if (e.attributes["_orig_"+attr] == undefined) return;
		e.attributes[attr].value = e.attributes["_orig_" + attr].value;
		e.removeAttribute("_orig_"+attr);
	}
	function g_to_text(e) {
		var text = find_child(e, "title").firstChild.nodeValue;
		return (text)
	}
	function g_to_func(e) {
		var func = g_to_text(e);
		// if there's any manipulation we want to do to the function
		// name before it's searched, do it here before returning.
		return (func);
	}
	function update_text(e) {
		var r = find_child(e, "rect");
		var t = find_child(e, "text");
		var w = parseFloat(r.attributes.width.value) -3;
		var txt = find_child(e, "title").textContent.replace(/\([^(]*\)$/,"");
		t.attributes.x.value = parseFloat(r.attributes.x.value) + 3;

		// Smaller than this size won't fit anything
		if (w < 2 * 12 * 0.59) {
			t.textContent = "";
			return;
		}

		t.textContent = txt;
		var sl = t.getSubStringLength(0, txt.length);
		// check if only whitespace or if we can fit the entire string into width w
		if (/^ *$/.test(txt) || sl < w)
			return;

		// this isn't perfect, but gives a good starting point
		// and avoids calling getSubStringLength too often
		var start = Math.floor((w/sl) * txt.length);
		for (var x = start; x > 0; x = x-2) {
			if (t.getSubStringLength(0, x + 2) <= w) {
				t.textContent = txt.substring(0, x) + "..";
				return;
			}
		}
		t.textContent = "";
	}

	// zoom
	function zoom_reset(e) {
		if (e.attributes != undefined) {
			orig_load(e, "x");
			orig_load(e, "width");
		}
		if (e.childNodes == undefined) return;
		for (var i = 0, c = e.childNodes; i < c.length; i++) {
			zoom_reset(c[i]);
		}
	}
	function zoom_child(e, x, ratio) {
		if (e.attributes != undefined) {
			if (e.attributes.x != undefined) {
				orig_save(e, "x");
				e.attributes.x.value = (parseFloat(e.attributes.x.value) - x - 10) * ratio + 10;
				if (e.tagName == "text")
					e.attributes.x.value = find_child(e.parentNode, "rect[x]").attributes.x.value + 3;
			}
			if (e.attributes.width != undefined) {
				orig_save(e, "width");
				e.attributes.width.value = parseFloat(e.attributes.width.value) * ratio;
			}
		}

		if (e.childNodes == undefined) return;
		for (var i = 0, c = e.childNodes; i < c.length; i++) {
			zoom_child(c[i], x - 10, ratio);
		}
	}
	function zoom_parent(e) {
		if (e.attributes) {
			if (e.attributes.x != undefined) {
				orig_save(e, "x");
				e.attributes.x.value = 10;
			}
			if (e.attributes.width != undefined) {
				orig_save(e, "width");
				e.attributes.width.value = parseInt(svg.width.baseVal.value) - (10 * 2);
			}
		}
		if (e.childNodes == undefined) return;
		for (var i = 0, c = e.childNodes; i < c.length; i++) {
			zoom_parent(c[i]);
		}
	}
	function zoom(node) {
		var attr = find_child(node, "rect").attributes;
		var width = parseFloat(attr.width.value);
		var xmin = parseFloat(attr.x.value);
		var xmax = parseFloat(xmin + width);
		var ymin = parseFloat(attr.y.value);
		var ratio = (svg.width.baseVal.value - 2 * 10) / width;

		// XXX: Workaround for JavaScript float issues (fix me)
		var fudge = 0.0001;

		unzoombtn.classList.remove("hide");

		var el = document.getElementById("frames").children;
		for (var i = 0; i < el.length; i++) {
			var e = el[i];
			var a = find_child(e, "rect").attributes;
			var ex = parseFloat(a.x.value);
			var ew = parseFloat(a.width.value);
			var upstack;
			// Is it an ancestor
			if (0 == 0) {
				upstack = parseFloat(a.y.value) > ymin;
			} else {
				upstack = parseFloat(a.y.value) < ymin;
			}
			if (upstack) {
				// Direct ancestor
				if (ex <= xmin && (ex+ew+fudge) >= xmax) {
					e.classList.add("parent");
					zoom_parent(e);
					update_text(e);
				}
				// not in current path
				else
					e.classList.add("hide");
			}
			// Children maybe
			else {
				// no common path
				if (ex < xmin || ex + fudge >= xmax) {
					e.classList.add("hide");
				}
				else {
					zoom_child(e, xmin, ratio);
					update_text(e);
				}
			}
		}
		search();
	}
	function unzoom(dont_update_text) {
		unzoombtn.classList.add("hide");
		var el = document.getElementById("frames").children;
		for(var i = 0; i < el.length; i++) {
			el[i].classList.remove("parent");
			el[i].classList.remove("hide");
			zoom_reset(el[i]);
			if(!dont_update_text) update_text(el[i]);
		}
		search();
	}
	function clearzoom() {
		unzoom();

		// remove zoom state
		var params = get_params();
		if (params.x) delete params.x;
		if (params.y) delete params.y;
		history.replaceState(null, null, parse_params(params));
	}

	// search
	function toggle_ignorecase() {
		ignorecase = !ignorecase;
		if (ignorecase) {
			ignorecaseBtn.classList.add("show");
		} else {
			ignorecaseBtn.classList.remove("show");
		}
		reset_search();
		search();
	}
	function reset_search() {
		var el = document.querySelectorAll("#frames rect");
		for (var i = 0; i < el.length; i++) {
			orig_load(el[i], "fill")
		}
		var params = get_params();
		delete params.s;
		history.replaceState(null, null, parse_params(params));
	}
	function search_prompt() {
		if (!searching) {
			var term = prompt("Enter a search term (regexp " +
			    "allowed, eg: ^ext4_)"
			    + (ignorecase ? ", ignoring case" : "")
			    + "\nPress Ctrl-i to toggle case sensitivity", "");
			if (term != null) search(term);
		} else {
			reset_search();
			searching = 0;
			currentSearchTerm = null;
			searchbtn.classList.remove("show");
			searchbtn.firstChild.nodeValue = "Search"
			matchedtxt.classList.add("hide");
			matchedtxt.firstChild.nodeValue = ""
		}
	}
	function search(term) {
		if (term) currentSearchTerm = term;
		if (currentSearchTerm === null) return;

		var re = new RegExp(currentSearchTerm, ignorecase ? 'i' : '');
		var el = document.getElementById("frames").children;
		var matches = new Object();
		var maxwidth = 0;
		for (var i = 0; i < el.length; i++) {
			var e = el[i];
			var func = g_to_func(e);
			var rect = find_child(e, "rect");
			if (func == null || rect == null)
				continue;

			// Save max width. Only works as we have a root frame
			var w = parseFloat(rect.attributes.width.value);
			if (w > maxwidth)
				maxwidth = w;

			if (func.match(re)) {
				// highlight
				var x = parseFloat(rect.attributes.x.value);
				orig_save(rect, "fill");
				rect.attributes.fill.value = "rgb(230,0,230)";

				// remember matches
				if (matches[x] == undefined) {
					matches[x] = w;
				} else {
					if (w > matches[x]) {
						// overwrite with parent
						matches[x] = w;
					}
				}
				searching = 1;
			}
		}
		if (!searching)
			return;
		var params = get_params();
		params.s = currentSearchTerm;
		history.replaceState(null, null, parse_params(params));

		searchbtn.classList.add("show");
		searchbtn.firstChild.nodeValue = "Reset Search";

		// calculate percent matched, excluding vertical overlap
		var count = 0;
		var lastx = -1;
		var lastw = 0;
		var keys = Array();
		for (k in matches) {
			if (matches.hasOwnProperty(k))
				keys.push(k);
		}
		// sort the matched frames by their x location
		// ascending, then width descending
		keys.sort(function(a, b){
			return a - b;
		});
		// Step through frames saving only the biggest bottom-up frames
		// thanks to the sort order. This relies on the tree property
		// where children are always smaller than their parents.
		var fudge = 0.0001;	// JavaScript floating point
		for (var k in keys) {
			var x = parseFloat(keys[k]);
			var w = matches[keys[k]];
			if (x >= lastx + lastw - fudge) {
				count += w;
				lastx = x;
				lastw = w;
			}
		}
		// display matched percent
		matchedtxt.classList.remove("hide");
		var pct = 100 * count / maxwidth;
		if (pct != 100) pct = pct.toFixed(1)
		matchedtxt.firstChild.nodeValue = "Matched: " + pct + "%";
	}
]]>
</script>
<rect x="0.0" y="0" width="1200.0" height="342.0" fill="url(#background)"  />
<text id="title" x="600.00" y="24" >Flame Graph</text>
<text id="details" x="10.00" y="325" > </text>
<text id="unzoom" x="10.00" y="24" class="hide">Reset Zoom</text>
<text id="search" x="1090.00" y="24" >Search</text>
<text id="ignorecase" x="1174.00" y="24" >ic</text>
<text id="matched" x="1090.00" y="325" > </text>
<g id="frames">
<g >
<title>auto&amp; entt::basic_registry&lt;entt::entity, std::allocator&lt;entt::entity&gt; &gt;::assure&lt;CreatureEnergy&gt; (3,250,000 samples, 0.05%)</title><rect x="1078.5" y="133" width="0.6" height="15.0" fill="rgb(210,25,6)" rx="2" ry="2" />
<text  x="1081.53" y="143.5" ></text>
</g>
<g >
<title>QuadTree::collect_leaf (6,750,000 samples, 0.11%)</title><rect x="45.1" y="69" width="1.2" height="15.0" fill="rgb(236,142,34)" rx="2" ry="2" />
<text  x="48.09" y="79.5" ></text>
</g>
<g >
<title>Node::activate (47,000,000 samples, 0.74%)</title><rect x="1138.9" y="133" width="8.7" height="15.0" fill="rgb(210,24,5)" rx="2" ry="2" />
<text  x="1141.88" y="143.5" ></text>
</g>
<g >
<title>QuadTree::collect_leaf (4,750,000 samples, 0.07%)</title><rect x="48.7" y="53" width="0.9" height="15.0" fill="rgb(236,142,34)" rx="2" ry="2" />
<text  x="51.74" y="63.5" ></text>
</g>
<g >
<title>[ld-linux-x86-64.so.2] (1,250,000 samples, 0.02%)</title><rect x="10.0" y="197" width="0.2" height="15.0" fill="rgb(243,178,42)" rx="2" ry="2" />
<text  x="13.00" y="207.5" ></text>
</g>
<g >
<title>bool entt::internal::all_of&lt;entt::basic_sparse_set&lt;entt::entity, std::allocator&lt;entt::entity&gt; &gt; const* const*, entt::entity&gt; (114,250,000 samples, 1.79%)</title><rect x="1168.4" y="181" width="21.1" height="15.0" fill="rgb(208,14,3)" rx="2" ry="2" />
<text  x="1171.44" y="191.5" ></text>
</g>
<g >
<title>OutputNode::populate_output (750,000 samples, 0.01%)</title><rect x="1165.3" y="165" width="0.2" height="15.0" fill="rgb(240,161,38)" rx="2" ry="2" />
<text  x="1168.34" y="175.5" ></text>
</g>
<g >
<title>entt::basic_sparse_set&lt;entt::entity, std::allocator&lt;entt::entity&gt; &gt;::index (15,750,000 samples, 0.25%)</title><rect x="1050.4" y="149" width="2.9" height="15.0" fill="rgb(238,154,36)" rx="2" ry="2" />
<text  x="1053.41" y="159.5" ></text>
</g>
<g >
<title>auto&amp; entt::basic_registry&lt;entt::entity, std::allocator&lt;entt::entity&gt; &gt;::assure&lt;OldPosition&gt; (1,250,000 samples, 0.02%)</title><rect x="1041.0" y="165" width="0.3" height="15.0" fill="rgb(230,119,28)" rx="2" ry="2" />
<text  x="1044.04" y="175.5" ></text>
</g>
<g >
<title>DeathSystem::update (1,750,000 samples, 0.03%)</title><rect x="54.1" y="181" width="0.3" height="15.0" fill="rgb(254,227,54)" rx="2" ry="2" />
<text  x="57.05" y="191.5" ></text>
</g>
<g >
<title>auto&amp; entt::basic_registry&lt;entt::entity, std::allocator&lt;entt::entity&gt; &gt;::assure&lt;BrainTimer&gt; (2,000,000 samples, 0.03%)</title><rect x="1047.6" y="133" width="0.4" height="15.0" fill="rgb(252,220,52)" rx="2" ry="2" />
<text  x="1050.60" y="143.5" ></text>
</g>
<g >
<title>entt::internal::view_iterator&lt;entt::basic_sparse_set&lt;entt::entity, std::allocator&lt;entt::entity&gt; &gt;, false, 3ul, 0ul&gt;::seek_next (5,500,000 samples, 0.09%)</title><rect x="59.9" y="165" width="1.0" height="15.0" fill="rgb(231,120,28)" rx="2" ry="2" />
<text  x="62.87" y="175.5" ></text>
</g>
<g >
<title>entt::internal::view_iterator&lt;entt::basic_sparse_set&lt;entt::entity, std::allocator&lt;entt::entity&gt; &gt;, false, 3ul, 0ul&gt;::seek_next (3,000,000 samples, 0.05%)</title><rect x="55.9" y="165" width="0.5" height="15.0" fill="rgb(231,120,28)" rx="2" ry="2" />
<text  x="58.85" y="175.5" ></text>
</g>
<g >
<title>entt::basic_storage&lt;OldPosition, entt::entity, std::allocator&lt;OldPosition&gt;, void&gt;::pop (7,000,000 samples, 0.11%)</title><rect x="1042.4" y="165" width="1.3" height="15.0" fill="rgb(205,1,0)" rx="2" ry="2" />
<text  x="1045.38" y="175.5" ></text>
</g>
<g >
<title>auto&amp; entt::basic_registry&lt;entt::entity, std::allocator&lt;entt::entity&gt; &gt;::assure&lt;BrainTimer&gt; (7,250,000 samples, 0.11%)</title><rect x="1077.1" y="133" width="1.3" height="15.0" fill="rgb(252,220,52)" rx="2" ry="2" />
<text  x="1080.06" y="143.5" ></text>
</g>
<g >
<title>decltype (5,000,000 samples, 0.08%)</title><rect x="51.1" y="165" width="1.0" height="15.0" fill="rgb(220,73,17)" rx="2" ry="2" />
<text  x="54.14" y="175.5" ></text>
</g>
<g >
<title>entt::basic_sparse_set&lt;entt::entity, std::allocator&lt;entt::entity&gt; &gt;::swap_and_pop (4,500,000 samples, 0.07%)</title><rect x="1041.5" y="165" width="0.9" height="15.0" fill="rgb(214,44,10)" rx="2" ry="2" />
<text  x="1044.55" y="175.5" ></text>
</g>
<g >
<title>QuadTree::query_closest (2,162,000,000 samples, 33.84%)</title><rect x="73.7" y="165" width="399.3" height="15.0" fill="rgb(216,54,12)" rx="2" ry="2" />
<text  x="76.68" y="175.5" >QuadTree::query_closest</text>
</g>
<g >
<title>std::_Deque_base&lt;int, std::allocator&lt;int&gt; &gt;::~_Deque_base (17,750,000 samples, 0.28%)</title><rect x="469.7" y="149" width="3.3" height="15.0" fill="rgb(242,171,40)" rx="2" ry="2" />
<text  x="472.72" y="159.5" ></text>
</g>
<g >
<title>QuadNode::intersects_circle (7,750,000 samples, 0.12%)</title><rect x="20.4" y="149" width="1.4" height="15.0" fill="rgb(231,121,29)" rx="2" ry="2" />
<text  x="23.39" y="159.5" ></text>
</g>
<g >
<title>entt::internal::view_iterator&lt;entt::basic_sparse_set&lt;entt::entity, std::allocator&lt;entt::entity&gt; &gt;, false, 2ul, 0ul&gt;::seek_next (2,000,000 samples, 0.03%)</title><rect x="65.8" y="165" width="0.4" height="15.0" fill="rgb(237,149,35)" rx="2" ry="2" />
<text  x="68.83" y="175.5" ></text>
</g>
<g >
<title>malloc@plt (750,000 samples, 0.01%)</title><rect x="465.1" y="149" width="0.1" height="15.0" fill="rgb(246,192,46)" rx="2" ry="2" />
<text  x="468.10" y="159.5" ></text>
</g>
<g >
<title>SpatialIndexSystem::update (2,857,000,000 samples, 44.72%)</title><rect x="516.0" y="181" width="527.7" height="15.0" fill="rgb(249,206,49)" rx="2" ry="2" />
<text  x="518.98" y="191.5" >SpatialIndexSystem::update</text>
</g>
<g >
<title>tanhf32 (9,250,000 samples, 0.14%)</title><rect x="1159.4" y="133" width="1.7" height="15.0" fill="rgb(243,178,42)" rx="2" ry="2" />
<text  x="1162.43" y="143.5" ></text>
</g>
<g >
<title>Simulation::update (6,371,500,000 samples, 99.73%)</title><rect x="13.1" y="197" width="1176.8" height="15.0" fill="rgb(206,7,1)" rx="2" ry="2" />
<text  x="16.09" y="207.5" >Simulation::update</text>
</g>
<g >
<title>decltype (41,250,000 samples, 0.65%)</title><rect x="1080.2" y="133" width="7.6" height="15.0" fill="rgb(220,73,17)" rx="2" ry="2" />
<text  x="1083.20" y="143.5" ></text>
</g>
<g >
<title>cfree (1,000,000 samples, 0.02%)</title><rect x="513.6" y="165" width="0.2" height="15.0" fill="rgb(223,86,20)" rx="2" ry="2" />
<text  x="516.63" y="175.5" ></text>
</g>
<g >
<title>Fertility::random_location (2,750,000 samples, 0.04%)</title><rect x="10.7" y="165" width="0.5" height="15.0" fill="rgb(247,197,47)" rx="2" ry="2" />
<text  x="13.69" y="175.5" ></text>
</g>
<g >
<title>entt::internal::view_iterator&lt;entt::basic_sparse_set&lt;entt::entity, std::allocator&lt;entt::entity&gt; &gt;, false, 2ul, 0ul&gt;::seek_next (2,250,000 samples, 0.04%)</title><rect x="62.0" y="165" width="0.4" height="15.0" fill="rgb(237,149,35)" rx="2" ry="2" />
<text  x="64.99" y="175.5" ></text>
</g>
<g >
<title>[ld-linux-x86-64.so.2] (1,500,000 samples, 0.02%)</title><rect x="10.0" y="261" width="0.3" height="15.0" fill="rgb(243,178,42)" rx="2" ry="2" />
<text  x="13.00" y="271.5" ></text>
</g>
<g >
<title>QuadTree::insert (2,376,750,000 samples, 37.20%)</title><rect x="602.0" y="165" width="439.0" height="15.0" fill="rgb(208,16,3)" rx="2" ry="2" />
<text  x="605.01" y="175.5" >QuadTree::insert</text>
</g>
<g >
<title>InputNode::load_input (122,000,000 samples, 1.91%)</title><rect x="1065.3" y="149" width="22.5" height="15.0" fill="rgb(215,48,11)" rx="2" ry="2" />
<text  x="1068.28" y="159.5" >I..</text>
</g>
<g >
<title>entt::internal::view_iterator&lt;entt::basic_sparse_set&lt;entt::entity, std::allocator&lt;entt::entity&gt; &gt;, false, 3ul, 1ul&gt;::seek_next (9,000,000 samples, 0.14%)</title><rect x="52.4" y="165" width="1.7" height="15.0" fill="rgb(224,90,21)" rx="2" ry="2" />
<text  x="55.39" y="175.5" ></text>
</g>
<g >
<title>__atan2f_finite (9,000,000 samples, 0.14%)</title><rect x="501.3" y="133" width="1.7" height="15.0" fill="rgb(249,204,49)" rx="2" ry="2" />
<text  x="504.35" y="143.5" ></text>
</g>
<g >
<title>QuadTree::query_node (6,750,000 samples, 0.11%)</title><rect x="49.6" y="53" width="1.3" height="15.0" fill="rgb(232,126,30)" rx="2" ry="2" />
<text  x="52.62" y="63.5" ></text>
</g>
<g >
<title>Brain::get_node (11,000,000 samples, 0.17%)</title><rect x="1055.3" y="133" width="2.0" height="15.0" fill="rgb(229,110,26)" rx="2" ry="2" />
<text  x="1058.31" y="143.5" ></text>
</g>
<g >
<title>atanf32 (43,500,000 samples, 0.68%)</title><rect x="503.0" y="133" width="8.0" height="15.0" fill="rgb(239,156,37)" rx="2" ry="2" />
<text  x="506.01" y="143.5" ></text>
</g>
<g >
<title>QuadNode::intersects_circle (750,000 samples, 0.01%)</title><rect x="50.5" y="37" width="0.1" height="15.0" fill="rgb(231,121,29)" rx="2" ry="2" />
<text  x="53.50" y="47.5" ></text>
</g>
<g >
<title>auto&amp; entt::basic_registry&lt;entt::entity, std::allocator&lt;entt::entity&gt; &gt;::assure&lt;FoodEnergy&gt; (1,000,000 samples, 0.02%)</title><rect x="59.7" y="165" width="0.2" height="15.0" fill="rgb(220,72,17)" rx="2" ry="2" />
<text  x="62.68" y="175.5" ></text>
</g>
<g >
<title>PlantSystem::update (7,250,000 samples, 0.11%)</title><rect x="66.2" y="181" width="1.3" height="15.0" fill="rgb(242,174,41)" rx="2" ry="2" />
<text  x="69.19" y="191.5" ></text>
</g>
<g >
<title>QuadNode::intersects_circle (14,500,000 samples, 0.23%)</title><rect x="37.6" y="85" width="2.7" height="15.0" fill="rgb(231,121,29)" rx="2" ry="2" />
<text  x="40.61" y="95.5" ></text>
</g>
<g >
<title>auto&amp; entt::basic_registry&lt;entt::entity, std::allocator&lt;entt::entity&gt; &gt;::assure&lt;Velocity&gt; (8,750,000 samples, 0.14%)</title><rect x="1048.5" y="133" width="1.6" height="15.0" fill="rgb(223,85,20)" rx="2" ry="2" />
<text  x="1051.47" y="143.5" ></text>
</g>
<g >
<title>entt::internal::view_iterator&lt;entt::basic_sparse_set&lt;entt::entity, std::allocator&lt;entt::entity&gt; &gt;, false, 4ul, 0ul&gt;::seek_next (7,750,000 samples, 0.12%)</title><rect x="513.8" y="165" width="1.4" height="15.0" fill="rgb(224,90,21)" rx="2" ry="2" />
<text  x="516.81" y="175.5" ></text>
</g>
<g >
<title>OutputNode::populate_output (32,000,000 samples, 0.50%)</title><rect x="1044.2" y="149" width="5.9" height="15.0" fill="rgb(240,161,38)" rx="2" ry="2" />
<text  x="1047.18" y="159.5" ></text>
</g>
<g >
<title>Brain::think (312,750,000 samples, 4.90%)</title><rect x="1053.3" y="165" width="57.8" height="15.0" fill="rgb(234,136,32)" rx="2" ry="2" />
<text  x="1056.32" y="175.5" >Brain:..</text>
</g>
<g >
<title>auto&amp; entt::basic_registry&lt;entt::entity, std::allocator&lt;entt::entity&gt; &gt;::assure&lt;Position&gt; (11,250,000 samples, 0.18%)</title><rect x="511.0" y="149" width="2.1" height="15.0" fill="rgb(234,137,32)" rx="2" ry="2" />
<text  x="514.04" y="159.5" ></text>
</g>
<g >
<title>all (6,388,750,000 samples, 100%)</title><rect x="10.0" y="293" width="1180.0" height="15.0" fill="rgb(213,39,9)" rx="2" ry="2" />
<text  x="13.00" y="303.5" ></text>
</g>
<g >
<title>entt::basic_sparse_set&lt;entt::entity, std::allocator&lt;entt::entity&gt; &gt;::index (28,250,000 samples, 0.44%)</title><rect x="1105.9" y="149" width="5.2" height="15.0" fill="rgb(238,154,36)" rx="2" ry="2" />
<text  x="1108.87" y="159.5" ></text>
</g>
<g >
<title>Node::activate (27,000,000 samples, 0.42%)</title><rect x="1112.2" y="149" width="5.0" height="15.0" fill="rgb(210,24,5)" rx="2" ry="2" />
<text  x="1115.20" y="159.5" ></text>
</g>
<g >
<title>cfree (13,000,000 samples, 0.20%)</title><rect x="470.6" y="133" width="2.4" height="15.0" fill="rgb(223,86,20)" rx="2" ry="2" />
<text  x="473.59" y="143.5" ></text>
</g>
<g >
<title>PlantFactory::spawn_random (13,000,000 samples, 0.20%)</title><rect x="10.7" y="181" width="2.4" height="15.0" fill="rgb(233,131,31)" rx="2" ry="2" />
<text  x="13.69" y="191.5" ></text>
</g>
<g >
<title>[libm.so.6] (36,250,000 samples, 0.57%)</title><rect x="1147.6" y="133" width="6.7" height="15.0" fill="rgb(208,16,4)" rx="2" ry="2" />
<text  x="1150.57" y="143.5" ></text>
</g>
<g >
<title>SensorSystem::update (2,402,250,000 samples, 37.60%)</title><rect x="72.3" y="181" width="443.7" height="15.0" fill="rgb(248,199,47)" rx="2" ry="2" />
<text  x="75.29" y="191.5" >SensorSystem::update</text>
</g>
<g >
<title>QuadTree::query_node (173,500,000 samples, 2.72%)</title><rect x="18.8" y="165" width="32.1" height="15.0" fill="rgb(232,126,30)" rx="2" ry="2" />
<text  x="21.82" y="175.5" >Qu..</text>
</g>
<g >
<title>[libc.so.6] (7,500,000 samples, 0.12%)</title><rect x="463.6" y="133" width="1.4" height="15.0" fill="rgb(223,84,20)" rx="2" ry="2" />
<text  x="466.62" y="143.5" ></text>
</g>
<g >
<title>siv::BasicPerlinNoise&lt;double&gt;::noise3D (10,000,000 samples, 0.16%)</title><rect x="11.2" y="165" width="1.9" height="15.0" fill="rgb(220,73,17)" rx="2" ry="2" />
<text  x="14.25" y="175.5" ></text>
</g>
<g >
<title>entt::basic_sparse_set&lt;entt::entity, std::allocator&lt;entt::entity&gt; &gt;::try_emplace (1,500,000 samples, 0.02%)</title><rect x="65.5" y="165" width="0.3" height="15.0" fill="rgb(223,85,20)" rx="2" ry="2" />
<text  x="68.55" y="175.5" ></text>
</g>
<g >
<title>auto&amp; entt::basic_registry&lt;entt::entity, std::allocator&lt;entt::entity&gt; &gt;::assure&lt;CreatureState&gt; (2,750,000 samples, 0.04%)</title><rect x="1048.0" y="133" width="0.5" height="15.0" fill="rgb(238,156,37)" rx="2" ry="2" />
<text  x="1050.97" y="143.5" ></text>
</g>
<g >
<title>malloc (18,500,000 samples, 0.29%)</title><rect x="466.3" y="133" width="3.4" height="15.0" fill="rgb(230,119,28)" rx="2" ry="2" />
<text  x="469.30" y="143.5" ></text>
</g>
<g >
<title>siv::BasicPerlinNoise&lt;double&gt;::noise3D (750,000 samples, 0.01%)</title><rect x="10.6" y="165" width="0.1" height="15.0" fill="rgb(220,73,17)" rx="2" ry="2" />
<text  x="13.55" y="175.5" ></text>
</g>
<g >
<title>auto&amp; entt::basic_registry&lt;entt::entity, std::allocator&lt;entt::entity&gt; &gt;::assure&lt;CreatureState&gt; (4,500,000 samples, 0.07%)</title><rect x="1079.1" y="133" width="0.9" height="15.0" fill="rgb(238,156,37)" rx="2" ry="2" />
<text  x="1082.13" y="143.5" ></text>
</g>
<g >
<title>auto&amp; entt::basic_registry&lt;entt::entity, std::allocator&lt;entt::entity&gt; &gt;::assure&lt;Age&gt; (5,000,000 samples, 0.08%)</title><rect x="1076.1" y="133" width="1.0" height="15.0" fill="rgb(207,11,2)" rx="2" ry="2" />
<text  x="1079.13" y="143.5" ></text>
</g>
<g >
<title>Brain::update_nodes (291,750,000 samples, 4.57%)</title><rect x="1111.1" y="165" width="53.9" height="15.0" fill="rgb(249,205,49)" rx="2" ry="2" />
<text  x="1114.09" y="175.5" >Brain..</text>
</g>
<g >
<title>QuadTree::update_bounds (2,500,000 samples, 0.04%)</title><rect x="71.4" y="181" width="0.5" height="15.0" fill="rgb(205,3,0)" rx="2" ry="2" />
<text  x="74.41" y="191.5" ></text>
</g>
<g >
<title>QuadNode::intersects_circle (13,750,000 samples, 0.22%)</title><rect x="27.9" y="117" width="2.6" height="15.0" fill="rgb(231,121,29)" rx="2" ry="2" />
<text  x="30.92" y="127.5" ></text>
</g>
<g >
<title>[libm.so.6] (15,500,000 samples, 0.24%)</title><rect x="1165.5" y="181" width="2.8" height="15.0" fill="rgb(208,16,4)" rx="2" ry="2" />
<text  x="1168.48" y="191.5" ></text>
</g>
<g >
<title>CreatureFactory::spawn_random (2,000,000 samples, 0.03%)</title><rect x="10.3" y="181" width="0.4" height="15.0" fill="rgb(242,171,41)" rx="2" ry="2" />
<text  x="13.32" y="191.5" ></text>
</g>
<g >
<title>std::_Hashtable&lt;int, std::pair&lt;int const, std::pair&lt;NodeType, int&gt; &gt;, std::allocator&lt;std::pair&lt;int const, std::pair&lt;NodeType, int&gt; &gt; &gt;, std::__detail::_Select1st, std::equal_to&lt;int&gt;, std::hash&lt;int&gt;, std::__detail::_Mod_range_hashing, std::__detail::_Default_ranged_hash, std::__detail::_Prime_rehash_policy, std::__detail::_Hashtable_traits&lt;false, false, true&gt; &gt;::find (39,500,000 samples, 0.62%)</title><rect x="1057.3" y="133" width="7.3" height="15.0" fill="rgb(243,176,42)" rx="2" ry="2" />
<text  x="1060.34" y="143.5" ></text>
</g>
<g >
<title>tanhf32 (750,000 samples, 0.01%)</title><rect x="1164.8" y="149" width="0.1" height="15.0" fill="rgb(243,178,42)" rx="2" ry="2" />
<text  x="1167.79" y="159.5" ></text>
</g>
<g >
<title>QuadTree::query_node (137,000,000 samples, 2.14%)</title><rect x="25.6" y="133" width="25.3" height="15.0" fill="rgb(232,126,30)" rx="2" ry="2" />
<text  x="28.56" y="143.5" >Q..</text>
</g>
<g >
<title>DigestionSystem::update (11,000,000 samples, 0.17%)</title><rect x="54.4" y="181" width="2.0" height="15.0" fill="rgb(210,24,5)" rx="2" ry="2" />
<text  x="57.37" y="191.5" ></text>
</g>
<g >
<title>expm1f32 (28,000,000 samples, 0.44%)</title><rect x="1154.3" y="133" width="5.1" height="15.0" fill="rgb(230,116,27)" rx="2" ry="2" />
<text  x="1157.26" y="143.5" ></text>
</g>
<g >
<title>[libc.so.6] (8,000,000 samples, 0.13%)</title><rect x="471.5" y="117" width="1.5" height="15.0" fill="rgb(223,84,20)" rx="2" ry="2" />
<text  x="474.52" y="127.5" ></text>
</g>
<g >
<title>QuadTree::query_node (157,250,000 samples, 2.46%)</title><rect x="21.8" y="149" width="29.1" height="15.0" fill="rgb(232,126,30)" rx="2" ry="2" />
<text  x="24.82" y="159.5" >Qu..</text>
</g>
<g >
<title>entt::basic_sigh_mixin&lt;entt::basic_storage&lt;OldPosition, entt::entity, std::allocator&lt;OldPosition&gt;, void&gt;, entt::basic_registry&lt;entt::entity, std::allocator&lt;entt::entity&gt; &gt; &gt;::pop (1,000,000 samples, 0.02%)</title><rect x="1041.4" y="165" width="0.1" height="15.0" fill="rgb(233,129,30)" rx="2" ry="2" />
<text  x="1044.36" y="175.5" ></text>
</g>
<g >
<title>__atan2f_finite (2,250,000 samples, 0.04%)</title><rect x="499.5" y="149" width="0.4" height="15.0" fill="rgb(249,204,49)" rx="2" ry="2" />
<text  x="502.50" y="159.5" ></text>
</g>
<g >
<title>operator delete (750,000 samples, 0.01%)</title><rect x="515.2" y="165" width="0.2" height="15.0" fill="rgb(247,196,46)" rx="2" ry="2" />
<text  x="518.25" y="175.5" ></text>
</g>
<g >
<title>PlantFactory::spawn_random (6,750,000 samples, 0.11%)</title><rect x="66.3" y="165" width="1.2" height="15.0" fill="rgb(233,131,31)" rx="2" ry="2" />
<text  x="69.29" y="175.5" ></text>
</g>
<g >
<title>[libm.so.6] (19,750,000 samples, 0.31%)</title><rect x="1161.1" y="149" width="3.7" height="15.0" fill="rgb(208,16,4)" rx="2" ry="2" />
<text  x="1164.14" y="159.5" ></text>
</g>
<g >
<title>[libm.so.6] (25,500,000 samples, 0.40%)</title><rect x="1100.7" y="149" width="4.7" height="15.0" fill="rgb(208,16,4)" rx="2" ry="2" />
<text  x="1103.70" y="159.5" ></text>
</g>
<g >
<title>Node::reset_next_value (61,500,000 samples, 0.96%)</title><rect x="1089.3" y="149" width="11.4" height="15.0" fill="rgb(251,214,51)" rx="2" ry="2" />
<text  x="1092.34" y="159.5" ></text>
</g>
<g >
<title>__libc_start_main (6,387,250,000 samples, 99.98%)</title><rect x="10.3" y="245" width="1179.7" height="15.0" fill="rgb(236,142,34)" rx="2" ry="2" />
<text  x="13.28" y="255.5" >__libc_start_main</text>
</g>
<g >
<title>InputNode::load_input (1,500,000 samples, 0.02%)</title><rect x="1165.0" y="165" width="0.3" height="15.0" fill="rgb(215,48,11)" rx="2" ry="2" />
<text  x="1167.97" y="175.5" ></text>
</g>
<g >
<title>auto&amp; entt::basic_registry&lt;entt::entity, std::allocator&lt;entt::entity&gt; &gt;::assure&lt;OldPosition&gt; (1,000,000 samples, 0.02%)</title><rect x="51.8" y="149" width="0.2" height="15.0" fill="rgb(230,119,28)" rx="2" ry="2" />
<text  x="54.83" y="159.5" ></text>
</g>
<g >
<title>QuadNode::intersects_circle (10,250,000 samples, 0.16%)</title><rect x="23.7" y="133" width="1.9" height="15.0" fill="rgb(231,121,29)" rx="2" ry="2" />
<text  x="26.67" y="143.5" ></text>
</g>
<g >
<title>[ld-linux-x86-64.so.2] (1,500,000 samples, 0.02%)</title><rect x="10.0" y="229" width="0.3" height="15.0" fill="rgb(243,178,42)" rx="2" ry="2" />
<text  x="13.00" y="239.5" ></text>
</g>
<g >
<title>ReproductionSystem::update (2,000,000 samples, 0.03%)</title><rect x="71.9" y="181" width="0.3" height="15.0" fill="rgb(238,152,36)" rx="2" ry="2" />
<text  x="74.87" y="191.5" ></text>
</g>
<g >
<title>[ld-linux-x86-64.so.2] (1,500,000 samples, 0.02%)</title><rect x="10.0" y="245" width="0.3" height="15.0" fill="rgb(243,178,42)" rx="2" ry="2" />
<text  x="13.00" y="255.5" ></text>
</g>
<g >
<title>MovementSystem::update (20,500,000 samples, 0.32%)</title><rect x="62.4" y="181" width="3.8" height="15.0" fill="rgb(248,198,47)" rx="2" ry="2" />
<text  x="65.41" y="191.5" ></text>
</g>
<g >
<title>operator new (2,250,000 samples, 0.04%)</title><rect x="515.4" y="165" width="0.4" height="15.0" fill="rgb(216,51,12)" rx="2" ry="2" />
<text  x="518.38" y="175.5" ></text>
</g>
<g >
<title>ThinkingSystem::update (659,500,000 samples, 10.32%)</title><rect x="1043.7" y="181" width="121.8" height="15.0" fill="rgb(245,184,44)" rx="2" ry="2" />
<text  x="1046.67" y="191.5" >ThinkingSystem:..</text>
</g>
<g >
<title>decltype (2,000,000 samples, 0.03%)</title><rect x="1105.5" y="149" width="0.4" height="15.0" fill="rgb(220,73,17)" rx="2" ry="2" />
<text  x="1108.50" y="159.5" ></text>
</g>
<g >
<title>atan2f32 (2,500,000 samples, 0.04%)</title><rect x="513.1" y="165" width="0.5" height="15.0" fill="rgb(216,50,12)" rx="2" ry="2" />
<text  x="516.12" y="175.5" ></text>
</g>
<g >
<title>operator delete (3,250,000 samples, 0.05%)</title><rect x="465.2" y="149" width="0.6" height="15.0" fill="rgb(247,196,46)" rx="2" ry="2" />
<text  x="468.24" y="159.5" ></text>
</g>
<g >
<title>MetabolismSystem::update (8,250,000 samples, 0.13%)</title><rect x="60.9" y="181" width="1.5" height="15.0" fill="rgb(244,183,43)" rx="2" ry="2" />
<text  x="63.88" y="191.5" ></text>
</g>
<g >
<title>QuadNode::intersects_circle (11,750,000 samples, 0.18%)</title><rect x="32.6" y="101" width="2.1" height="15.0" fill="rgb(231,121,29)" rx="2" ry="2" />
<text  x="35.58" y="111.5" ></text>
</g>
<g >
<title>cfree (16,750,000 samples, 0.26%)</title><rect x="461.9" y="149" width="3.1" height="15.0" fill="rgb(223,86,20)" rx="2" ry="2" />
<text  x="464.91" y="159.5" ></text>
</g>
<g >
<title>auto&amp; entt::basic_registry&lt;entt::entity, std::allocator&lt;entt::entity&gt; &gt;::assure&lt;ChildEnergy&gt; (750,000 samples, 0.01%)</title><rect x="1078.4" y="133" width="0.1" height="15.0" fill="rgb(226,98,23)" rx="2" ry="2" />
<text  x="1081.40" y="143.5" ></text>
</g>
<g >
<title>CollisionSystem::handle_eating (6,000,000 samples, 0.09%)</title><rect x="17.1" y="165" width="1.1" height="15.0" fill="rgb(223,86,20)" rx="2" ry="2" />
<text  x="20.06" y="175.5" ></text>
</g>
<g >
<title>QuadTree::query_node (57,000,000 samples, 0.89%)</title><rect x="40.3" y="85" width="10.6" height="15.0" fill="rgb(232,126,30)" rx="2" ry="2" />
<text  x="43.34" y="95.5" ></text>
</g>
<g >
<title>[libc.so.6] (6,387,000,000 samples, 99.97%)</title><rect x="10.3" y="229" width="1179.7" height="15.0" fill="rgb(223,84,20)" rx="2" ry="2" />
<text  x="13.28" y="239.5" >[libc.so.6]</text>
</g>
<g >
<title>siv::BasicPerlinNoise&lt;double&gt;::noise3D (6,250,000 samples, 0.10%)</title><rect x="66.4" y="149" width="1.1" height="15.0" fill="rgb(220,73,17)" rx="2" ry="2" />
<text  x="69.38" y="159.5" ></text>
</g>
<g >
<title>QuadTree::query_node (110,500,000 samples, 1.73%)</title><rect x="30.5" y="117" width="20.4" height="15.0" fill="rgb(232,126,30)" rx="2" ry="2" />
<text  x="33.46" y="127.5" ></text>
</g>
<g >
<title>Node::accept_input (8,250,000 samples, 0.13%)</title><rect x="1087.8" y="149" width="1.5" height="15.0" fill="rgb(232,127,30)" rx="2" ry="2" />
<text  x="1090.81" y="159.5" ></text>
</g>
<g >
<title>entt::basic_sigh_mixin&lt;entt::basic_storage&lt;OldPosition, entt::entity, std::allocator&lt;OldPosition&gt;, void&gt;, entt::basic_registry&lt;entt::entity, std::allocator&lt;entt::entity&gt; &gt; &gt;::pop (750,000 samples, 0.01%)</title><rect x="1189.7" y="181" width="0.1" height="15.0" fill="rgb(233,129,30)" rx="2" ry="2" />
<text  x="1192.68" y="191.5" ></text>
</g>
<g >
<title>auto&amp; entt::basic_registry&lt;entt::entity, std::allocator&lt;entt::entity&gt; &gt;::assure&lt;CreatureState&gt; (1,000,000 samples, 0.02%)</title><rect x="1050.1" y="149" width="0.2" height="15.0" fill="rgb(238,156,37)" rx="2" ry="2" />
<text  x="1053.09" y="159.5" ></text>
</g>
<g >
<title>Node::update (238,000,000 samples, 3.73%)</title><rect x="1117.2" y="149" width="43.9" height="15.0" fill="rgb(241,166,39)" rx="2" ry="2" />
<text  x="1120.18" y="159.5" >Node..</text>
</g>
<g >
<title>atan2f32 (60,250,000 samples, 0.94%)</title><rect x="499.9" y="149" width="11.1" height="15.0" fill="rgb(216,50,12)" rx="2" ry="2" />
<text  x="502.92" y="159.5" ></text>
</g>
<g >
<title>Brain::apply_weights (55,750,000 samples, 0.87%)</title><rect x="1054.3" y="149" width="10.3" height="15.0" fill="rgb(240,162,38)" rx="2" ry="2" />
<text  x="1057.34" y="159.5" ></text>
</g>
<g >
<title>QuadTree::collect_leaf (750,000 samples, 0.01%)</title><rect x="50.6" y="37" width="0.2" height="15.0" fill="rgb(236,142,34)" rx="2" ry="2" />
<text  x="53.63" y="47.5" ></text>
</g>
<g >
<title>Simulation::initialize (15,000,000 samples, 0.23%)</title><rect x="10.3" y="197" width="2.8" height="15.0" fill="rgb(222,79,19)" rx="2" ry="2" />
<text  x="13.32" y="207.5" ></text>
</g>
<g >
<title>main (6,388,750,000 samples, 100.00%)</title><rect x="10.0" y="277" width="1180.0" height="15.0" fill="rgb(243,179,42)" rx="2" ry="2" />
<text  x="13.00" y="287.5" >main</text>
</g>
<g >
<title>entt::basic_sparse_set&lt;entt::entity, std::allocator&lt;entt::entity&gt; &gt;::index (1,750,000 samples, 0.03%)</title><rect x="52.1" y="165" width="0.3" height="15.0" fill="rgb(238,154,36)" rx="2" ry="2" />
<text  x="55.07" y="175.5" ></text>
</g>
<g >
<title>auto&amp; entt::basic_registry&lt;entt::entity, std::allocator&lt;entt::entity&gt; &gt;::assure&lt;VisionSensors&gt; (17,000,000 samples, 0.27%)</title><rect x="1084.7" y="117" width="3.1" height="15.0" fill="rgb(224,87,20)" rx="2" ry="2" />
<text  x="1087.68" y="127.5" ></text>
</g>
<g >
<title>QuadNode::intersects_circle (15,000,000 samples, 0.23%)</title><rect x="42.3" y="69" width="2.8" height="15.0" fill="rgb(231,121,29)" rx="2" ry="2" />
<text  x="45.32" y="79.5" ></text>
</g>
<g >
<title>SensorSystem::set_direction (217,250,000 samples, 3.40%)</title><rect x="473.0" y="165" width="40.1" height="15.0" fill="rgb(235,141,33)" rx="2" ry="2" />
<text  x="476.00" y="175.5" >Sen..</text>
</g>
<g >
<title>Brain::populate_outputs (50,500,000 samples, 0.79%)</title><rect x="1044.0" y="165" width="9.3" height="15.0" fill="rgb(232,126,30)" rx="2" ry="2" />
<text  x="1046.99" y="175.5" ></text>
</g>
<g >
<title>QuadTree::divide_node (291,500,000 samples, 4.56%)</title><rect x="548.2" y="165" width="53.8" height="15.0" fill="rgb(225,94,22)" rx="2" ry="2" />
<text  x="551.17" y="175.5" >QuadT..</text>
</g>
<g >
<title>QuadTree::query_node (24,500,000 samples, 0.38%)</title><rect x="46.3" y="69" width="4.6" height="15.0" fill="rgb(232,126,30)" rx="2" ry="2" />
<text  x="49.34" y="79.5" ></text>
</g>
<g >
<title>[ld-linux-x86-64.so.2] (1,500,000 samples, 0.02%)</title><rect x="10.0" y="213" width="0.3" height="15.0" fill="rgb(243,178,42)" rx="2" ry="2" />
<text  x="13.00" y="223.5" ></text>
</g>
<g >
<title>Brain::reset_next_values (3,500,000 samples, 0.05%)</title><rect x="1064.6" y="149" width="0.7" height="15.0" fill="rgb(249,205,49)" rx="2" ry="2" />
<text  x="1067.64" y="159.5" ></text>
</g>
<g >
<title>CollisionSystem::update (221,000,000 samples, 3.46%)</title><rect x="13.2" y="181" width="40.9" height="15.0" fill="rgb(221,76,18)" rx="2" ry="2" />
<text  x="16.23" y="191.5" >Col..</text>
</g>
<g >
<title>auto&amp; entt::basic_registry&lt;entt::entity, std::allocator&lt;entt::entity&gt; &gt;::assure&lt;Stomach&gt; (750,000 samples, 0.01%)</title><rect x="1080.0" y="133" width="0.1" height="15.0" fill="rgb(250,209,50)" rx="2" ry="2" />
<text  x="1082.97" y="143.5" ></text>
</g>
<g >
<title>main (6,387,000,000 samples, 99.97%)</title><rect x="10.3" y="213" width="1179.7" height="15.0" fill="rgb(243,179,42)" rx="2" ry="2" />
<text  x="13.28" y="223.5" >main</text>
</g>
<g >
<title>QuadTree::query_node (86,750,000 samples, 1.36%)</title><rect x="34.8" y="101" width="16.1" height="15.0" fill="rgb(232,126,30)" rx="2" ry="2" />
<text  x="37.84" y="111.5" ></text>
</g>
<g >
<title>auto&amp; entt::basic_registry&lt;entt::entity, std::allocator&lt;entt::entity&gt; &gt;::assure&lt;Velocity&gt; (750,000 samples, 0.01%)</title><rect x="1050.3" y="149" width="0.1" height="15.0" fill="rgb(223,85,20)" rx="2" ry="2" />
<text  x="1053.27" y="159.5" ></text>
</g>
<g >
<title>operator new (21,000,000 samples, 0.33%)</title><rect x="465.8" y="149" width="3.9" height="15.0" fill="rgb(216,51,12)" rx="2" ry="2" />
<text  x="468.84" y="159.5" ></text>
</g>
<g >
<title>std::_Deque_base&lt;int, std::allocator&lt;int&gt; &gt;::~_Deque_base (1,000,000 samples, 0.02%)</title><rect x="515.8" y="165" width="0.2" height="15.0" fill="rgb(242,171,40)" rx="2" ry="2" />
<text  x="518.80" y="175.5" ></text>
</g>
<g >
<title>_start (6,387,250,000 samples, 99.98%)</title><rect x="10.3" y="261" width="1179.7" height="15.0" fill="rgb(245,185,44)" rx="2" ry="2" />
<text  x="13.28" y="271.5" >_start</text>
</g>
<g >
<title>QuadNode::intersects_circle (3,500,000 samples, 0.05%)</title><rect x="18.2" y="165" width="0.6" height="15.0" fill="rgb(231,121,29)" rx="2" ry="2" />
<text  x="21.17" y="175.5" ></text>
</g>
<g >
<title>QuadTree::insert (19,750,000 samples, 0.31%)</title><rect x="67.5" y="181" width="3.7" height="15.0" fill="rgb(208,16,3)" rx="2" ry="2" />
<text  x="70.53" y="191.5" ></text>
</g>
<g >
<title>QuadNode::intersects_circle (6,250,000 samples, 0.10%)</title><rect x="47.6" y="53" width="1.1" height="15.0" fill="rgb(231,121,29)" rx="2" ry="2" />
<text  x="50.59" y="63.5" ></text>
</g>
<g >
<title>EnvironmentSystem::update (24,250,000 samples, 0.38%)</title><rect x="56.4" y="181" width="4.5" height="15.0" fill="rgb(216,52,12)" rx="2" ry="2" />
<text  x="59.41" y="191.5" ></text>
</g>
</g>
</svg>
