<?xml version="1.0" standalone="no"?>
<!DOCTYPE svg PUBLIC "-//W3C//DTD SVG 1.1//EN" "http://www.w3.org/Graphics/SVG/1.1/DTD/svg11.dtd">
<svg version="1.1" width="1200" height="342" onload="init(evt)" viewBox="0 0 1200 342" xmlns="http://www.w3.org/2000/svg" xmlns:xlink="http://www.w3.org/1999/xlink">
<!-- Flame graph stack visualization. See https://github.com/brendangregg/FlameGraph for latest version, and http://www.brendangregg.com/flamegraphs.html for examples. -->
<!-- NOTES:  -->
<defs>
	<linearGradient id="background" y1="0" y2="1" x1="0" x2="0" >
		<stop stop-color="#eeeeee" offset="5%" />
		<stop stop-color="#eeeeb0" offset="95%" />
	</linearGradient>
</defs>
<style type="text/css">
	text { font-family:Verdana; font-size:12px; fill:rgb(0,0,0); }
	#search, #ignorecase { opacity:0.1; cursor:pointer; }
	#search:hover, #search.show, #ignorecase:hover, #ignorecase.show { opacity:1; }
	#subtitle { text-anchor:middle; font-color:rgb(160,160,160); }
	#title { text-anchor:middle; font-size:17px}
	#unzoom { cursor:pointer; }
	#frames > *:hover { stroke:black; stroke-width:0.5; cursor:pointer; }
	.hide { display:none; }
	.parent { opacity:0.5; }
</style>
<script type="text/ecmascript">
<![CDATA[
	"use strict";
	var details, searchbtn, unzoombtn, matchedtxt, svg, searching, currentSearchTerm, ignorecase, ignorecaseBtn;
	function init(evt) {
		details = document.getElementById("details").firstChild;
		searchbtn = document.getElementById("search");
		ignorecaseBtn = document.getElementById("ignorecase");
		unzoombtn = document.getElementById("unzoom");
		matchedtxt = document.getElementById("matched");
		svg = document.getElementsByTagName("svg")[0];
		searching = 0;
		currentSearchTerm = null;

		// use GET parameters to restore a flamegraphs state.
		var params = get_params();
		if (params.x && params.y)
			zoom(find_group(document.querySelector('[x="' + params.x + '"][y="' + params.y + '"]')));
                if (params.s) search(params.s);
	}

	// event listeners
	window.addEventListener("click", function(e) {
		var target = find_group(e.target);
		if (target) {
			if (target.nodeName == "a") {
				if (e.ctrlKey === false) return;
				e.preventDefault();
			}
			if (target.classList.contains("parent")) unzoom(true);
			zoom(target);
			if (!document.querySelector('.parent')) {
				// we have basically done a clearzoom so clear the url
				var params = get_params();
				if (params.x) delete params.x;
				if (params.y) delete params.y;
				history.replaceState(null, null, parse_params(params));
				unzoombtn.classList.add("hide");
				return;
			}

			// set parameters for zoom state
			var el = target.querySelector("rect");
			if (el && el.attributes && el.attributes.y && el.attributes._orig_x) {
				var params = get_params()
				params.x = el.attributes._orig_x.value;
				params.y = el.attributes.y.value;
				history.replaceState(null, null, parse_params(params));
			}
		}
		else if (e.target.id == "unzoom") clearzoom();
		else if (e.target.id == "search") search_prompt();
		else if (e.target.id == "ignorecase") toggle_ignorecase();
	}, false)

	// mouse-over for info
	// show
	window.addEventListener("mouseover", function(e) {
		var target = find_group(e.target);
		if (target) details.nodeValue = "Function: " + g_to_text(target);
	}, false)

	// clear
	window.addEventListener("mouseout", function(e) {
		var target = find_group(e.target);
		if (target) details.nodeValue = ' ';
	}, false)

	// ctrl-F for search
	// ctrl-I to toggle case-sensitive search
	window.addEventListener("keydown",function (e) {
		if (e.keyCode === 114 || (e.ctrlKey && e.keyCode === 70)) {
			e.preventDefault();
			search_prompt();
		}
		else if (e.ctrlKey && e.keyCode === 73) {
			e.preventDefault();
			toggle_ignorecase();
		}
	}, false)

	// functions
	function get_params() {
		var params = {};
		var paramsarr = window.location.search.substr(1).split('&');
		for (var i = 0; i < paramsarr.length; ++i) {
			var tmp = paramsarr[i].split("=");
			if (!tmp[0] || !tmp[1]) continue;
			params[tmp[0]]  = decodeURIComponent(tmp[1]);
		}
		return params;
	}
	function parse_params(params) {
		var uri = "?";
		for (var key in params) {
			uri += key + '=' + encodeURIComponent(params[key]) + '&';
		}
		if (uri.slice(-1) == "&")
			uri = uri.substring(0, uri.length - 1);
		if (uri == '?')
			uri = window.location.href.split('?')[0];
		return uri;
	}
	function find_child(node, selector) {
		var children = node.querySelectorAll(selector);
		if (children.length) return children[0];
	}
	function find_group(node) {
		var parent = node.parentElement;
		if (!parent) return;
		if (parent.id == "frames") return node;
		return find_group(parent);
	}
	function orig_save(e, attr, val) {
		if (e.attributes["_orig_" + attr] != undefined) return;
		if (e.attributes[attr] == undefined) return;
		if (val == undefined) val = e.attributes[attr].value;
		e.setAttribute("_orig_" + attr, val);
	}
	function orig_load(e, attr) {
		if (e.attributes["_orig_"+attr] == undefined) return;
		e.attributes[attr].value = e.attributes["_orig_" + attr].value;
		e.removeAttribute("_orig_"+attr);
	}
	function g_to_text(e) {
		var text = find_child(e, "title").firstChild.nodeValue;
		return (text)
	}
	function g_to_func(e) {
		var func = g_to_text(e);
		// if there's any manipulation we want to do to the function
		// name before it's searched, do it here before returning.
		return (func);
	}
	function update_text(e) {
		var r = find_child(e, "rect");
		var t = find_child(e, "text");
		var w = parseFloat(r.attributes.width.value) -3;
		var txt = find_child(e, "title").textContent.replace(/\([^(]*\)$/,"");
		t.attributes.x.value = parseFloat(r.attributes.x.value) + 3;

		// Smaller than this size won't fit anything
		if (w < 2 * 12 * 0.59) {
			t.textContent = "";
			return;
		}

		t.textContent = txt;
		var sl = t.getSubStringLength(0, txt.length);
		// check if only whitespace or if we can fit the entire string into width w
		if (/^ *$/.test(txt) || sl < w)
			return;

		// this isn't perfect, but gives a good starting point
		// and avoids calling getSubStringLength too often
		var start = Math.floor((w/sl) * txt.length);
		for (var x = start; x > 0; x = x-2) {
			if (t.getSubStringLength(0, x + 2) <= w) {
				t.textContent = txt.substring(0, x) + "..";
				return;
			}
		}
		t.textContent = "";
	}

	// zoom
	function zoom_reset(e) {
		if (e.attributes != undefined) {
			orig_load(e, "x");
			orig_load(e, "width");
		}
		if (e.childNodes == undefined) return;
		for (var i = 0, c = e.childNodes; i < c.length; i++) {
			zoom_reset(c[i]);
		}
	}
	function zoom_child(e, x, ratio) {
		if (e.attributes != undefined) {
			if (e.attributes.x != undefined) {
				orig_save(e, "x");
				e.attributes.x.value = (parseFloat(e.attributes.x.value) - x - 10) * ratio + 10;
				if (e.tagName == "text")
					e.attributes.x.value = find_child(e.parentNode, "rect[x]").attributes.x.value + 3;
			}
			if (e.attributes.width != undefined) {
				orig_save(e, "width");
				e.attributes.width.value = parseFloat(e.attributes.width.value) * ratio;
			}
		}

		if (e.childNodes == undefined) return;
		for (var i = 0, c = e.childNodes; i < c.length; i++) {
			zoom_child(c[i], x - 10, ratio);
		}
	}
	function zoom_parent(e) {
		if (e.attributes) {
			if (e.attributes.x != undefined) {
				orig_save(e, "x");
				e.attributes.x.value = 10;
			}
			if (e.attributes.width != undefined) {
				orig_save(e, "width");
				e.attributes.width.value = parseInt(svg.width.baseVal.value) - (10 * 2);
			}
		}
		if (e.childNodes == undefined) return;
		for (var i = 0, c = e.childNodes; i < c.length; i++) {
			zoom_parent(c[i]);
		}
	}
	function zoom(node) {
		var attr = find_child(node, "rect").attributes;
		var width = parseFloat(attr.width.value);
		var xmin = parseFloat(attr.x.value);
		var xmax = parseFloat(xmin + width);
		var ymin = parseFloat(attr.y.value);
		var ratio = (svg.width.baseVal.value - 2 * 10) / width;

		// XXX: Workaround for JavaScript float issues (fix me)
		var fudge = 0.0001;

		unzoombtn.classList.remove("hide");

		var el = document.getElementById("frames").children;
		for (var i = 0; i < el.length; i++) {
			var e = el[i];
			var a = find_child(e, "rect").attributes;
			var ex = parseFloat(a.x.value);
			var ew = parseFloat(a.width.value);
			var upstack;
			// Is it an ancestor
			if (0 == 0) {
				upstack = parseFloat(a.y.value) > ymin;
			} else {
				upstack = parseFloat(a.y.value) < ymin;
			}
			if (upstack) {
				// Direct ancestor
				if (ex <= xmin && (ex+ew+fudge) >= xmax) {
					e.classList.add("parent");
					zoom_parent(e);
					update_text(e);
				}
				// not in current path
				else
					e.classList.add("hide");
			}
			// Children maybe
			else {
				// no common path
				if (ex < xmin || ex + fudge >= xmax) {
					e.classList.add("hide");
				}
				else {
					zoom_child(e, xmin, ratio);
					update_text(e);
				}
			}
		}
		search();
	}
	function unzoom(dont_update_text) {
		unzoombtn.classList.add("hide");
		var el = document.getElementById("frames").children;
		for(var i = 0; i < el.length; i++) {
			el[i].classList.remove("parent");
			el[i].classList.remove("hide");
			zoom_reset(el[i]);
			if(!dont_update_text) update_text(el[i]);
		}
		search();
	}
	function clearzoom() {
		unzoom();

		// remove zoom state
		var params = get_params();
		if (params.x) delete params.x;
		if (params.y) delete params.y;
		history.replaceState(null, null, parse_params(params));
	}

	// search
	function toggle_ignorecase() {
		ignorecase = !ignorecase;
		if (ignorecase) {
			ignorecaseBtn.classList.add("show");
		} else {
			ignorecaseBtn.classList.remove("show");
		}
		reset_search();
		search();
	}
	function reset_search() {
		var el = document.querySelectorAll("#frames rect");
		for (var i = 0; i < el.length; i++) {
			orig_load(el[i], "fill")
		}
		var params = get_params();
		delete params.s;
		history.replaceState(null, null, parse_params(params));
	}
	function search_prompt() {
		if (!searching) {
			var term = prompt("Enter a search term (regexp " +
			    "allowed, eg: ^ext4_)"
			    + (ignorecase ? ", ignoring case" : "")
			    + "\nPress Ctrl-i to toggle case sensitivity", "");
			if (term != null) search(term);
		} else {
			reset_search();
			searching = 0;
			currentSearchTerm = null;
			searchbtn.classList.remove("show");
			searchbtn.firstChild.nodeValue = "Search"
			matchedtxt.classList.add("hide");
			matchedtxt.firstChild.nodeValue = ""
		}
	}
	function search(term) {
		if (term) currentSearchTerm = term;
		if (currentSearchTerm === null) return;

		var re = new RegExp(currentSearchTerm, ignorecase ? 'i' : '');
		var el = document.getElementById("frames").children;
		var matches = new Object();
		var maxwidth = 0;
		for (var i = 0; i < el.length; i++) {
			var e = el[i];
			var func = g_to_func(e);
			var rect = find_child(e, "rect");
			if (func == null || rect == null)
				continue;

			// Save max width. Only works as we have a root frame
			var w = parseFloat(rect.attributes.width.value);
			if (w > maxwidth)
				maxwidth = w;

			if (func.match(re)) {
				// highlight
				var x = parseFloat(rect.attributes.x.value);
				orig_save(rect, "fill");
				rect.attributes.fill.value = "rgb(230,0,230)";

				// remember matches
				if (matches[x] == undefined) {
					matches[x] = w;
				} else {
					if (w > matches[x]) {
						// overwrite with parent
						matches[x] = w;
					}
				}
				searching = 1;
			}
		}
		if (!searching)
			return;
		var params = get_params();
		params.s = currentSearchTerm;
		history.replaceState(null, null, parse_params(params));

		searchbtn.classList.add("show");
		searchbtn.firstChild.nodeValue = "Reset Search";

		// calculate percent matched, excluding vertical overlap
		var count = 0;
		var lastx = -1;
		var lastw = 0;
		var keys = Array();
		for (k in matches) {
			if (matches.hasOwnProperty(k))
				keys.push(k);
		}
		// sort the matched frames by their x location
		// ascending, then width descending
		keys.sort(function(a, b){
			return a - b;
		});
		// Step through frames saving only the biggest bottom-up frames
		// thanks to the sort order. This relies on the tree property
		// where children are always smaller than their parents.
		var fudge = 0.0001;	// JavaScript floating point
		for (var k in keys) {
			var x = parseFloat(keys[k]);
			var w = matches[keys[k]];
			if (x >= lastx + lastw - fudge) {
				count += w;
				lastx = x;
				lastw = w;
			}
		}
		// display matched percent
		matchedtxt.classList.remove("hide");
		var pct = 100 * count / maxwidth;
		if (pct != 100) pct = pct.toFixed(1)
		matchedtxt.firstChild.nodeValue = "Matched: " + pct + "%";
	}
]]>
</script>
<rect x="0.0" y="0" width="1200.0" height="342.0" fill="url(#background)"  />
<text id="title" x="600.00" y="24" >Flame Graph</text>
<text id="details" x="10.00" y="325" > </text>
<text id="unzoom" x="10.00" y="24" class="hide">Reset Zoom</text>
<text id="search" x="1090.00" y="24" >Search</text>
<text id="ignorecase" x="1174.00" y="24" >ic</text>
<text id="matched" x="1090.00" y="325" > </text>
<g id="frames">
<g >
<title>QuadTree::collect_leaf (1,750,000 samples, 0.03%)</title><rect x="50.3" y="37" width="0.4" height="15.0" fill="rgb(236,142,34)" rx="2" ry="2" />
<text  x="53.33" y="47.5" ></text>
</g>
<g >
<title>auto&amp; entt::basic_registry&lt;entt::entity, std::allocator&lt;entt::entity&gt; &gt;::assure&lt;Size&gt; (750,000 samples, 0.01%)</title><rect x="50.8" y="165" width="0.1" height="15.0" fill="rgb(240,161,38)" rx="2" ry="2" />
<text  x="53.80" y="175.5" ></text>
</g>
<g >
<title>atan2f32 (53,250,000 samples, 0.84%)</title><rect x="501.3" y="149" width="9.8" height="15.0" fill="rgb(216,50,12)" rx="2" ry="2" />
<text  x="504.25" y="159.5" ></text>
</g>
<g >
<title>auto&amp; entt::basic_registry&lt;entt::entity, std::allocator&lt;entt::entity&gt; &gt;::assure&lt;VisionSensors&gt; (9,250,000 samples, 0.15%)</title><rect x="1084.8" y="117" width="1.7" height="15.0" fill="rgb(224,87,20)" rx="2" ry="2" />
<text  x="1087.79" y="127.5" ></text>
</g>
<g >
<title>auto&amp; entt::basic_registry&lt;entt::entity, std::allocator&lt;entt::entity&gt; &gt;::assure&lt;OldPosition&gt; (750,000 samples, 0.01%)</title><rect x="52.0" y="149" width="0.2" height="15.0" fill="rgb(230,119,28)" rx="2" ry="2" />
<text  x="55.05" y="159.5" ></text>
</g>
<g >
<title>Node::activate (42,500,000 samples, 0.67%)</title><rect x="1136.7" y="133" width="7.9" height="15.0" fill="rgb(210,24,5)" rx="2" ry="2" />
<text  x="1139.75" y="143.5" ></text>
</g>
<g >
<title>auto&amp; entt::basic_registry&lt;entt::entity, std::allocator&lt;entt::entity&gt; &gt;::assure&lt;BrainTimer&gt; (3,750,000 samples, 0.06%)</title><rect x="1078.6" y="133" width="0.7" height="15.0" fill="rgb(252,220,52)" rx="2" ry="2" />
<text  x="1081.64" y="143.5" ></text>
</g>
<g >
<title>EnvironmentSystem::update (26,500,000 samples, 0.42%)</title><rect x="56.5" y="181" width="4.9" height="15.0" fill="rgb(216,52,12)" rx="2" ry="2" />
<text  x="59.49" y="191.5" ></text>
</g>
<g >
<title>atan2f32 (2,000,000 samples, 0.03%)</title><rect x="514.1" y="165" width="0.4" height="15.0" fill="rgb(216,50,12)" rx="2" ry="2" />
<text  x="517.13" y="175.5" ></text>
</g>
<g >
<title>Node::reset_next_value (53,750,000 samples, 0.84%)</title><rect x="1088.2" y="149" width="9.9" height="15.0" fill="rgb(251,214,51)" rx="2" ry="2" />
<text  x="1091.17" y="159.5" ></text>
</g>
<g >
<title>entt::basic_sparse_set&lt;entt::entity, std::allocator&lt;entt::entity&gt; &gt;::swap_and_pop (3,750,000 samples, 0.06%)</title><rect x="1042.9" y="165" width="0.7" height="15.0" fill="rgb(214,44,10)" rx="2" ry="2" />
<text  x="1045.89" y="175.5" ></text>
</g>
<g >
<title>Brain::update_nodes (279,250,000 samples, 4.38%)</title><rect x="1108.4" y="165" width="51.7" height="15.0" fill="rgb(249,205,49)" rx="2" ry="2" />
<text  x="1111.41" y="175.5" >Brain..</text>
</g>
<g >
<title>CollisionSystem::handle_eating (6,250,000 samples, 0.10%)</title><rect x="17.9" y="165" width="1.2" height="15.0" fill="rgb(223,86,20)" rx="2" ry="2" />
<text  x="20.92" y="175.5" ></text>
</g>
<g >
<title>[ld-linux-x86-64.so.2] (1,500,000 samples, 0.02%)</title><rect x="10.0" y="213" width="0.3" height="15.0" fill="rgb(243,178,42)" rx="2" ry="2" />
<text  x="13.00" y="223.5" ></text>
</g>
<g >
<title>auto&amp; entt::basic_registry&lt;entt::entity, std::allocator&lt;entt::entity&gt; &gt;::assure&lt;CreatureState&gt; (4,250,000 samples, 0.07%)</title><rect x="1049.6" y="133" width="0.8" height="15.0" fill="rgb(238,156,37)" rx="2" ry="2" />
<text  x="1052.60" y="143.5" ></text>
</g>
<g >
<title>QuadTree::query_node (131,750,000 samples, 2.07%)</title><rect x="26.4" y="133" width="24.4" height="15.0" fill="rgb(232,126,30)" rx="2" ry="2" />
<text  x="29.39" y="143.5" >Q..</text>
</g>
<g >
<title>QuadTree::query_node (83,250,000 samples, 1.31%)</title><rect x="35.4" y="101" width="15.4" height="15.0" fill="rgb(232,126,30)" rx="2" ry="2" />
<text  x="38.38" y="111.5" ></text>
</g>
<g >
<title>auto&amp; entt::basic_registry&lt;entt::entity, std::allocator&lt;entt::entity&gt; &gt;::assure&lt;Stomach&gt; (750,000 samples, 0.01%)</title><rect x="1081.0" y="133" width="0.1" height="15.0" fill="rgb(250,209,50)" rx="2" ry="2" />
<text  x="1083.95" y="143.5" ></text>
</g>
<g >
<title>auto&amp; entt::basic_registry&lt;entt::entity, std::allocator&lt;entt::entity&gt; &gt;::assure&lt;OldPosition&gt; (2,000,000 samples, 0.03%)</title><rect x="1042.1" y="165" width="0.3" height="15.0" fill="rgb(230,119,28)" rx="2" ry="2" />
<text  x="1045.05" y="175.5" ></text>
</g>
<g >
<title>QuadTree::query_node (750,000 samples, 0.01%)</title><rect x="50.7" y="37" width="0.1" height="15.0" fill="rgb(232,126,30)" rx="2" ry="2" />
<text  x="53.66" y="47.5" ></text>
</g>
<g >
<title>auto&amp; entt::basic_registry&lt;entt::entity, std::allocator&lt;entt::entity&gt; &gt;::assure&lt;CreatureState&gt; (5,000,000 samples, 0.08%)</title><rect x="1080.0" y="133" width="1.0" height="15.0" fill="rgb(238,156,37)" rx="2" ry="2" />
<text  x="1083.02" y="143.5" ></text>
</g>
<g >
<title>OutputNode::populate_output (1,500,000 samples, 0.02%)</title><rect x="1160.5" y="165" width="0.2" height="15.0" fill="rgb(240,161,38)" rx="2" ry="2" />
<text  x="1163.46" y="175.5" ></text>
</g>
<g >
<title>[ld-linux-x86-64.so.2] (750,000 samples, 0.01%)</title><rect x="10.1" y="133" width="0.2" height="15.0" fill="rgb(243,178,42)" rx="2" ry="2" />
<text  x="13.14" y="143.5" ></text>
</g>
<g >
<title>cfree (19,750,000 samples, 0.31%)</title><rect x="470.9" y="133" width="3.7" height="15.0" fill="rgb(223,86,20)" rx="2" ry="2" />
<text  x="473.92" y="143.5" ></text>
</g>
<g >
<title>auto&amp; entt::basic_registry&lt;entt::entity, std::allocator&lt;entt::entity&gt; &gt;::assure&lt;CreatureState&gt; (1,000,000 samples, 0.02%)</title><rect x="1051.0" y="149" width="0.2" height="15.0" fill="rgb(238,156,37)" rx="2" ry="2" />
<text  x="1054.04" y="159.5" ></text>
</g>
<g >
<title>Simulation::update (6,352,750,000 samples, 99.72%)</title><rect x="13.2" y="197" width="1176.7" height="15.0" fill="rgb(206,7,1)" rx="2" ry="2" />
<text  x="16.24" y="207.5" >Simulation::update</text>
</g>
<g >
<title>auto&amp; entt::basic_registry&lt;entt::entity, std::allocator&lt;entt::entity&gt; &gt;::assure&lt;Velocity&gt; (1,250,000 samples, 0.02%)</title><rect x="1051.2" y="149" width="0.3" height="15.0" fill="rgb(223,85,20)" rx="2" ry="2" />
<text  x="1054.22" y="159.5" ></text>
</g>
<g >
<title>QuadTree::divide_node (275,500,000 samples, 4.32%)</title><rect x="551.2" y="165" width="51.0" height="15.0" fill="rgb(225,94,22)" rx="2" ry="2" />
<text  x="554.17" y="175.5" >QuadT..</text>
</g>
<g >
<title>DeathSystem::update (1,500,000 samples, 0.02%)</title><rect x="54.2" y="181" width="0.3" height="15.0" fill="rgb(254,227,54)" rx="2" ry="2" />
<text  x="57.18" y="191.5" ></text>
</g>
<g >
<title>decltype (6,750,000 samples, 0.11%)</title><rect x="51.0" y="165" width="1.2" height="15.0" fill="rgb(220,73,17)" rx="2" ry="2" />
<text  x="53.98" y="175.5" ></text>
</g>
<g >
<title>operator new (1,750,000 samples, 0.03%)</title><rect x="516.3" y="165" width="0.3" height="15.0" fill="rgb(216,51,12)" rx="2" ry="2" />
<text  x="519.30" y="175.5" ></text>
</g>
<g >
<title>[libc.so.6] (6,750,000 samples, 0.11%)</title><rect x="464.7" y="133" width="1.3" height="15.0" fill="rgb(223,84,20)" rx="2" ry="2" />
<text  x="467.72" y="143.5" ></text>
</g>
<g >
<title>Brain::apply_weights (54,250,000 samples, 0.85%)</title><rect x="1055.6" y="149" width="10.0" height="15.0" fill="rgb(240,162,38)" rx="2" ry="2" />
<text  x="1058.58" y="159.5" ></text>
</g>
<g >
<title>QuadNode::intersects_circle (10,750,000 samples, 0.17%)</title><rect x="24.4" y="133" width="2.0" height="15.0" fill="rgb(231,121,29)" rx="2" ry="2" />
<text  x="27.40" y="143.5" ></text>
</g>
<g >
<title>__libc_start_main (6,369,250,000 samples, 99.98%)</title><rect x="10.3" y="245" width="1179.7" height="15.0" fill="rgb(236,142,34)" rx="2" ry="2" />
<text  x="13.28" y="255.5" >__libc_start_main</text>
</g>
<g >
<title>QuadTree::query_node (106,250,000 samples, 1.67%)</title><rect x="31.1" y="117" width="19.7" height="15.0" fill="rgb(232,126,30)" rx="2" ry="2" />
<text  x="34.12" y="127.5" ></text>
</g>
<g >
<title>QuadTree::insert (2,374,500,000 samples, 37.27%)</title><rect x="602.2" y="165" width="439.8" height="15.0" fill="rgb(208,16,3)" rx="2" ry="2" />
<text  x="605.20" y="175.5" >QuadTree::insert</text>
</g>
<g >
<title>malloc (16,250,000 samples, 0.26%)</title><rect x="467.1" y="133" width="3.0" height="15.0" fill="rgb(230,119,28)" rx="2" ry="2" />
<text  x="470.08" y="143.5" ></text>
</g>
<g >
<title>entt::internal::view_iterator&lt;entt::basic_sparse_set&lt;entt::entity, std::allocator&lt;entt::entity&gt; &gt;, false, 4ul, 0ul&gt;::seek_next (7,000,000 samples, 0.11%)</title><rect x="514.7" y="165" width="1.3" height="15.0" fill="rgb(224,90,21)" rx="2" ry="2" />
<text  x="517.68" y="175.5" ></text>
</g>
<g >
<title>entt::basic_sparse_set&lt;entt::entity, std::allocator&lt;entt::entity&gt; &gt;::try_emplace (2,000,000 samples, 0.03%)</title><rect x="66.6" y="165" width="0.4" height="15.0" fill="rgb(223,85,20)" rx="2" ry="2" />
<text  x="69.59" y="175.5" ></text>
</g>
<g >
<title>[libm.so.6] (30,500,000 samples, 0.48%)</title><rect x="1144.6" y="133" width="5.7" height="15.0" fill="rgb(208,16,4)" rx="2" ry="2" />
<text  x="1147.62" y="143.5" ></text>
</g>
<g >
<title>SensorSystem::update (2,394,500,000 samples, 37.59%)</title><rect x="73.3" y="181" width="443.5" height="15.0" fill="rgb(248,199,47)" rx="2" ry="2" />
<text  x="76.25" y="191.5" >SensorSystem::update</text>
</g>
<g >
<title>PlantSystem::update (5,750,000 samples, 0.09%)</title><rect x="67.4" y="181" width="1.0" height="15.0" fill="rgb(242,174,41)" rx="2" ry="2" />
<text  x="70.37" y="191.5" ></text>
</g>
<g >
<title>Node::update (1,000,000 samples, 0.02%)</title><rect x="1160.3" y="165" width="0.2" height="15.0" fill="rgb(241,166,39)" rx="2" ry="2" />
<text  x="1163.27" y="175.5" ></text>
</g>
<g >
<title>MetabolismSystem::update (9,500,000 samples, 0.15%)</title><rect x="61.4" y="181" width="1.8" height="15.0" fill="rgb(244,183,43)" rx="2" ry="2" />
<text  x="64.40" y="191.5" ></text>
</g>
<g >
<title>all (6,370,750,000 samples, 100%)</title><rect x="10.0" y="293" width="1180.0" height="15.0" fill="rgb(213,39,9)" rx="2" ry="2" />
<text  x="13.00" y="303.5" ></text>
</g>
<g >
<title>auto&amp; entt::basic_registry&lt;entt::entity, std::allocator&lt;entt::entity&gt; &gt;::assure&lt;OldPosition&gt; (1,000,000 samples, 0.02%)</title><rect x="1163.7" y="181" width="0.2" height="15.0" fill="rgb(230,119,28)" rx="2" ry="2" />
<text  x="1166.70" y="191.5" ></text>
</g>
<g >
<title>_start (6,369,250,000 samples, 99.98%)</title><rect x="10.3" y="261" width="1179.7" height="15.0" fill="rgb(245,185,44)" rx="2" ry="2" />
<text  x="13.28" y="271.5" >_start</text>
</g>
<g >
<title>siv::BasicPerlinNoise&lt;double&gt;::noise3D (10,750,000 samples, 0.17%)</title><rect x="11.3" y="165" width="1.9" height="15.0" fill="rgb(220,73,17)" rx="2" ry="2" />
<text  x="14.25" y="175.5" ></text>
</g>
<g >
<title>QuadTree::query_node (167,500,000 samples, 2.63%)</title><rect x="19.8" y="165" width="31.0" height="15.0" fill="rgb(232,126,30)" rx="2" ry="2" />
<text  x="22.77" y="175.5" >Qu..</text>
</g>
<g >
<title>QuadTree::collect_leaf (7,000,000 samples, 0.11%)</title><rect x="44.8" y="69" width="1.3" height="15.0" fill="rgb(236,142,34)" rx="2" ry="2" />
<text  x="47.82" y="79.5" ></text>
</g>
<g >
<title>OutputNode::populate_output (29,500,000 samples, 0.46%)</title><rect x="1045.5" y="149" width="5.5" height="15.0" fill="rgb(240,161,38)" rx="2" ry="2" />
<text  x="1048.53" y="159.5" ></text>
</g>
<g >
<title>auto&amp; entt::basic_registry&lt;entt::entity, std::allocator&lt;entt::entity&gt; &gt;::assure&lt;Age&gt; (3,000,000 samples, 0.05%)</title><rect x="1078.1" y="133" width="0.5" height="15.0" fill="rgb(207,11,2)" rx="2" ry="2" />
<text  x="1081.08" y="143.5" ></text>
</g>
<g >
<title>PlantFactory::spawn_random (5,500,000 samples, 0.09%)</title><rect x="67.4" y="165" width="1.0" height="15.0" fill="rgb(233,131,31)" rx="2" ry="2" />
<text  x="70.42" y="175.5" ></text>
</g>
<g >
<title>ReproductionSystem::update (1,500,000 samples, 0.02%)</title><rect x="73.0" y="181" width="0.3" height="15.0" fill="rgb(238,152,36)" rx="2" ry="2" />
<text  x="75.98" y="191.5" ></text>
</g>
<g >
<title>entt::internal::view_iterator&lt;entt::basic_sparse_set&lt;entt::entity, std::allocator&lt;entt::entity&gt; &gt;, false, 2ul, 0ul&gt;::seek_next (2,500,000 samples, 0.04%)</title><rect x="62.7" y="165" width="0.5" height="15.0" fill="rgb(237,149,35)" rx="2" ry="2" />
<text  x="65.70" y="175.5" ></text>
</g>
<g >
<title>[ld-linux-x86-64.so.2] (750,000 samples, 0.01%)</title><rect x="10.1" y="165" width="0.2" height="15.0" fill="rgb(243,178,42)" rx="2" ry="2" />
<text  x="13.14" y="175.5" ></text>
</g>
<g >
<title>CreatureFactory::spawn_child (750,000 samples, 0.01%)</title><rect x="73.1" y="165" width="0.2" height="15.0" fill="rgb(249,205,49)" rx="2" ry="2" />
<text  x="76.11" y="175.5" ></text>
</g>
<g >
<title>[ld-linux-x86-64.so.2] (750,000 samples, 0.01%)</title><rect x="10.0" y="181" width="0.1" height="15.0" fill="rgb(243,178,42)" rx="2" ry="2" />
<text  x="13.00" y="191.5" ></text>
</g>
<g >
<title>QuadTree::collect_leaf (1,750,000 samples, 0.03%)</title><rect x="39.9" y="85" width="0.3" height="15.0" fill="rgb(236,142,34)" rx="2" ry="2" />
<text  x="42.91" y="95.5" ></text>
</g>
<g >
<title>Brain::get_node (10,750,000 samples, 0.17%)</title><rect x="1056.8" y="133" width="2.0" height="15.0" fill="rgb(229,110,26)" rx="2" ry="2" />
<text  x="1059.83" y="143.5" ></text>
</g>
<g >
<title>InputNode::load_input (750,000 samples, 0.01%)</title><rect x="1160.1" y="165" width="0.2" height="15.0" fill="rgb(215,48,11)" rx="2" ry="2" />
<text  x="1163.13" y="175.5" ></text>
</g>
<g >
<title>auto&amp; entt::basic_registry&lt;entt::entity, std::allocator&lt;entt::entity&gt; &gt;::assure&lt;Velocity&gt; (3,250,000 samples, 0.05%)</title><rect x="1050.4" y="133" width="0.6" height="15.0" fill="rgb(223,85,20)" rx="2" ry="2" />
<text  x="1053.39" y="143.5" ></text>
</g>
<g >
<title>Simulation::initialize (15,000,000 samples, 0.24%)</title><rect x="10.5" y="197" width="2.7" height="15.0" fill="rgb(222,79,19)" rx="2" ry="2" />
<text  x="13.46" y="207.5" ></text>
</g>
<g >
<title>Node::update (225,750,000 samples, 3.54%)</title><rect x="1114.6" y="149" width="41.8" height="15.0" fill="rgb(241,166,39)" rx="2" ry="2" />
<text  x="1117.57" y="159.5" >Nod..</text>
</g>
<g >
<title>operator new (18,250,000 samples, 0.29%)</title><rect x="466.7" y="149" width="3.4" height="15.0" fill="rgb(216,51,12)" rx="2" ry="2" />
<text  x="469.71" y="159.5" ></text>
</g>
<g >
<title>QuadNode::intersects_circle (14,250,000 samples, 0.22%)</title><rect x="28.5" y="117" width="2.6" height="15.0" fill="rgb(231,121,29)" rx="2" ry="2" />
<text  x="31.48" y="127.5" ></text>
</g>
<g >
<title>entt::internal::view_iterator&lt;entt::basic_sparse_set&lt;entt::entity, std::allocator&lt;entt::entity&gt; &gt;, false, 2ul, 0ul&gt;::seek_next (2,250,000 samples, 0.04%)</title><rect x="67.0" y="165" width="0.4" height="15.0" fill="rgb(237,149,35)" rx="2" ry="2" />
<text  x="69.96" y="175.5" ></text>
</g>
<g >
<title>entt::basic_sparse_set&lt;entt::entity, std::allocator&lt;entt::entity&gt; &gt;::index (23,000,000 samples, 0.36%)</title><rect x="1104.1" y="149" width="4.3" height="15.0" fill="rgb(238,154,36)" rx="2" ry="2" />
<text  x="1107.10" y="159.5" ></text>
</g>
<g >
<title>Brain::clone (750,000 samples, 0.01%)</title><rect x="73.1" y="149" width="0.2" height="15.0" fill="rgb(218,62,15)" rx="2" ry="2" />
<text  x="76.11" y="159.5" ></text>
</g>
<g >
<title>auto&amp; entt::basic_registry&lt;entt::entity, std::allocator&lt;entt::entity&gt; &gt;::assure&lt;OldPosition&gt; (1,500,000 samples, 0.02%)</title><rect x="66.3" y="165" width="0.3" height="15.0" fill="rgb(230,119,28)" rx="2" ry="2" />
<text  x="69.31" y="175.5" ></text>
</g>
<g >
<title>Node::accept_input (9,000,000 samples, 0.14%)</title><rect x="1086.5" y="149" width="1.7" height="15.0" fill="rgb(232,127,30)" rx="2" ry="2" />
<text  x="1089.51" y="159.5" ></text>
</g>
<g >
<title>[ld-linux-x86-64.so.2] (1,500,000 samples, 0.02%)</title><rect x="10.0" y="229" width="0.3" height="15.0" fill="rgb(243,178,42)" rx="2" ry="2" />
<text  x="13.00" y="239.5" ></text>
</g>
<g >
<title>QuadTree::query_closest (2,156,250,000 samples, 33.85%)</title><rect x="75.2" y="165" width="399.4" height="15.0" fill="rgb(216,54,12)" rx="2" ry="2" />
<text  x="78.20" y="175.5" >QuadTree::query_closest</text>
</g>
<g >
<title>auto&amp; entt::basic_registry&lt;entt::entity, std::allocator&lt;entt::entity&gt; &gt;::assure&lt;CreatureEnergy&gt; (2,750,000 samples, 0.04%)</title><rect x="1079.5" y="133" width="0.5" height="15.0" fill="rgb(210,25,6)" rx="2" ry="2" />
<text  x="1082.52" y="143.5" ></text>
</g>
<g >
<title>PlantFactory::spawn_random (13,000,000 samples, 0.20%)</title><rect x="10.8" y="181" width="2.4" height="15.0" fill="rgb(233,131,31)" rx="2" ry="2" />
<text  x="13.83" y="191.5" ></text>
</g>
<g >
<title>decltype (2,250,000 samples, 0.04%)</title><rect x="1103.7" y="149" width="0.4" height="15.0" fill="rgb(220,73,17)" rx="2" ry="2" />
<text  x="1106.69" y="159.5" ></text>
</g>
<g >
<title>__atan2f_finite (750,000 samples, 0.01%)</title><rect x="501.1" y="149" width="0.2" height="15.0" fill="rgb(249,204,49)" rx="2" ry="2" />
<text  x="504.11" y="159.5" ></text>
</g>
<g >
<title>bool entt::internal::all_of&lt;entt::basic_sparse_set&lt;entt::entity, std::allocator&lt;entt::entity&gt; &gt; const* const*, entt::entity&gt; (139,500,000 samples, 2.19%)</title><rect x="1163.9" y="181" width="25.8" height="15.0" fill="rgb(208,14,3)" rx="2" ry="2" />
<text  x="1166.88" y="191.5" >b..</text>
</g>
<g >
<title>QuadTree::query_node (25,250,000 samples, 0.40%)</title><rect x="46.1" y="69" width="4.7" height="15.0" fill="rgb(232,126,30)" rx="2" ry="2" />
<text  x="49.12" y="79.5" ></text>
</g>
<g >
<title>std::_Deque_base&lt;int, std::allocator&lt;int&gt; &gt;::~_Deque_base (24,250,000 samples, 0.38%)</title><rect x="470.1" y="149" width="4.5" height="15.0" fill="rgb(242,171,40)" rx="2" ry="2" />
<text  x="473.09" y="159.5" ></text>
</g>
<g >
<title>QuadNode::intersects_circle (750,000 samples, 0.01%)</title><rect x="50.2" y="37" width="0.1" height="15.0" fill="rgb(231,121,29)" rx="2" ry="2" />
<text  x="53.19" y="47.5" ></text>
</g>
<g >
<title>QuadNode::intersects_circle (7,000,000 samples, 0.11%)</title><rect x="47.5" y="53" width="1.3" height="15.0" fill="rgb(231,121,29)" rx="2" ry="2" />
<text  x="50.51" y="63.5" ></text>
</g>
<g >
<title>Brain::populate_outputs (48,500,000 samples, 0.76%)</title><rect x="1045.4" y="165" width="9.0" height="15.0" fill="rgb(232,126,30)" rx="2" ry="2" />
<text  x="1048.43" y="175.5" ></text>
</g>
<g >
<title>SensorSystem::set_direction (213,500,000 samples, 3.35%)</title><rect x="474.6" y="165" width="39.5" height="15.0" fill="rgb(235,141,33)" rx="2" ry="2" />
<text  x="477.58" y="175.5" >Sen..</text>
</g>
<g >
<title>Brain::reset_next_values (3,250,000 samples, 0.05%)</title><rect x="1065.7" y="149" width="0.6" height="15.0" fill="rgb(249,205,49)" rx="2" ry="2" />
<text  x="1068.67" y="159.5" ></text>
</g>
<g >
<title>std::_Hashtable&lt;int, std::pair&lt;int const, std::pair&lt;NodeType, int&gt; &gt;, std::allocator&lt;std::pair&lt;int const, std::pair&lt;NodeType, int&gt; &gt; &gt;, std::__detail::_Select1st, std::equal_to&lt;int&gt;, std::hash&lt;int&gt;, std::__detail::_Mod_range_hashing, std::__detail::_Default_ranged_hash, std::__detail::_Prime_rehash_policy, std::__detail::_Hashtable_traits&lt;false, false, true&gt; &gt;::find (36,750,000 samples, 0.58%)</title><rect x="1058.8" y="133" width="6.8" height="15.0" fill="rgb(243,176,42)" rx="2" ry="2" />
<text  x="1061.82" y="143.5" ></text>
</g>
<g >
<title>decltype (29,250,000 samples, 0.46%)</title><rect x="1081.1" y="133" width="5.4" height="15.0" fill="rgb(220,73,17)" rx="2" ry="2" />
<text  x="1084.09" y="143.5" ></text>
</g>
<g >
<title>auto&amp; entt::basic_registry&lt;entt::entity, std::allocator&lt;entt::entity&gt; &gt;::assure&lt;Position&gt; (16,250,000 samples, 0.26%)</title><rect x="511.1" y="149" width="3.0" height="15.0" fill="rgb(234,137,32)" rx="2" ry="2" />
<text  x="514.12" y="159.5" ></text>
</g>
<g >
<title>[ld-linux-x86-64.so.2] (1,500,000 samples, 0.02%)</title><rect x="10.0" y="261" width="0.3" height="15.0" fill="rgb(243,178,42)" rx="2" ry="2" />
<text  x="13.00" y="271.5" ></text>
</g>
<g >
<title>operator delete (2,250,000 samples, 0.04%)</title><rect x="466.3" y="149" width="0.4" height="15.0" fill="rgb(247,196,46)" rx="2" ry="2" />
<text  x="469.29" y="159.5" ></text>
</g>
<g >
<title>main (6,369,000,000 samples, 99.97%)</title><rect x="10.3" y="213" width="1179.7" height="15.0" fill="rgb(243,179,42)" rx="2" ry="2" />
<text  x="13.32" y="223.5" >main</text>
</g>
<g >
<title>entt::internal::view_iterator&lt;entt::basic_sparse_set&lt;entt::entity, std::allocator&lt;entt::entity&gt; &gt;, false, 3ul, 0ul&gt;::seek_next (8,000,000 samples, 0.13%)</title><rect x="59.9" y="165" width="1.5" height="15.0" fill="rgb(231,120,28)" rx="2" ry="2" />
<text  x="62.92" y="175.5" ></text>
</g>
<g >
<title>QuadNode::intersects_circle (3,750,000 samples, 0.06%)</title><rect x="19.1" y="165" width="0.7" height="15.0" fill="rgb(231,121,29)" rx="2" ry="2" />
<text  x="22.08" y="175.5" ></text>
</g>
<g >
<title>[libm.so.6] (29,250,000 samples, 0.46%)</title><rect x="1098.1" y="149" width="5.4" height="15.0" fill="rgb(208,16,4)" rx="2" ry="2" />
<text  x="1101.13" y="159.5" ></text>
</g>
<g >
<title>[libm.so.6] (20,000,000 samples, 0.31%)</title><rect x="1156.4" y="149" width="3.7" height="15.0" fill="rgb(208,16,4)" rx="2" ry="2" />
<text  x="1159.38" y="159.5" ></text>
</g>
<g >
<title>[libc.so.6] (11,000,000 samples, 0.17%)</title><rect x="472.5" y="117" width="2.1" height="15.0" fill="rgb(223,84,20)" rx="2" ry="2" />
<text  x="475.54" y="127.5" ></text>
</g>
<g >
<title>atanf32 (38,250,000 samples, 0.60%)</title><rect x="504.0" y="133" width="7.1" height="15.0" fill="rgb(239,156,37)" rx="2" ry="2" />
<text  x="507.03" y="143.5" ></text>
</g>
<g >
<title>entt::basic_sparse_set&lt;entt::entity, std::allocator&lt;entt::entity&gt; &gt;::index (1,750,000 samples, 0.03%)</title><rect x="52.2" y="165" width="0.4" height="15.0" fill="rgb(238,154,36)" rx="2" ry="2" />
<text  x="55.23" y="175.5" ></text>
</g>
<g >
<title>_dl_catch_exception (750,000 samples, 0.01%)</title><rect x="10.1" y="181" width="0.2" height="15.0" fill="rgb(253,223,53)" rx="2" ry="2" />
<text  x="13.14" y="191.5" ></text>
</g>
<g >
<title>Fertility::random_location (1,500,000 samples, 0.02%)</title><rect x="10.9" y="165" width="0.3" height="15.0" fill="rgb(247,197,47)" rx="2" ry="2" />
<text  x="13.88" y="175.5" ></text>
</g>
<g >
<title>main (6,370,750,000 samples, 100.00%)</title><rect x="10.0" y="277" width="1180.0" height="15.0" fill="rgb(243,179,42)" rx="2" ry="2" />
<text  x="13.00" y="287.5" >main</text>
</g>
<g >
<title>MovementSystem::update (22,750,000 samples, 0.36%)</title><rect x="63.2" y="181" width="4.2" height="15.0" fill="rgb(248,198,47)" rx="2" ry="2" />
<text  x="66.16" y="191.5" ></text>
</g>
<g >
<title>siv::BasicPerlinNoise&lt;double&gt;::noise3D (1,000,000 samples, 0.02%)</title><rect x="10.6" y="165" width="0.2" height="15.0" fill="rgb(220,73,17)" rx="2" ry="2" />
<text  x="13.65" y="175.5" ></text>
</g>
<g >
<title>QuadTree::query_node (7,500,000 samples, 0.12%)</title><rect x="49.4" y="53" width="1.4" height="15.0" fill="rgb(232,126,30)" rx="2" ry="2" />
<text  x="52.41" y="63.5" ></text>
</g>
<g >
<title>[ld-linux-x86-64.so.2] (1,500,000 samples, 0.02%)</title><rect x="10.0" y="197" width="0.3" height="15.0" fill="rgb(243,178,42)" rx="2" ry="2" />
<text  x="13.00" y="207.5" ></text>
</g>
<g >
<title>QuadNode::intersects_circle (12,750,000 samples, 0.20%)</title><rect x="32.8" y="101" width="2.3" height="15.0" fill="rgb(231,121,29)" rx="2" ry="2" />
<text  x="35.78" y="111.5" ></text>
</g>
<g >
<title>entt::internal::view_iterator&lt;entt::basic_sparse_set&lt;entt::entity, std::allocator&lt;entt::entity&gt; &gt;, false, 3ul, 1ul&gt;::seek_next (8,750,000 samples, 0.14%)</title><rect x="52.6" y="165" width="1.6" height="15.0" fill="rgb(224,90,21)" rx="2" ry="2" />
<text  x="55.55" y="175.5" ></text>
</g>
<g >
<title>cfree (12,000,000 samples, 0.19%)</title><rect x="463.7" y="149" width="2.3" height="15.0" fill="rgb(223,86,20)" rx="2" ry="2" />
<text  x="466.75" y="159.5" ></text>
</g>
<g >
<title>auto&amp; entt::basic_registry&lt;entt::entity, std::allocator&lt;entt::entity&gt; &gt;::assure&lt;BrainTimer&gt; (1,500,000 samples, 0.02%)</title><rect x="1049.3" y="133" width="0.3" height="15.0" fill="rgb(252,220,52)" rx="2" ry="2" />
<text  x="1052.32" y="143.5" ></text>
</g>
<g >
<title>CreatureFactory::spawn_random (2,000,000 samples, 0.03%)</title><rect x="10.5" y="181" width="0.3" height="15.0" fill="rgb(242,171,41)" rx="2" ry="2" />
<text  x="13.46" y="191.5" ></text>
</g>
<g >
<title>entt::basic_storage&lt;OldPosition, entt::entity, std::allocator&lt;OldPosition&gt;, void&gt;::pop (7,750,000 samples, 0.12%)</title><rect x="1043.6" y="165" width="1.4" height="15.0" fill="rgb(205,1,0)" rx="2" ry="2" />
<text  x="1046.58" y="175.5" ></text>
</g>
<g >
<title>QuadTree::query_node (57,000,000 samples, 0.89%)</title><rect x="40.2" y="85" width="10.6" height="15.0" fill="rgb(232,126,30)" rx="2" ry="2" />
<text  x="43.24" y="95.5" ></text>
</g>
<g >
<title>QuadNode::intersects_circle (11,750,000 samples, 0.18%)</title><rect x="37.7" y="85" width="2.2" height="15.0" fill="rgb(231,121,29)" rx="2" ry="2" />
<text  x="40.74" y="95.5" ></text>
</g>
<g >
<title>QuadTree::insert (19,500,000 samples, 0.31%)</title><rect x="68.4" y="181" width="3.6" height="15.0" fill="rgb(208,16,3)" rx="2" ry="2" />
<text  x="71.44" y="191.5" ></text>
</g>
<g >
<title>expm1f32 (27,500,000 samples, 0.43%)</title><rect x="1150.3" y="133" width="5.1" height="15.0" fill="rgb(230,116,27)" rx="2" ry="2" />
<text  x="1153.27" y="143.5" ></text>
</g>
<g >
<title>[libc.so.6] (750,000 samples, 0.01%)</title><rect x="470.8" y="133" width="0.1" height="15.0" fill="rgb(223,84,20)" rx="2" ry="2" />
<text  x="473.78" y="143.5" ></text>
</g>
<g >
<title>[ld-linux-x86-64.so.2] (750,000 samples, 0.01%)</title><rect x="10.1" y="149" width="0.2" height="15.0" fill="rgb(243,178,42)" rx="2" ry="2" />
<text  x="13.14" y="159.5" ></text>
</g>
<g >
<title>QuadNode::intersects_circle (14,500,000 samples, 0.23%)</title><rect x="42.1" y="69" width="2.7" height="15.0" fill="rgb(231,121,29)" rx="2" ry="2" />
<text  x="45.14" y="79.5" ></text>
</g>
<g >
<title>Node::activate (27,500,000 samples, 0.43%)</title><rect x="1109.5" y="149" width="5.1" height="15.0" fill="rgb(210,24,5)" rx="2" ry="2" />
<text  x="1112.47" y="159.5" ></text>
</g>
<g >
<title>entt::internal::view_iterator&lt;entt::basic_sparse_set&lt;entt::entity, std::allocator&lt;entt::entity&gt; &gt;, false, 3ul, 0ul&gt;::seek_next (4,500,000 samples, 0.07%)</title><rect x="55.7" y="165" width="0.8" height="15.0" fill="rgb(231,120,28)" rx="2" ry="2" />
<text  x="58.66" y="175.5" ></text>
</g>
<g >
<title>std::_Deque_base&lt;int, std::allocator&lt;int&gt; &gt;::~_Deque_base (750,000 samples, 0.01%)</title><rect x="516.6" y="165" width="0.2" height="15.0" fill="rgb(242,171,40)" rx="2" ry="2" />
<text  x="519.63" y="175.5" ></text>
</g>
<g >
<title>entt::basic_sparse_set&lt;entt::entity, std::allocator&lt;entt::entity&gt; &gt;::index (16,000,000 samples, 0.25%)</title><rect x="1051.5" y="149" width="2.9" height="15.0" fill="rgb(238,154,36)" rx="2" ry="2" />
<text  x="1054.45" y="159.5" ></text>
</g>
<g >
<title>QuadNode::intersects_circle (8,250,000 samples, 0.13%)</title><rect x="20.6" y="149" width="1.5" height="15.0" fill="rgb(231,121,29)" rx="2" ry="2" />
<text  x="23.56" y="159.5" ></text>
</g>
<g >
<title>InputNode::load_input (109,250,000 samples, 1.71%)</title><rect x="1066.3" y="149" width="20.2" height="15.0" fill="rgb(215,48,11)" rx="2" ry="2" />
<text  x="1069.27" y="159.5" ></text>
</g>
<g >
<title>[libc.so.6] (6,369,250,000 samples, 99.98%)</title><rect x="10.3" y="229" width="1179.7" height="15.0" fill="rgb(223,84,20)" rx="2" ry="2" />
<text  x="13.28" y="239.5" >[libc.so.6]</text>
</g>
<g >
<title>QuadTree::collect_leaf (1,250,000 samples, 0.02%)</title><rect x="35.1" y="101" width="0.3" height="15.0" fill="rgb(236,142,34)" rx="2" ry="2" />
<text  x="38.14" y="111.5" ></text>
</g>
<g >
<title>siv::BasicPerlinNoise&lt;double&gt;::noise3D (5,250,000 samples, 0.08%)</title><rect x="67.5" y="149" width="0.9" height="15.0" fill="rgb(220,73,17)" rx="2" ry="2" />
<text  x="70.46" y="159.5" ></text>
</g>
<g >
<title>QuadTree::query_node (155,000,000 samples, 2.43%)</title><rect x="22.1" y="149" width="28.7" height="15.0" fill="rgb(232,126,30)" rx="2" ry="2" />
<text  x="25.09" y="159.5" >Qu..</text>
</g>
<g >
<title>entt::basic_sigh_mixin&lt;entt::basic_storage&lt;OldPosition, entt::entity, std::allocator&lt;OldPosition&gt;, void&gt;, entt::basic_registry&lt;entt::entity, std::allocator&lt;entt::entity&gt; &gt; &gt;::pop (1,250,000 samples, 0.02%)</title><rect x="1042.6" y="165" width="0.2" height="15.0" fill="rgb(233,129,30)" rx="2" ry="2" />
<text  x="1045.61" y="175.5" ></text>
</g>
<g >
<title>DigestionSystem::update (11,000,000 samples, 0.17%)</title><rect x="54.5" y="181" width="2.0" height="15.0" fill="rgb(210,24,5)" rx="2" ry="2" />
<text  x="57.45" y="191.5" ></text>
</g>
<g >
<title>QuadTree::collect_leaf (3,250,000 samples, 0.05%)</title><rect x="48.8" y="53" width="0.6" height="15.0" fill="rgb(236,142,34)" rx="2" ry="2" />
<text  x="51.80" y="63.5" ></text>
</g>
<g >
<title>malloc@plt (1,000,000 samples, 0.02%)</title><rect x="466.1" y="149" width="0.2" height="15.0" fill="rgb(246,192,46)" rx="2" ry="2" />
<text  x="469.11" y="159.5" ></text>
</g>
<g >
<title>tanhf32 (5,000,000 samples, 0.08%)</title><rect x="1155.5" y="133" width="0.9" height="15.0" fill="rgb(243,178,42)" rx="2" ry="2" />
<text  x="1158.46" y="143.5" ></text>
</g>
<g >
<title>Brain::think (291,500,000 samples, 4.58%)</title><rect x="1054.4" y="165" width="54.0" height="15.0" fill="rgb(234,136,32)" rx="2" ry="2" />
<text  x="1057.42" y="175.5" >Brain..</text>
</g>
<g >
<title>Random::float_range (750,000 samples, 0.01%)</title><rect x="11.0" y="149" width="0.2" height="15.0" fill="rgb(225,93,22)" rx="2" ry="2" />
<text  x="14.02" y="159.5" ></text>
</g>
<g >
<title>CollisionSystem::update (220,750,000 samples, 3.47%)</title><rect x="13.3" y="181" width="40.9" height="15.0" fill="rgb(221,76,18)" rx="2" ry="2" />
<text  x="16.29" y="191.5" >Col..</text>
</g>
<g >
<title>SpatialIndexSystem::update (2,852,000,000 samples, 44.77%)</title><rect x="516.8" y="181" width="528.2" height="15.0" fill="rgb(249,206,49)" rx="2" ry="2" />
<text  x="519.77" y="191.5" >SpatialIndexSystem::update</text>
</g>
<g >
<title>operator delete (1,750,000 samples, 0.03%)</title><rect x="516.0" y="165" width="0.3" height="15.0" fill="rgb(247,196,46)" rx="2" ry="2" />
<text  x="518.98" y="175.5" ></text>
</g>
<g >
<title>[libm.so.6] (15,250,000 samples, 0.24%)</title><rect x="1160.8" y="181" width="2.9" height="15.0" fill="rgb(208,16,4)" rx="2" ry="2" />
<text  x="1163.83" y="191.5" ></text>
</g>
<g >
<title>QuadTree::update_bounds (4,000,000 samples, 0.06%)</title><rect x="72.2" y="181" width="0.8" height="15.0" fill="rgb(205,3,0)" rx="2" ry="2" />
<text  x="75.23" y="191.5" ></text>
</g>
<g >
<title>ThinkingSystem::update (625,250,000 samples, 9.81%)</title><rect x="1045.0" y="181" width="115.8" height="15.0" fill="rgb(245,184,44)" rx="2" ry="2" />
<text  x="1048.02" y="191.5" >ThinkingSystem..</text>
</g>
<g >
<title>[ld-linux-x86-64.so.2] (1,500,000 samples, 0.02%)</title><rect x="10.0" y="245" width="0.3" height="15.0" fill="rgb(243,178,42)" rx="2" ry="2" />
<text  x="13.00" y="255.5" ></text>
</g>
<g >
<title>__atan2f_finite (10,000,000 samples, 0.16%)</title><rect x="502.2" y="133" width="1.8" height="15.0" fill="rgb(249,204,49)" rx="2" ry="2" />
<text  x="505.18" y="143.5" ></text>
</g>
<g >
<title>auto&amp; entt::basic_registry&lt;entt::entity, std::allocator&lt;entt::entity&gt; &gt;::assure&lt;ChildEnergy&gt; (1,000,000 samples, 0.02%)</title><rect x="1079.3" y="133" width="0.2" height="15.0" fill="rgb(226,98,23)" rx="2" ry="2" />
<text  x="1082.33" y="143.5" ></text>
</g>
</g>
</svg>
