<?xml version="1.0" standalone="no"?>
<!DOCTYPE svg PUBLIC "-//W3C//DTD SVG 1.1//EN" "http://www.w3.org/Graphics/SVG/1.1/DTD/svg11.dtd">
<svg version="1.1" width="1200" height="342" onload="init(evt)" viewBox="0 0 1200 342" xmlns="http://www.w3.org/2000/svg" xmlns:xlink="http://www.w3.org/1999/xlink">
<!-- Flame graph stack visualization. See https://github.com/brendangregg/FlameGraph for latest version, and http://www.brendangregg.com/flamegraphs.html for examples. -->
<!-- NOTES:  -->
<defs>
	<linearGradient id="background" y1="0" y2="1" x1="0" x2="0" >
		<stop stop-color="#eeeeee" offset="5%" />
		<stop stop-color="#eeeeb0" offset="95%" />
	</linearGradient>
</defs>
<style type="text/css">
	text { font-family:Verdana; font-size:12px; fill:rgb(0,0,0); }
	#search, #ignorecase { opacity:0.1; cursor:pointer; }
	#search:hover, #search.show, #ignorecase:hover, #ignorecase.show { opacity:1; }
	#subtitle { text-anchor:middle; font-color:rgb(160,160,160); }
	#title { text-anchor:middle; font-size:17px}
	#unzoom { cursor:pointer; }
	#frames > *:hover { stroke:black; stroke-width:0.5; cursor:pointer; }
	.hide { display:none; }
	.parent { opacity:0.5; }
</style>
<script type="text/ecmascript">
<![CDATA[
	"use strict";
	var details, searchbtn, unzoombtn, matchedtxt, svg, searching, currentSearchTerm, ignorecase, ignorecaseBtn;
	function init(evt) {
		details = document.getElementById("details").firstChild;
		searchbtn = document.getElementById("search");
		ignorecaseBtn = document.getElementById("ignorecase");
		unzoombtn = document.getElementById("unzoom");
		matchedtxt = document.getElementById("matched");
		svg = document.getElementsByTagName("svg")[0];
		searching = 0;
		currentSearchTerm = null;

		// use GET parameters to restore a flamegraphs state.
		var params = get_params();
		if (params.x && params.y)
			zoom(find_group(document.querySelector('[x="' + params.x + '"][y="' + params.y + '"]')));
                if (params.s) search(params.s);
	}

	// event listeners
	window.addEventListener("click", function(e) {
		var target = find_group(e.target);
		if (target) {
			if (target.nodeName == "a") {
				if (e.ctrlKey === false) return;
				e.preventDefault();
			}
			if (target.classList.contains("parent")) unzoom(true);
			zoom(target);
			if (!document.querySelector('.parent')) {
				// we have basically done a clearzoom so clear the url
				var params = get_params();
				if (params.x) delete params.x;
				if (params.y) delete params.y;
				history.replaceState(null, null, parse_params(params));
				unzoombtn.classList.add("hide");
				return;
			}

			// set parameters for zoom state
			var el = target.querySelector("rect");
			if (el && el.attributes && el.attributes.y && el.attributes._orig_x) {
				var params = get_params()
				params.x = el.attributes._orig_x.value;
				params.y = el.attributes.y.value;
				history.replaceState(null, null, parse_params(params));
			}
		}
		else if (e.target.id == "unzoom") clearzoom();
		else if (e.target.id == "search") search_prompt();
		else if (e.target.id == "ignorecase") toggle_ignorecase();
	}, false)

	// mouse-over for info
	// show
	window.addEventListener("mouseover", function(e) {
		var target = find_group(e.target);
		if (target) details.nodeValue = "Function: " + g_to_text(target);
	}, false)

	// clear
	window.addEventListener("mouseout", function(e) {
		var target = find_group(e.target);
		if (target) details.nodeValue = ' ';
	}, false)

	// ctrl-F for search
	// ctrl-I to toggle case-sensitive search
	window.addEventListener("keydown",function (e) {
		if (e.keyCode === 114 || (e.ctrlKey && e.keyCode === 70)) {
			e.preventDefault();
			search_prompt();
		}
		else if (e.ctrlKey && e.keyCode === 73) {
			e.preventDefault();
			toggle_ignorecase();
		}
	}, false)

	// functions
	function get_params() {
		var params = {};
		var paramsarr = window.location.search.substr(1).split('&');
		for (var i = 0; i < paramsarr.length; ++i) {
			var tmp = paramsarr[i].split("=");
			if (!tmp[0] || !tmp[1]) continue;
			params[tmp[0]]  = decodeURIComponent(tmp[1]);
		}
		return params;
	}
	function parse_params(params) {
		var uri = "?";
		for (var key in params) {
			uri += key + '=' + encodeURIComponent(params[key]) + '&';
		}
		if (uri.slice(-1) == "&")
			uri = uri.substring(0, uri.length - 1);
		if (uri == '?')
			uri = window.location.href.split('?')[0];
		return uri;
	}
	function find_child(node, selector) {
		var children = node.querySelectorAll(selector);
		if (children.length) return children[0];
	}
	function find_group(node) {
		var parent = node.parentElement;
		if (!parent) return;
		if (parent.id == "frames") return node;
		return find_group(parent);
	}
	function orig_save(e, attr, val) {
		if (e.attributes["_orig_" + attr] != undefined) return;
		if (e.attributes[attr] == undefined) return;
		if (val == undefined) val = e.attributes[attr].value;
		e.setAttribute("_orig_" + attr, val);
	}
	function orig_load(e, attr) {
		if (e.attributes["_orig_"+attr] == undefined) return;
		e.attributes[attr].value = e.attributes["_orig_" + attr].value;
		e.removeAttribute("_orig_"+attr);
	}
	function g_to_text(e) {
		var text = find_child(e, "title").firstChild.nodeValue;
		return (text)
	}
	function g_to_func(e) {
		var func = g_to_text(e);
		// if there's any manipulation we want to do to the function
		// name before it's searched, do it here before returning.
		return (func);
	}
	function update_text(e) {
		var r = find_child(e, "rect");
		var t = find_child(e, "text");
		var w = parseFloat(r.attributes.width.value) -3;
		var txt = find_child(e, "title").textContent.replace(/\([^(]*\)$/,"");
		t.attributes.x.value = parseFloat(r.attributes.x.value) + 3;

		// Smaller than this size won't fit anything
		if (w < 2 * 12 * 0.59) {
			t.textContent = "";
			return;
		}

		t.textContent = txt;
		var sl = t.getSubStringLength(0, txt.length);
		// check if only whitespace or if we can fit the entire string into width w
		if (/^ *$/.test(txt) || sl < w)
			return;

		// this isn't perfect, but gives a good starting point
		// and avoids calling getSubStringLength too often
		var start = Math.floor((w/sl) * txt.length);
		for (var x = start; x > 0; x = x-2) {
			if (t.getSubStringLength(0, x + 2) <= w) {
				t.textContent = txt.substring(0, x) + "..";
				return;
			}
		}
		t.textContent = "";
	}

	// zoom
	function zoom_reset(e) {
		if (e.attributes != undefined) {
			orig_load(e, "x");
			orig_load(e, "width");
		}
		if (e.childNodes == undefined) return;
		for (var i = 0, c = e.childNodes; i < c.length; i++) {
			zoom_reset(c[i]);
		}
	}
	function zoom_child(e, x, ratio) {
		if (e.attributes != undefined) {
			if (e.attributes.x != undefined) {
				orig_save(e, "x");
				e.attributes.x.value = (parseFloat(e.attributes.x.value) - x - 10) * ratio + 10;
				if (e.tagName == "text")
					e.attributes.x.value = find_child(e.parentNode, "rect[x]").attributes.x.value + 3;
			}
			if (e.attributes.width != undefined) {
				orig_save(e, "width");
				e.attributes.width.value = parseFloat(e.attributes.width.value) * ratio;
			}
		}

		if (e.childNodes == undefined) return;
		for (var i = 0, c = e.childNodes; i < c.length; i++) {
			zoom_child(c[i], x - 10, ratio);
		}
	}
	function zoom_parent(e) {
		if (e.attributes) {
			if (e.attributes.x != undefined) {
				orig_save(e, "x");
				e.attributes.x.value = 10;
			}
			if (e.attributes.width != undefined) {
				orig_save(e, "width");
				e.attributes.width.value = parseInt(svg.width.baseVal.value) - (10 * 2);
			}
		}
		if (e.childNodes == undefined) return;
		for (var i = 0, c = e.childNodes; i < c.length; i++) {
			zoom_parent(c[i]);
		}
	}
	function zoom(node) {
		var attr = find_child(node, "rect").attributes;
		var width = parseFloat(attr.width.value);
		var xmin = parseFloat(attr.x.value);
		var xmax = parseFloat(xmin + width);
		var ymin = parseFloat(attr.y.value);
		var ratio = (svg.width.baseVal.value - 2 * 10) / width;

		// XXX: Workaround for JavaScript float issues (fix me)
		var fudge = 0.0001;

		unzoombtn.classList.remove("hide");

		var el = document.getElementById("frames").children;
		for (var i = 0; i < el.length; i++) {
			var e = el[i];
			var a = find_child(e, "rect").attributes;
			var ex = parseFloat(a.x.value);
			var ew = parseFloat(a.width.value);
			var upstack;
			// Is it an ancestor
			if (0 == 0) {
				upstack = parseFloat(a.y.value) > ymin;
			} else {
				upstack = parseFloat(a.y.value) < ymin;
			}
			if (upstack) {
				// Direct ancestor
				if (ex <= xmin && (ex+ew+fudge) >= xmax) {
					e.classList.add("parent");
					zoom_parent(e);
					update_text(e);
				}
				// not in current path
				else
					e.classList.add("hide");
			}
			// Children maybe
			else {
				// no common path
				if (ex < xmin || ex + fudge >= xmax) {
					e.classList.add("hide");
				}
				else {
					zoom_child(e, xmin, ratio);
					update_text(e);
				}
			}
		}
		search();
	}
	function unzoom(dont_update_text) {
		unzoombtn.classList.add("hide");
		var el = document.getElementById("frames").children;
		for(var i = 0; i < el.length; i++) {
			el[i].classList.remove("parent");
			el[i].classList.remove("hide");
			zoom_reset(el[i]);
			if(!dont_update_text) update_text(el[i]);
		}
		search();
	}
	function clearzoom() {
		unzoom();

		// remove zoom state
		var params = get_params();
		if (params.x) delete params.x;
		if (params.y) delete params.y;
		history.replaceState(null, null, parse_params(params));
	}

	// search
	function toggle_ignorecase() {
		ignorecase = !ignorecase;
		if (ignorecase) {
			ignorecaseBtn.classList.add("show");
		} else {
			ignorecaseBtn.classList.remove("show");
		}
		reset_search();
		search();
	}
	function reset_search() {
		var el = document.querySelectorAll("#frames rect");
		for (var i = 0; i < el.length; i++) {
			orig_load(el[i], "fill")
		}
		var params = get_params();
		delete params.s;
		history.replaceState(null, null, parse_params(params));
	}
	function search_prompt() {
		if (!searching) {
			var term = prompt("Enter a search term (regexp " +
			    "allowed, eg: ^ext4_)"
			    + (ignorecase ? ", ignoring case" : "")
			    + "\nPress Ctrl-i to toggle case sensitivity", "");
			if (term != null) search(term);
		} else {
			reset_search();
			searching = 0;
			currentSearchTerm = null;
			searchbtn.classList.remove("show");
			searchbtn.firstChild.nodeValue = "Search"
			matchedtxt.classList.add("hide");
			matchedtxt.firstChild.nodeValue = ""
		}
	}
	function search(term) {
		if (term) currentSearchTerm = term;
		if (currentSearchTerm === null) return;

		var re = new RegExp(currentSearchTerm, ignorecase ? 'i' : '');
		var el = document.getElementById("frames").children;
		var matches = new Object();
		var maxwidth = 0;
		for (var i = 0; i < el.length; i++) {
			var e = el[i];
			var func = g_to_func(e);
			var rect = find_child(e, "rect");
			if (func == null || rect == null)
				continue;

			// Save max width. Only works as we have a root frame
			var w = parseFloat(rect.attributes.width.value);
			if (w > maxwidth)
				maxwidth = w;

			if (func.match(re)) {
				// highlight
				var x = parseFloat(rect.attributes.x.value);
				orig_save(rect, "fill");
				rect.attributes.fill.value = "rgb(230,0,230)";

				// remember matches
				if (matches[x] == undefined) {
					matches[x] = w;
				} else {
					if (w > matches[x]) {
						// overwrite with parent
						matches[x] = w;
					}
				}
				searching = 1;
			}
		}
		if (!searching)
			return;
		var params = get_params();
		params.s = currentSearchTerm;
		history.replaceState(null, null, parse_params(params));

		searchbtn.classList.add("show");
		searchbtn.firstChild.nodeValue = "Reset Search";

		// calculate percent matched, excluding vertical overlap
		var count = 0;
		var lastx = -1;
		var lastw = 0;
		var keys = Array();
		for (k in matches) {
			if (matches.hasOwnProperty(k))
				keys.push(k);
		}
		// sort the matched frames by their x location
		// ascending, then width descending
		keys.sort(function(a, b){
			return a - b;
		});
		// Step through frames saving only the biggest bottom-up frames
		// thanks to the sort order. This relies on the tree property
		// where children are always smaller than their parents.
		var fudge = 0.0001;	// JavaScript floating point
		for (var k in keys) {
			var x = parseFloat(keys[k]);
			var w = matches[keys[k]];
			if (x >= lastx + lastw - fudge) {
				count += w;
				lastx = x;
				lastw = w;
			}
		}
		// display matched percent
		matchedtxt.classList.remove("hide");
		var pct = 100 * count / maxwidth;
		if (pct != 100) pct = pct.toFixed(1)
		matchedtxt.firstChild.nodeValue = "Matched: " + pct + "%";
	}
]]>
</script>
<rect x="0.0" y="0" width="1200.0" height="342.0" fill="url(#background)"  />
<text id="title" x="600.00" y="24" >Flame Graph</text>
<text id="details" x="10.00" y="325" > </text>
<text id="unzoom" x="10.00" y="24" class="hide">Reset Zoom</text>
<text id="search" x="1090.00" y="24" >Search</text>
<text id="ignorecase" x="1174.00" y="24" >ic</text>
<text id="matched" x="1090.00" y="325" > </text>
<g id="frames">
<g >
<title>auto&amp; entt::basic_registry&lt;entt::entity, std::allocator&lt;entt::entity&gt; &gt;::assure&lt;Position&gt; (11,250,000 samples, 0.18%)</title><rect x="516.0" y="149" width="2.1" height="15.0" fill="rgb(234,137,32)" rx="2" ry="2" />
<text  x="519.02" y="159.5" ></text>
</g>
<g >
<title>Node::reset_next_value (55,500,000 samples, 0.88%)</title><rect x="1095.1" y="149" width="10.4" height="15.0" fill="rgb(251,214,51)" rx="2" ry="2" />
<text  x="1098.11" y="159.5" ></text>
</g>
<g >
<title>[libc.so.6] (750,000 samples, 0.01%)</title><rect x="477.2" y="133" width="0.1" height="15.0" fill="rgb(223,84,20)" rx="2" ry="2" />
<text  x="480.18" y="143.5" ></text>
</g>
<g >
<title>Random::float_range (1,250,000 samples, 0.02%)</title><rect x="11.3" y="149" width="0.2" height="15.0" fill="rgb(225,93,22)" rx="2" ry="2" />
<text  x="14.26" y="159.5" ></text>
</g>
<g >
<title>QuadNode::intersects_circle (6,500,000 samples, 0.10%)</title><rect x="48.9" y="53" width="1.2" height="15.0" fill="rgb(231,121,29)" rx="2" ry="2" />
<text  x="51.94" y="63.5" ></text>
</g>
<g >
<title>SensorSystem::update (2,389,000,000 samples, 37.76%)</title><rect x="75.3" y="181" width="445.6" height="15.0" fill="rgb(248,199,47)" rx="2" ry="2" />
<text  x="78.28" y="191.5" >SensorSystem::update</text>
</g>
<g >
<title>OutputNode::populate_output (30,750,000 samples, 0.49%)</title><rect x="1048.1" y="149" width="5.7" height="15.0" fill="rgb(240,161,38)" rx="2" ry="2" />
<text  x="1051.06" y="159.5" ></text>
</g>
<g >
<title>malloc (14,250,000 samples, 0.23%)</title><rect x="473.7" y="133" width="2.6" height="15.0" fill="rgb(230,119,28)" rx="2" ry="2" />
<text  x="476.68" y="143.5" ></text>
</g>
<g >
<title>auto&amp; entt::basic_registry&lt;entt::entity, std::allocator&lt;entt::entity&gt; &gt;::assure&lt;VisionSensors&gt; (11,250,000 samples, 0.18%)</title><rect x="1091.4" y="117" width="2.1" height="15.0" fill="rgb(224,87,20)" rx="2" ry="2" />
<text  x="1094.38" y="127.5" ></text>
</g>
<g >
<title>SpatialIndexSystem::update (2,823,250,000 samples, 44.63%)</title><rect x="520.9" y="181" width="526.6" height="15.0" fill="rgb(249,206,49)" rx="2" ry="2" />
<text  x="523.87" y="191.5" >SpatialIndexSystem::update</text>
</g>
<g >
<title>entt::basic_sparse_set&lt;entt::entity, std::allocator&lt;entt::entity&gt; &gt;::swap_and_pop (2,750,000 samples, 0.04%)</title><rect x="1045.8" y="165" width="0.5" height="15.0" fill="rgb(214,44,10)" rx="2" ry="2" />
<text  x="1048.82" y="175.5" ></text>
</g>
<g >
<title>QuadNode::intersects_circle (1,000,000 samples, 0.02%)</title><rect x="51.5" y="37" width="0.1" height="15.0" fill="rgb(231,121,29)" rx="2" ry="2" />
<text  x="54.45" y="47.5" ></text>
</g>
<g >
<title>__atan2f_finite (6,750,000 samples, 0.11%)</title><rect x="505.9" y="133" width="1.2" height="15.0" fill="rgb(249,204,49)" rx="2" ry="2" />
<text  x="508.86" y="143.5" ></text>
</g>
<g >
<title>operator delete (2,250,000 samples, 0.04%)</title><rect x="519.9" y="165" width="0.5" height="15.0" fill="rgb(247,196,46)" rx="2" ry="2" />
<text  x="522.94" y="175.5" ></text>
</g>
<g >
<title>atan2f32 (1,250,000 samples, 0.02%)</title><rect x="518.1" y="165" width="0.3" height="15.0" fill="rgb(216,50,12)" rx="2" ry="2" />
<text  x="521.12" y="175.5" ></text>
</g>
<g >
<title>QuadTree::query_node (750,000 samples, 0.01%)</title><rect x="51.8" y="37" width="0.1" height="15.0" fill="rgb(232,126,30)" rx="2" ry="2" />
<text  x="54.78" y="47.5" ></text>
</g>
<g >
<title>entt::basic_sparse_set&lt;entt::entity, std::allocator&lt;entt::entity&gt; &gt;::index (16,250,000 samples, 0.26%)</title><rect x="1109.8" y="149" width="3.0" height="15.0" fill="rgb(238,154,36)" rx="2" ry="2" />
<text  x="1112.75" y="159.5" ></text>
</g>
<g >
<title>[ld-linux-x86-64.so.2] (1,500,000 samples, 0.02%)</title><rect x="10.0" y="213" width="0.3" height="15.0" fill="rgb(243,178,42)" rx="2" ry="2" />
<text  x="13.00" y="223.5" ></text>
</g>
<g >
<title>auto&amp; entt::basic_registry&lt;entt::entity, std::allocator&lt;entt::entity&gt; &gt;::assure&lt;BrainTimer&gt; (1,750,000 samples, 0.03%)</title><rect x="1051.4" y="133" width="0.3" height="15.0" fill="rgb(252,220,52)" rx="2" ry="2" />
<text  x="1054.37" y="143.5" ></text>
</g>
<g >
<title>cfree (20,000,000 samples, 0.32%)</title><rect x="477.3" y="133" width="3.7" height="15.0" fill="rgb(223,86,20)" rx="2" ry="2" />
<text  x="480.32" y="143.5" ></text>
</g>
<g >
<title>[ld-linux-x86-64.so.2] (1,500,000 samples, 0.02%)</title><rect x="10.0" y="229" width="0.3" height="15.0" fill="rgb(243,178,42)" rx="2" ry="2" />
<text  x="13.00" y="239.5" ></text>
</g>
<g >
<title>siv::BasicPerlinNoise&lt;double&gt;::noise3D (9,000,000 samples, 0.14%)</title><rect x="11.6" y="165" width="1.7" height="15.0" fill="rgb(220,73,17)" rx="2" ry="2" />
<text  x="14.59" y="175.5" ></text>
</g>
<g >
<title>Node::accept_input (8,750,000 samples, 0.14%)</title><rect x="1093.5" y="149" width="1.6" height="15.0" fill="rgb(232,127,30)" rx="2" ry="2" />
<text  x="1096.48" y="159.5" ></text>
</g>
<g >
<title>QuadTree::query_node (85,750,000 samples, 1.36%)</title><rect x="35.9" y="101" width="16.0" height="15.0" fill="rgb(232,126,30)" rx="2" ry="2" />
<text  x="38.93" y="111.5" ></text>
</g>
<g >
<title>Simulation::update (6,308,500,000 samples, 99.72%)</title><rect x="13.3" y="197" width="1176.6" height="15.0" fill="rgb(206,7,1)" rx="2" ry="2" />
<text  x="16.26" y="207.5" >Simulation::update</text>
</g>
<g >
<title>main (6,326,500,000 samples, 100.00%)</title><rect x="10.0" y="277" width="1180.0" height="15.0" fill="rgb(243,179,42)" rx="2" ry="2" />
<text  x="13.00" y="287.5" >main</text>
</g>
<g >
<title>__libc_start_main (6,325,000,000 samples, 99.98%)</title><rect x="10.3" y="245" width="1179.7" height="15.0" fill="rgb(236,142,34)" rx="2" ry="2" />
<text  x="13.28" y="255.5" >__libc_start_main</text>
</g>
<g >
<title>entt::basic_sigh_mixin&lt;entt::basic_storage&lt;OldPosition, entt::entity, std::allocator&lt;OldPosition&gt;, void&gt;, entt::basic_registry&lt;entt::entity, std::allocator&lt;entt::entity&gt; &gt; &gt;::pop (1,500,000 samples, 0.02%)</title><rect x="1045.5" y="165" width="0.3" height="15.0" fill="rgb(233,129,30)" rx="2" ry="2" />
<text  x="1048.54" y="175.5" ></text>
</g>
<g >
<title>PlantSystem::update (7,000,000 samples, 0.11%)</title><rect x="68.5" y="181" width="1.3" height="15.0" fill="rgb(242,174,41)" rx="2" ry="2" />
<text  x="71.47" y="191.5" ></text>
</g>
<g >
<title>operator delete (3,000,000 samples, 0.05%)</title><rect x="472.7" y="149" width="0.6" height="15.0" fill="rgb(247,196,46)" rx="2" ry="2" />
<text  x="475.70" y="159.5" ></text>
</g>
<g >
<title>entt::basic_sparse_set&lt;entt::entity, std::allocator&lt;entt::entity&gt; &gt;::index (17,000,000 samples, 0.27%)</title><rect x="1054.0" y="149" width="3.2" height="15.0" fill="rgb(238,154,36)" rx="2" ry="2" />
<text  x="1056.98" y="159.5" ></text>
</g>
<g >
<title>main (6,325,000,000 samples, 99.98%)</title><rect x="10.3" y="213" width="1179.7" height="15.0" fill="rgb(243,179,42)" rx="2" ry="2" />
<text  x="13.28" y="223.5" >main</text>
</g>
<g >
<title>Fertility::random_location (1,500,000 samples, 0.02%)</title><rect x="68.5" y="149" width="0.3" height="15.0" fill="rgb(247,197,47)" rx="2" ry="2" />
<text  x="71.47" y="159.5" ></text>
</g>
<g >
<title>std::_Deque_base&lt;int, std::allocator&lt;int&gt; &gt;::~_Deque_base (1,500,000 samples, 0.02%)</title><rect x="520.6" y="165" width="0.3" height="15.0" fill="rgb(242,171,40)" rx="2" ry="2" />
<text  x="523.59" y="175.5" ></text>
</g>
<g >
<title>QuadNode::intersects_circle (2,750,000 samples, 0.04%)</title><rect x="19.1" y="165" width="0.5" height="15.0" fill="rgb(231,121,29)" rx="2" ry="2" />
<text  x="22.09" y="175.5" ></text>
</g>
<g >
<title>QuadTree::query_node (59,500,000 samples, 0.94%)</title><rect x="40.8" y="85" width="11.1" height="15.0" fill="rgb(232,126,30)" rx="2" ry="2" />
<text  x="43.82" y="95.5" ></text>
</g>
<g >
<title>QuadTree::query_node (112,000,000 samples, 1.77%)</title><rect x="31.0" y="117" width="20.9" height="15.0" fill="rgb(232,126,30)" rx="2" ry="2" />
<text  x="34.03" y="127.5" ></text>
</g>
<g >
<title>entt::internal::view_iterator&lt;entt::basic_sparse_set&lt;entt::entity, std::allocator&lt;entt::entity&gt; &gt;, false, 3ul, 0ul&gt;::seek_next (3,500,000 samples, 0.06%)</title><rect x="56.2" y="165" width="0.6" height="15.0" fill="rgb(231,120,28)" rx="2" ry="2" />
<text  x="59.16" y="175.5" ></text>
</g>
<g >
<title>atan2f32 (59,000,000 samples, 0.93%)</title><rect x="505.0" y="149" width="11.0" height="15.0" fill="rgb(216,50,12)" rx="2" ry="2" />
<text  x="508.02" y="159.5" ></text>
</g>
<g >
<title>QuadNode::intersects_circle (9,000,000 samples, 0.14%)</title><rect x="24.7" y="133" width="1.7" height="15.0" fill="rgb(231,121,29)" rx="2" ry="2" />
<text  x="27.69" y="143.5" ></text>
</g>
<g >
<title>QuadNode::intersects_circle (16,250,000 samples, 0.26%)</title><rect x="28.0" y="117" width="3.0" height="15.0" fill="rgb(231,121,29)" rx="2" ry="2" />
<text  x="31.00" y="127.5" ></text>
</g>
<g >
<title>[libm.so.6] (30,000,000 samples, 0.47%)</title><rect x="1147.2" y="133" width="5.6" height="15.0" fill="rgb(208,16,4)" rx="2" ry="2" />
<text  x="1150.19" y="143.5" ></text>
</g>
<g >
<title>Brain::think (298,250,000 samples, 4.71%)</title><rect x="1057.2" y="165" width="55.6" height="15.0" fill="rgb(234,136,32)" rx="2" ry="2" />
<text  x="1060.15" y="175.5" >Brain..</text>
</g>
<g >
<title>siv::BasicPerlinNoise&lt;double&gt;::noise3D (1,000,000 samples, 0.02%)</title><rect x="10.7" y="165" width="0.1" height="15.0" fill="rgb(220,73,17)" rx="2" ry="2" />
<text  x="13.65" y="175.5" ></text>
</g>
<g >
<title>entt::internal::view_iterator&lt;entt::basic_sparse_set&lt;entt::entity, std::allocator&lt;entt::entity&gt; &gt;, false, 2ul, 0ul&gt;::seek_next (3,500,000 samples, 0.06%)</title><rect x="63.6" y="165" width="0.7" height="15.0" fill="rgb(237,149,35)" rx="2" ry="2" />
<text  x="66.62" y="175.5" ></text>
</g>
<g >
<title>tanhf32 (7,000,000 samples, 0.11%)</title><rect x="1158.8" y="133" width="1.3" height="15.0" fill="rgb(243,178,42)" rx="2" ry="2" />
<text  x="1161.81" y="143.5" ></text>
</g>
<g >
<title>auto&amp; entt::basic_registry&lt;entt::entity, std::allocator&lt;entt::entity&gt; &gt;::assure&lt;Position&gt; (2,500,000 samples, 0.04%)</title><rect x="52.1" y="165" width="0.4" height="15.0" fill="rgb(234,137,32)" rx="2" ry="2" />
<text  x="55.06" y="175.5" ></text>
</g>
<g >
<title>auto&amp; entt::basic_registry&lt;entt::entity, std::allocator&lt;entt::entity&gt; &gt;::assure&lt;Brain&gt; (1,000,000 samples, 0.02%)</title><rect x="1164.4" y="165" width="0.2" height="15.0" fill="rgb(216,54,13)" rx="2" ry="2" />
<text  x="1167.40" y="175.5" ></text>
</g>
<g >
<title>auto&amp; entt::basic_registry&lt;entt::entity, std::allocator&lt;entt::entity&gt; &gt;::assure&lt;BrainTimer&gt; (5,250,000 samples, 0.08%)</title><rect x="1083.5" y="133" width="1.0" height="15.0" fill="rgb(252,220,52)" rx="2" ry="2" />
<text  x="1086.50" y="143.5" ></text>
</g>
<g >
<title>auto&amp; entt::basic_registry&lt;entt::entity, std::allocator&lt;entt::entity&gt; &gt;::assure&lt;CreatureState&gt; (1,000,000 samples, 0.02%)</title><rect x="1053.8" y="149" width="0.2" height="15.0" fill="rgb(238,156,37)" rx="2" ry="2" />
<text  x="1056.80" y="159.5" ></text>
</g>
<g >
<title>decltype (1,500,000 samples, 0.02%)</title><rect x="1109.5" y="149" width="0.3" height="15.0" fill="rgb(220,73,17)" rx="2" ry="2" />
<text  x="1112.47" y="159.5" ></text>
</g>
<g >
<title>QuadTree::query_node (137,000,000 samples, 2.17%)</title><rect x="26.4" y="133" width="25.5" height="15.0" fill="rgb(232,126,30)" rx="2" ry="2" />
<text  x="29.37" y="143.5" >Q..</text>
</g>
<g >
<title>[ld-linux-x86-64.so.2] (1,500,000 samples, 0.02%)</title><rect x="10.0" y="245" width="0.3" height="15.0" fill="rgb(243,178,42)" rx="2" ry="2" />
<text  x="13.00" y="255.5" ></text>
</g>
<g >
<title>[libc.so.6] (6,325,000,000 samples, 99.98%)</title><rect x="10.3" y="229" width="1179.7" height="15.0" fill="rgb(223,84,20)" rx="2" ry="2" />
<text  x="13.28" y="239.5" >[libc.so.6]</text>
</g>
<g >
<title>all (6,326,500,000 samples, 100%)</title><rect x="10.0" y="293" width="1180.0" height="15.0" fill="rgb(213,39,9)" rx="2" ry="2" />
<text  x="13.00" y="303.5" ></text>
</g>
<g >
<title>QuadTree::collect_leaf (2,250,000 samples, 0.04%)</title><rect x="40.4" y="85" width="0.4" height="15.0" fill="rgb(236,142,34)" rx="2" ry="2" />
<text  x="43.40" y="95.5" ></text>
</g>
<g >
<title>[libc.so.6] (5,750,000 samples, 0.09%)</title><rect x="471.3" y="133" width="1.0" height="15.0" fill="rgb(223,84,20)" rx="2" ry="2" />
<text  x="474.26" y="143.5" ></text>
</g>
<g >
<title>auto&amp; entt::basic_registry&lt;entt::entity, std::allocator&lt;entt::entity&gt; &gt;::assure&lt;Stomach&gt; (750,000 samples, 0.01%)</title><rect x="1086.2" y="133" width="0.1" height="15.0" fill="rgb(250,209,50)" rx="2" ry="2" />
<text  x="1089.20" y="143.5" ></text>
</g>
<g >
<title>QuadTree::insert (21,250,000 samples, 0.34%)</title><rect x="69.8" y="181" width="3.9" height="15.0" fill="rgb(208,16,3)" rx="2" ry="2" />
<text  x="72.78" y="191.5" ></text>
</g>
<g >
<title>PlantFactory::spawn_random (13,000,000 samples, 0.21%)</title><rect x="10.8" y="181" width="2.5" height="15.0" fill="rgb(233,131,31)" rx="2" ry="2" />
<text  x="13.84" y="191.5" ></text>
</g>
<g >
<title>_start (6,325,000,000 samples, 99.98%)</title><rect x="10.3" y="261" width="1179.7" height="15.0" fill="rgb(245,185,44)" rx="2" ry="2" />
<text  x="13.28" y="271.5" >_start</text>
</g>
<g >
<title>InputNode::load_input (127,500,000 samples, 2.02%)</title><rect x="1069.7" y="149" width="23.8" height="15.0" fill="rgb(215,48,11)" rx="2" ry="2" />
<text  x="1072.70" y="159.5" >I..</text>
</g>
<g >
<title>QuadTree::collect_leaf (3,750,000 samples, 0.06%)</title><rect x="50.1" y="53" width="0.7" height="15.0" fill="rgb(236,142,34)" rx="2" ry="2" />
<text  x="53.15" y="63.5" ></text>
</g>
<g >
<title>MovementSystem::update (22,500,000 samples, 0.36%)</title><rect x="64.3" y="181" width="4.2" height="15.0" fill="rgb(248,198,47)" rx="2" ry="2" />
<text  x="67.28" y="191.5" ></text>
</g>
<g >
<title>MetabolismSystem::update (10,750,000 samples, 0.17%)</title><rect x="62.3" y="181" width="2.0" height="15.0" fill="rgb(244,183,43)" rx="2" ry="2" />
<text  x="65.27" y="191.5" ></text>
</g>
<g >
<title>auto&amp; entt::basic_registry&lt;entt::entity, std::allocator&lt;entt::entity&gt; &gt;::assure&lt;CreatureEnergy&gt; (3,500,000 samples, 0.06%)</title><rect x="1084.7" y="133" width="0.7" height="15.0" fill="rgb(210,25,6)" rx="2" ry="2" />
<text  x="1087.71" y="143.5" ></text>
</g>
<g >
<title>auto&amp; entt::basic_registry&lt;entt::entity, std::allocator&lt;entt::entity&gt; &gt;::assure&lt;ChildEnergy&gt; (1,250,000 samples, 0.02%)</title><rect x="1084.5" y="133" width="0.2" height="15.0" fill="rgb(226,98,23)" rx="2" ry="2" />
<text  x="1087.48" y="143.5" ></text>
</g>
<g >
<title>entt::basic_sparse_set&lt;entt::entity, std::allocator&lt;entt::entity&gt; &gt;::try_emplace (2,000,000 samples, 0.03%)</title><rect x="67.6" y="165" width="0.4" height="15.0" fill="rgb(223,85,20)" rx="2" ry="2" />
<text  x="70.59" y="175.5" ></text>
</g>
<g >
<title>ReproductionSystem::update (2,250,000 samples, 0.04%)</title><rect x="74.7" y="181" width="0.4" height="15.0" fill="rgb(238,152,36)" rx="2" ry="2" />
<text  x="77.72" y="191.5" ></text>
</g>
<g >
<title>[libm.so.6] (14,250,000 samples, 0.23%)</title><rect x="1164.6" y="181" width="2.6" height="15.0" fill="rgb(208,16,4)" rx="2" ry="2" />
<text  x="1167.59" y="191.5" ></text>
</g>
<g >
<title>Fertility::random_location (3,750,000 samples, 0.06%)</title><rect x="10.8" y="165" width="0.7" height="15.0" fill="rgb(247,197,47)" rx="2" ry="2" />
<text  x="13.84" y="175.5" ></text>
</g>
<g >
<title>[libc.so.6] (13,750,000 samples, 0.22%)</title><rect x="478.5" y="117" width="2.5" height="15.0" fill="rgb(223,84,20)" rx="2" ry="2" />
<text  x="481.48" y="127.5" ></text>
</g>
<g >
<title>Brain::populate_outputs (50,000,000 samples, 0.79%)</title><rect x="1047.8" y="165" width="9.4" height="15.0" fill="rgb(232,126,30)" rx="2" ry="2" />
<text  x="1050.83" y="175.5" ></text>
</g>
<g >
<title>QuadTree::collect_leaf (8,000,000 samples, 0.13%)</title><rect x="45.5" y="69" width="1.5" height="15.0" fill="rgb(236,142,34)" rx="2" ry="2" />
<text  x="48.53" y="79.5" ></text>
</g>
<g >
<title>QuadNode::intersects_circle (15,250,000 samples, 0.24%)</title><rect x="42.7" y="69" width="2.8" height="15.0" fill="rgb(231,121,29)" rx="2" ry="2" />
<text  x="45.69" y="79.5" ></text>
</g>
<g >
<title>QuadTree::query_closest (2,163,000,000 samples, 34.19%)</title><rect x="77.6" y="165" width="403.4" height="15.0" fill="rgb(216,54,12)" rx="2" ry="2" />
<text  x="80.61" y="175.5" >QuadTree::query_closest</text>
</g>
<g >
<title>auto&amp; entt::basic_registry&lt;entt::entity, std::allocator&lt;entt::entity&gt; &gt;::assure&lt;Velocity&gt; (7,000,000 samples, 0.11%)</title><rect x="1052.5" y="133" width="1.3" height="15.0" fill="rgb(223,85,20)" rx="2" ry="2" />
<text  x="1055.49" y="143.5" ></text>
</g>
<g >
<title>auto&amp; entt::basic_registry&lt;entt::entity, std::allocator&lt;entt::entity&gt; &gt;::assure&lt;OldPosition&gt; (1,250,000 samples, 0.02%)</title><rect x="1045.1" y="165" width="0.3" height="15.0" fill="rgb(230,119,28)" rx="2" ry="2" />
<text  x="1048.12" y="175.5" ></text>
</g>
<g >
<title>SensorSystem::set_direction (198,750,000 samples, 3.14%)</title><rect x="481.0" y="165" width="37.1" height="15.0" fill="rgb(235,141,33)" rx="2" ry="2" />
<text  x="484.05" y="175.5" >Sen..</text>
</g>
<g >
<title>EnvironmentSystem::update (29,250,000 samples, 0.46%)</title><rect x="56.8" y="181" width="5.5" height="15.0" fill="rgb(216,52,12)" rx="2" ry="2" />
<text  x="59.82" y="191.5" ></text>
</g>
<g >
<title>bool entt::internal::all_of&lt;entt::basic_sparse_set&lt;entt::entity, std::allocator&lt;entt::entity&gt; &gt; const* const*, entt::entity&gt; (118,750,000 samples, 1.88%)</title><rect x="1167.4" y="181" width="22.2" height="15.0" fill="rgb(208,14,3)" rx="2" ry="2" />
<text  x="1170.43" y="191.5" >b..</text>
</g>
<g >
<title>entt::basic_sigh_mixin&lt;entt::basic_storage&lt;OldPosition, entt::entity, std::allocator&lt;OldPosition&gt;, void&gt;, entt::basic_registry&lt;entt::entity, std::allocator&lt;entt::entity&gt; &gt; &gt;::pop (750,000 samples, 0.01%)</title><rect x="1189.6" y="181" width="0.1" height="15.0" fill="rgb(233,129,30)" rx="2" ry="2" />
<text  x="1192.58" y="191.5" ></text>
</g>
<g >
<title>malloc (750,000 samples, 0.01%)</title><rect x="472.3" y="149" width="0.2" height="15.0" fill="rgb(230,119,28)" rx="2" ry="2" />
<text  x="475.33" y="159.5" ></text>
</g>
<g >
<title>QuadNode::intersects_circle (14,750,000 samples, 0.23%)</title><rect x="37.7" y="85" width="2.7" height="15.0" fill="rgb(231,121,29)" rx="2" ry="2" />
<text  x="40.65" y="95.5" ></text>
</g>
<g >
<title>DigestionSystem::update (7,000,000 samples, 0.11%)</title><rect x="55.5" y="181" width="1.3" height="15.0" fill="rgb(210,24,5)" rx="2" ry="2" />
<text  x="58.51" y="191.5" ></text>
</g>
<g >
<title>malloc@plt (1,250,000 samples, 0.02%)</title><rect x="472.5" y="149" width="0.2" height="15.0" fill="rgb(246,192,46)" rx="2" ry="2" />
<text  x="475.47" y="159.5" ></text>
</g>
<g >
<title>atanf32 (47,750,000 samples, 0.75%)</title><rect x="507.1" y="133" width="8.9" height="15.0" fill="rgb(239,156,37)" rx="2" ry="2" />
<text  x="510.11" y="143.5" ></text>
</g>
<g >
<title>QuadTree::divide_node (288,000,000 samples, 4.55%)</title><rect x="555.4" y="165" width="53.7" height="15.0" fill="rgb(225,94,22)" rx="2" ry="2" />
<text  x="558.42" y="175.5" >QuadT..</text>
</g>
<g >
<title>InputNode::load_input (1,250,000 samples, 0.02%)</title><rect x="1164.0" y="165" width="0.2" height="15.0" fill="rgb(215,48,11)" rx="2" ry="2" />
<text  x="1166.98" y="175.5" ></text>
</g>
<g >
<title>cfree (9,750,000 samples, 0.15%)</title><rect x="470.5" y="149" width="1.8" height="15.0" fill="rgb(223,86,20)" rx="2" ry="2" />
<text  x="473.51" y="159.5" ></text>
</g>
<g >
<title>Brain::get_node (13,500,000 samples, 0.21%)</title><rect x="1059.5" y="133" width="2.5" height="15.0" fill="rgb(229,110,26)" rx="2" ry="2" />
<text  x="1062.53" y="143.5" ></text>
</g>
<g >
<title>Brain::apply_weights (56,250,000 samples, 0.89%)</title><rect x="1058.6" y="149" width="10.4" height="15.0" fill="rgb(240,162,38)" rx="2" ry="2" />
<text  x="1061.55" y="159.5" ></text>
</g>
<g >
<title>std::_Hashtable&lt;int, std::pair&lt;int const, std::pair&lt;NodeType, int&gt; &gt;, std::allocator&lt;std::pair&lt;int const, std::pair&lt;NodeType, int&gt; &gt; &gt;, std::__detail::_Select1st, std::equal_to&lt;int&gt;, std::hash&lt;int&gt;, std::__detail::_Mod_range_hashing, std::__detail::_Default_ranged_hash, std::__detail::_Prime_rehash_policy, std::__detail::_Hashtable_traits&lt;false, false, true&gt; &gt;::find (37,500,000 samples, 0.59%)</title><rect x="1062.0" y="133" width="7.0" height="15.0" fill="rgb(243,176,42)" rx="2" ry="2" />
<text  x="1065.05" y="143.5" ></text>
</g>
<g >
<title>entt::internal::view_iterator&lt;entt::basic_sparse_set&lt;entt::entity, std::allocator&lt;entt::entity&gt; &gt;, false, 4ul, 0ul&gt;::seek_next (8,000,000 samples, 0.13%)</title><rect x="518.4" y="165" width="1.5" height="15.0" fill="rgb(224,90,21)" rx="2" ry="2" />
<text  x="521.45" y="175.5" ></text>
</g>
<g >
<title>siv::BasicPerlinNoise&lt;double&gt;::noise3D (5,500,000 samples, 0.09%)</title><rect x="68.8" y="149" width="1.0" height="15.0" fill="rgb(220,73,17)" rx="2" ry="2" />
<text  x="71.75" y="159.5" ></text>
</g>
<g >
<title>OutputNode::populate_output (750,000 samples, 0.01%)</title><rect x="1164.3" y="165" width="0.1" height="15.0" fill="rgb(240,161,38)" rx="2" ry="2" />
<text  x="1167.26" y="175.5" ></text>
</g>
<g >
<title>QuadTree::query_node (173,250,000 samples, 2.74%)</title><rect x="19.6" y="165" width="32.3" height="15.0" fill="rgb(232,126,30)" rx="2" ry="2" />
<text  x="22.61" y="175.5" >Qu..</text>
</g>
<g >
<title>QuadTree::update_bounds (4,000,000 samples, 0.06%)</title><rect x="74.0" y="181" width="0.7" height="15.0" fill="rgb(205,3,0)" rx="2" ry="2" />
<text  x="76.98" y="191.5" ></text>
</g>
<g >
<title>SensorSystem::set_direction (750,000 samples, 0.01%)</title><rect x="75.1" y="181" width="0.2" height="15.0" fill="rgb(235,141,33)" rx="2" ry="2" />
<text  x="78.14" y="191.5" ></text>
</g>
<g >
<title>Node::activate (45,250,000 samples, 0.72%)</title><rect x="1138.8" y="133" width="8.4" height="15.0" fill="rgb(210,24,5)" rx="2" ry="2" />
<text  x="1141.75" y="143.5" ></text>
</g>
<g >
<title>Brain::reset_next_values (2,250,000 samples, 0.04%)</title><rect x="1069.3" y="149" width="0.4" height="15.0" fill="rgb(249,205,49)" rx="2" ry="2" />
<text  x="1072.28" y="159.5" ></text>
</g>
<g >
<title>auto&amp; entt::basic_registry&lt;entt::entity, std::allocator&lt;entt::entity&gt; &gt;::assure&lt;CreatureState&gt; (4,500,000 samples, 0.07%)</title><rect x="1085.4" y="133" width="0.8" height="15.0" fill="rgb(238,156,37)" rx="2" ry="2" />
<text  x="1088.36" y="143.5" ></text>
</g>
<g >
<title>Brain::update_nodes (274,500,000 samples, 4.34%)</title><rect x="1112.8" y="165" width="51.2" height="15.0" fill="rgb(249,205,49)" rx="2" ry="2" />
<text  x="1115.78" y="175.5" >Brain..</text>
</g>
<g >
<title>auto&amp; entt::basic_registry&lt;entt::entity, std::allocator&lt;entt::entity&gt; &gt;::assure&lt;Age&gt; (4,000,000 samples, 0.06%)</title><rect x="1082.8" y="133" width="0.7" height="15.0" fill="rgb(207,11,2)" rx="2" ry="2" />
<text  x="1085.75" y="143.5" ></text>
</g>
<g >
<title>DeathSystem::update (1,500,000 samples, 0.02%)</title><rect x="55.2" y="181" width="0.3" height="15.0" fill="rgb(254,227,54)" rx="2" ry="2" />
<text  x="58.23" y="191.5" ></text>
</g>
<g >
<title>std::_Deque_base&lt;int, std::allocator&lt;int&gt; &gt;::~_Deque_base (25,250,000 samples, 0.40%)</title><rect x="476.3" y="149" width="4.7" height="15.0" fill="rgb(242,171,40)" rx="2" ry="2" />
<text  x="479.34" y="159.5" ></text>
</g>
<g >
<title>Node::activate (25,750,000 samples, 0.41%)</title><rect x="1114.2" y="149" width="4.8" height="15.0" fill="rgb(210,24,5)" rx="2" ry="2" />
<text  x="1117.18" y="159.5" ></text>
</g>
<g >
<title>expm1f32 (32,250,000 samples, 0.51%)</title><rect x="1152.8" y="133" width="6.0" height="15.0" fill="rgb(230,116,27)" rx="2" ry="2" />
<text  x="1155.79" y="143.5" ></text>
</g>
<g >
<title>[ld-linux-x86-64.so.2] (1,500,000 samples, 0.02%)</title><rect x="10.0" y="197" width="0.3" height="15.0" fill="rgb(243,178,42)" rx="2" ry="2" />
<text  x="13.00" y="207.5" ></text>
</g>
<g >
<title>QuadTree::insert (2,337,500,000 samples, 36.95%)</title><rect x="609.1" y="165" width="436.0" height="15.0" fill="rgb(208,16,3)" rx="2" ry="2" />
<text  x="612.14" y="175.5" >QuadTree::insert</text>
</g>
<g >
<title>[ld-linux-x86-64.so.2] (1,500,000 samples, 0.02%)</title><rect x="10.0" y="261" width="0.3" height="15.0" fill="rgb(243,178,42)" rx="2" ry="2" />
<text  x="13.00" y="271.5" ></text>
</g>
<g >
<title>[libm.so.6] (20,500,000 samples, 0.32%)</title><rect x="1160.1" y="149" width="3.8" height="15.0" fill="rgb(208,16,4)" rx="2" ry="2" />
<text  x="1163.11" y="159.5" ></text>
</g>
<g >
<title>auto&amp; entt::basic_registry&lt;entt::entity, std::allocator&lt;entt::entity&gt; &gt;::assure&lt;OldPosition&gt; (1,500,000 samples, 0.02%)</title><rect x="53.0" y="149" width="0.3" height="15.0" fill="rgb(230,119,28)" rx="2" ry="2" />
<text  x="56.04" y="159.5" ></text>
</g>
<g >
<title>PlantFactory::spawn_random (7,000,000 samples, 0.11%)</title><rect x="68.5" y="165" width="1.3" height="15.0" fill="rgb(233,131,31)" rx="2" ry="2" />
<text  x="71.47" y="175.5" ></text>
</g>
<g >
<title>entt::basic_sparse_set&lt;entt::entity, std::allocator&lt;entt::entity&gt; &gt;::index (1,250,000 samples, 0.02%)</title><rect x="53.5" y="165" width="0.2" height="15.0" fill="rgb(238,154,36)" rx="2" ry="2" />
<text  x="56.51" y="175.5" ></text>
</g>
<g >
<title>Simulation::initialize (15,000,000 samples, 0.24%)</title><rect x="10.5" y="197" width="2.8" height="15.0" fill="rgb(222,79,19)" rx="2" ry="2" />
<text  x="13.47" y="207.5" ></text>
</g>
<g >
<title>entt::basic_storage&lt;OldPosition, entt::entity, std::allocator&lt;OldPosition&gt;, void&gt;::pop (6,000,000 samples, 0.09%)</title><rect x="1046.3" y="165" width="1.2" height="15.0" fill="rgb(205,1,0)" rx="2" ry="2" />
<text  x="1049.34" y="175.5" ></text>
</g>
<g >
<title>entt::internal::view_iterator&lt;entt::basic_sparse_set&lt;entt::entity, std::allocator&lt;entt::entity&gt; &gt;, false, 3ul, 0ul&gt;::seek_next (8,750,000 samples, 0.14%)</title><rect x="60.6" y="165" width="1.7" height="15.0" fill="rgb(231,120,28)" rx="2" ry="2" />
<text  x="63.64" y="175.5" ></text>
</g>
<g >
<title>ThinkingSystem::update (628,000,000 samples, 9.93%)</title><rect x="1047.5" y="181" width="117.1" height="15.0" fill="rgb(245,184,44)" rx="2" ry="2" />
<text  x="1050.45" y="191.5" >ThinkingSystem..</text>
</g>
<g >
<title>__atan2f_finite (1,250,000 samples, 0.02%)</title><rect x="504.8" y="149" width="0.2" height="15.0" fill="rgb(249,204,49)" rx="2" ry="2" />
<text  x="507.78" y="159.5" ></text>
</g>
<g >
<title>auto&amp; entt::basic_registry&lt;entt::entity, std::allocator&lt;entt::entity&gt; &gt;::assure&lt;OldPosition&gt; (1,000,000 samples, 0.02%)</title><rect x="67.4" y="165" width="0.2" height="15.0" fill="rgb(230,119,28)" rx="2" ry="2" />
<text  x="70.40" y="175.5" ></text>
</g>
<g >
<title>Brain::get_node (1,250,000 samples, 0.02%)</title><rect x="1069.0" y="149" width="0.3" height="15.0" fill="rgb(229,110,26)" rx="2" ry="2" />
<text  x="1072.04" y="159.5" ></text>
</g>
<g >
<title>CollisionSystem::update (224,500,000 samples, 3.55%)</title><rect x="13.4" y="181" width="41.8" height="15.0" fill="rgb(221,76,18)" rx="2" ry="2" />
<text  x="16.36" y="191.5" >Col..</text>
</g>
<g >
<title>QuadTree::collect_leaf (750,000 samples, 0.01%)</title><rect x="35.8" y="101" width="0.1" height="15.0" fill="rgb(236,142,34)" rx="2" ry="2" />
<text  x="38.79" y="111.5" ></text>
</g>
<g >
<title>decltype (38,000,000 samples, 0.60%)</title><rect x="1086.4" y="133" width="7.1" height="15.0" fill="rgb(220,73,17)" rx="2" ry="2" />
<text  x="1089.39" y="143.5" ></text>
</g>
<g >
<title>QuadTree::collect_leaf (750,000 samples, 0.01%)</title><rect x="51.6" y="37" width="0.2" height="15.0" fill="rgb(236,142,34)" rx="2" ry="2" />
<text  x="54.64" y="47.5" ></text>
</g>
<g >
<title>entt::internal::view_iterator&lt;entt::basic_sparse_set&lt;entt::entity, std::allocator&lt;entt::entity&gt; &gt;, false, 2ul, 0ul&gt;::seek_next (2,750,000 samples, 0.04%)</title><rect x="68.0" y="165" width="0.5" height="15.0" fill="rgb(237,149,35)" rx="2" ry="2" />
<text  x="70.96" y="175.5" ></text>
</g>
<g >
<title>auto&amp; entt::basic_registry&lt;entt::entity, std::allocator&lt;entt::entity&gt; &gt;::assure&lt;CreatureState&gt; (4,250,000 samples, 0.07%)</title><rect x="1051.7" y="133" width="0.8" height="15.0" fill="rgb(238,156,37)" rx="2" ry="2" />
<text  x="1054.70" y="143.5" ></text>
</g>
<g >
<title>operator new (1,250,000 samples, 0.02%)</title><rect x="520.4" y="165" width="0.2" height="15.0" fill="rgb(216,51,12)" rx="2" ry="2" />
<text  x="523.36" y="175.5" ></text>
</g>
<g >
<title>[libm.so.6] (21,000,000 samples, 0.33%)</title><rect x="1105.5" y="149" width="3.9" height="15.0" fill="rgb(208,16,4)" rx="2" ry="2" />
<text  x="1108.46" y="159.5" ></text>
</g>
<g >
<title>QuadTree::query_node (5,750,000 samples, 0.09%)</title><rect x="50.8" y="53" width="1.1" height="15.0" fill="rgb(232,126,30)" rx="2" ry="2" />
<text  x="53.85" y="63.5" ></text>
</g>
<g >
<title>QuadNode::intersects_circle (14,000,000 samples, 0.22%)</title><rect x="33.2" y="101" width="2.6" height="15.0" fill="rgb(231,121,29)" rx="2" ry="2" />
<text  x="36.17" y="111.5" ></text>
</g>
<g >
<title>CreatureFactory::spawn_random (2,000,000 samples, 0.03%)</title><rect x="10.5" y="181" width="0.3" height="15.0" fill="rgb(242,171,41)" rx="2" ry="2" />
<text  x="13.47" y="191.5" ></text>
</g>
<g >
<title>entt::internal::view_iterator&lt;entt::basic_sparse_set&lt;entt::entity, std::allocator&lt;entt::entity&gt; &gt;, false, 3ul, 1ul&gt;::seek_next (7,750,000 samples, 0.12%)</title><rect x="53.8" y="165" width="1.4" height="15.0" fill="rgb(224,90,21)" rx="2" ry="2" />
<text  x="56.78" y="175.5" ></text>
</g>
<g >
<title>QuadTree::query_node (26,250,000 samples, 0.41%)</title><rect x="47.0" y="69" width="4.9" height="15.0" fill="rgb(232,126,30)" rx="2" ry="2" />
<text  x="50.02" y="79.5" ></text>
</g>
<g >
<title>Node::update (220,500,000 samples, 3.49%)</title><rect x="1119.0" y="149" width="41.1" height="15.0" fill="rgb(241,166,39)" rx="2" ry="2" />
<text  x="1121.98" y="159.5" >Nod..</text>
</g>
<g >
<title>QuadTree::query_node (161,500,000 samples, 2.55%)</title><rect x="21.8" y="149" width="30.1" height="15.0" fill="rgb(232,126,30)" rx="2" ry="2" />
<text  x="24.80" y="159.5" >Qu..</text>
</g>
<g >
<title>operator new (16,500,000 samples, 0.26%)</title><rect x="473.3" y="149" width="3.0" height="15.0" fill="rgb(216,51,12)" rx="2" ry="2" />
<text  x="476.26" y="159.5" ></text>
</g>
<g >
<title>CollisionSystem::handle_eating (8,250,000 samples, 0.13%)</title><rect x="17.6" y="165" width="1.5" height="15.0" fill="rgb(223,86,20)" rx="2" ry="2" />
<text  x="20.55" y="175.5" ></text>
</g>
<g >
<title>QuadNode::intersects_circle (7,750,000 samples, 0.12%)</title><rect x="20.4" y="149" width="1.4" height="15.0" fill="rgb(231,121,29)" rx="2" ry="2" />
<text  x="23.35" y="159.5" ></text>
</g>
<g >
<title>decltype (5,000,000 samples, 0.08%)</title><rect x="52.6" y="165" width="0.9" height="15.0" fill="rgb(220,73,17)" rx="2" ry="2" />
<text  x="55.57" y="175.5" ></text>
</g>
</g>
</svg>
