<?xml version="1.0" standalone="no"?>
<!DOCTYPE svg PUBLIC "-//W3C//DTD SVG 1.1//EN" "http://www.w3.org/Graphics/SVG/1.1/DTD/svg11.dtd">
<svg version="1.1" width="1200" height="326" onload="init(evt)" viewBox="0 0 1200 326" xmlns="http://www.w3.org/2000/svg" xmlns:xlink="http://www.w3.org/1999/xlink">
<!-- Flame graph stack visualization. See https://github.com/brendangregg/FlameGraph for latest version, and http://www.brendangregg.com/flamegraphs.html for examples. -->
<!-- NOTES:  -->
<defs>
	<linearGradient id="background" y1="0" y2="1" x1="0" x2="0" >
		<stop stop-color="#eeeeee" offset="5%" />
		<stop stop-color="#eeeeb0" offset="95%" />
	</linearGradient>
</defs>
<style type="text/css">
	text { font-family:Verdana; font-size:12px; fill:rgb(0,0,0); }
	#search, #ignorecase { opacity:0.1; cursor:pointer; }
	#search:hover, #search.show, #ignorecase:hover, #ignorecase.show { opacity:1; }
	#subtitle { text-anchor:middle; font-color:rgb(160,160,160); }
	#title { text-anchor:middle; font-size:17px}
	#unzoom { cursor:pointer; }
	#frames > *:hover { stroke:black; stroke-width:0.5; cursor:pointer; }
	.hide { display:none; }
	.parent { opacity:0.5; }
</style>
<script type="text/ecmascript">
<![CDATA[
	"use strict";
	var details, searchbtn, unzoombtn, matchedtxt, svg, searching, currentSearchTerm, ignorecase, ignorecaseBtn;
	function init(evt) {
		details = document.getElementById("details").firstChild;
		searchbtn = document.getElementById("search");
		ignorecaseBtn = document.getElementById("ignorecase");
		unzoombtn = document.getElementById("unzoom");
		matchedtxt = document.getElementById("matched");
		svg = document.getElementsByTagName("svg")[0];
		searching = 0;
		currentSearchTerm = null;

		// use GET parameters to restore a flamegraphs state.
		var params = get_params();
		if (params.x && params.y)
			zoom(find_group(document.querySelector('[x="' + params.x + '"][y="' + params.y + '"]')));
                if (params.s) search(params.s);
	}

	// event listeners
	window.addEventListener("click", function(e) {
		var target = find_group(e.target);
		if (target) {
			if (target.nodeName == "a") {
				if (e.ctrlKey === false) return;
				e.preventDefault();
			}
			if (target.classList.contains("parent")) unzoom(true);
			zoom(target);
			if (!document.querySelector('.parent')) {
				// we have basically done a clearzoom so clear the url
				var params = get_params();
				if (params.x) delete params.x;
				if (params.y) delete params.y;
				history.replaceState(null, null, parse_params(params));
				unzoombtn.classList.add("hide");
				return;
			}

			// set parameters for zoom state
			var el = target.querySelector("rect");
			if (el && el.attributes && el.attributes.y && el.attributes._orig_x) {
				var params = get_params()
				params.x = el.attributes._orig_x.value;
				params.y = el.attributes.y.value;
				history.replaceState(null, null, parse_params(params));
			}
		}
		else if (e.target.id == "unzoom") clearzoom();
		else if (e.target.id == "search") search_prompt();
		else if (e.target.id == "ignorecase") toggle_ignorecase();
	}, false)

	// mouse-over for info
	// show
	window.addEventListener("mouseover", function(e) {
		var target = find_group(e.target);
		if (target) details.nodeValue = "Function: " + g_to_text(target);
	}, false)

	// clear
	window.addEventListener("mouseout", function(e) {
		var target = find_group(e.target);
		if (target) details.nodeValue = ' ';
	}, false)

	// ctrl-F for search
	// ctrl-I to toggle case-sensitive search
	window.addEventListener("keydown",function (e) {
		if (e.keyCode === 114 || (e.ctrlKey && e.keyCode === 70)) {
			e.preventDefault();
			search_prompt();
		}
		else if (e.ctrlKey && e.keyCode === 73) {
			e.preventDefault();
			toggle_ignorecase();
		}
	}, false)

	// functions
	function get_params() {
		var params = {};
		var paramsarr = window.location.search.substr(1).split('&');
		for (var i = 0; i < paramsarr.length; ++i) {
			var tmp = paramsarr[i].split("=");
			if (!tmp[0] || !tmp[1]) continue;
			params[tmp[0]]  = decodeURIComponent(tmp[1]);
		}
		return params;
	}
	function parse_params(params) {
		var uri = "?";
		for (var key in params) {
			uri += key + '=' + encodeURIComponent(params[key]) + '&';
		}
		if (uri.slice(-1) == "&")
			uri = uri.substring(0, uri.length - 1);
		if (uri == '?')
			uri = window.location.href.split('?')[0];
		return uri;
	}
	function find_child(node, selector) {
		var children = node.querySelectorAll(selector);
		if (children.length) return children[0];
	}
	function find_group(node) {
		var parent = node.parentElement;
		if (!parent) return;
		if (parent.id == "frames") return node;
		return find_group(parent);
	}
	function orig_save(e, attr, val) {
		if (e.attributes["_orig_" + attr] != undefined) return;
		if (e.attributes[attr] == undefined) return;
		if (val == undefined) val = e.attributes[attr].value;
		e.setAttribute("_orig_" + attr, val);
	}
	function orig_load(e, attr) {
		if (e.attributes["_orig_"+attr] == undefined) return;
		e.attributes[attr].value = e.attributes["_orig_" + attr].value;
		e.removeAttribute("_orig_"+attr);
	}
	function g_to_text(e) {
		var text = find_child(e, "title").firstChild.nodeValue;
		return (text)
	}
	function g_to_func(e) {
		var func = g_to_text(e);
		// if there's any manipulation we want to do to the function
		// name before it's searched, do it here before returning.
		return (func);
	}
	function update_text(e) {
		var r = find_child(e, "rect");
		var t = find_child(e, "text");
		var w = parseFloat(r.attributes.width.value) -3;
		var txt = find_child(e, "title").textContent.replace(/\([^(]*\)$/,"");
		t.attributes.x.value = parseFloat(r.attributes.x.value) + 3;

		// Smaller than this size won't fit anything
		if (w < 2 * 12 * 0.59) {
			t.textContent = "";
			return;
		}

		t.textContent = txt;
		var sl = t.getSubStringLength(0, txt.length);
		// check if only whitespace or if we can fit the entire string into width w
		if (/^ *$/.test(txt) || sl < w)
			return;

		// this isn't perfect, but gives a good starting point
		// and avoids calling getSubStringLength too often
		var start = Math.floor((w/sl) * txt.length);
		for (var x = start; x > 0; x = x-2) {
			if (t.getSubStringLength(0, x + 2) <= w) {
				t.textContent = txt.substring(0, x) + "..";
				return;
			}
		}
		t.textContent = "";
	}

	// zoom
	function zoom_reset(e) {
		if (e.attributes != undefined) {
			orig_load(e, "x");
			orig_load(e, "width");
		}
		if (e.childNodes == undefined) return;
		for (var i = 0, c = e.childNodes; i < c.length; i++) {
			zoom_reset(c[i]);
		}
	}
	function zoom_child(e, x, ratio) {
		if (e.attributes != undefined) {
			if (e.attributes.x != undefined) {
				orig_save(e, "x");
				e.attributes.x.value = (parseFloat(e.attributes.x.value) - x - 10) * ratio + 10;
				if (e.tagName == "text")
					e.attributes.x.value = find_child(e.parentNode, "rect[x]").attributes.x.value + 3;
			}
			if (e.attributes.width != undefined) {
				orig_save(e, "width");
				e.attributes.width.value = parseFloat(e.attributes.width.value) * ratio;
			}
		}

		if (e.childNodes == undefined) return;
		for (var i = 0, c = e.childNodes; i < c.length; i++) {
			zoom_child(c[i], x - 10, ratio);
		}
	}
	function zoom_parent(e) {
		if (e.attributes) {
			if (e.attributes.x != undefined) {
				orig_save(e, "x");
				e.attributes.x.value = 10;
			}
			if (e.attributes.width != undefined) {
				orig_save(e, "width");
				e.attributes.width.value = parseInt(svg.width.baseVal.value) - (10 * 2);
			}
		}
		if (e.childNodes == undefined) return;
		for (var i = 0, c = e.childNodes; i < c.length; i++) {
			zoom_parent(c[i]);
		}
	}
	function zoom(node) {
		var attr = find_child(node, "rect").attributes;
		var width = parseFloat(attr.width.value);
		var xmin = parseFloat(attr.x.value);
		var xmax = parseFloat(xmin + width);
		var ymin = parseFloat(attr.y.value);
		var ratio = (svg.width.baseVal.value - 2 * 10) / width;

		// XXX: Workaround for JavaScript float issues (fix me)
		var fudge = 0.0001;

		unzoombtn.classList.remove("hide");

		var el = document.getElementById("frames").children;
		for (var i = 0; i < el.length; i++) {
			var e = el[i];
			var a = find_child(e, "rect").attributes;
			var ex = parseFloat(a.x.value);
			var ew = parseFloat(a.width.value);
			var upstack;
			// Is it an ancestor
			if (0 == 0) {
				upstack = parseFloat(a.y.value) > ymin;
			} else {
				upstack = parseFloat(a.y.value) < ymin;
			}
			if (upstack) {
				// Direct ancestor
				if (ex <= xmin && (ex+ew+fudge) >= xmax) {
					e.classList.add("parent");
					zoom_parent(e);
					update_text(e);
				}
				// not in current path
				else
					e.classList.add("hide");
			}
			// Children maybe
			else {
				// no common path
				if (ex < xmin || ex + fudge >= xmax) {
					e.classList.add("hide");
				}
				else {
					zoom_child(e, xmin, ratio);
					update_text(e);
				}
			}
		}
		search();
	}
	function unzoom(dont_update_text) {
		unzoombtn.classList.add("hide");
		var el = document.getElementById("frames").children;
		for(var i = 0; i < el.length; i++) {
			el[i].classList.remove("parent");
			el[i].classList.remove("hide");
			zoom_reset(el[i]);
			if(!dont_update_text) update_text(el[i]);
		}
		search();
	}
	function clearzoom() {
		unzoom();

		// remove zoom state
		var params = get_params();
		if (params.x) delete params.x;
		if (params.y) delete params.y;
		history.replaceState(null, null, parse_params(params));
	}

	// search
	function toggle_ignorecase() {
		ignorecase = !ignorecase;
		if (ignorecase) {
			ignorecaseBtn.classList.add("show");
		} else {
			ignorecaseBtn.classList.remove("show");
		}
		reset_search();
		search();
	}
	function reset_search() {
		var el = document.querySelectorAll("#frames rect");
		for (var i = 0; i < el.length; i++) {
			orig_load(el[i], "fill")
		}
		var params = get_params();
		delete params.s;
		history.replaceState(null, null, parse_params(params));
	}
	function search_prompt() {
		if (!searching) {
			var term = prompt("Enter a search term (regexp " +
			    "allowed, eg: ^ext4_)"
			    + (ignorecase ? ", ignoring case" : "")
			    + "\nPress Ctrl-i to toggle case sensitivity", "");
			if (term != null) search(term);
		} else {
			reset_search();
			searching = 0;
			currentSearchTerm = null;
			searchbtn.classList.remove("show");
			searchbtn.firstChild.nodeValue = "Search"
			matchedtxt.classList.add("hide");
			matchedtxt.firstChild.nodeValue = ""
		}
	}
	function search(term) {
		if (term) currentSearchTerm = term;
		if (currentSearchTerm === null) return;

		var re = new RegExp(currentSearchTerm, ignorecase ? 'i' : '');
		var el = document.getElementById("frames").children;
		var matches = new Object();
		var maxwidth = 0;
		for (var i = 0; i < el.length; i++) {
			var e = el[i];
			var func = g_to_func(e);
			var rect = find_child(e, "rect");
			if (func == null || rect == null)
				continue;

			// Save max width. Only works as we have a root frame
			var w = parseFloat(rect.attributes.width.value);
			if (w > maxwidth)
				maxwidth = w;

			if (func.match(re)) {
				// highlight
				var x = parseFloat(rect.attributes.x.value);
				orig_save(rect, "fill");
				rect.attributes.fill.value = "rgb(230,0,230)";

				// remember matches
				if (matches[x] == undefined) {
					matches[x] = w;
				} else {
					if (w > matches[x]) {
						// overwrite with parent
						matches[x] = w;
					}
				}
				searching = 1;
			}
		}
		if (!searching)
			return;
		var params = get_params();
		params.s = currentSearchTerm;
		history.replaceState(null, null, parse_params(params));

		searchbtn.classList.add("show");
		searchbtn.firstChild.nodeValue = "Reset Search";

		// calculate percent matched, excluding vertical overlap
		var count = 0;
		var lastx = -1;
		var lastw = 0;
		var keys = Array();
		for (k in matches) {
			if (matches.hasOwnProperty(k))
				keys.push(k);
		}
		// sort the matched frames by their x location
		// ascending, then width descending
		keys.sort(function(a, b){
			return a - b;
		});
		// Step through frames saving only the biggest bottom-up frames
		// thanks to the sort order. This relies on the tree property
		// where children are always smaller than their parents.
		var fudge = 0.0001;	// JavaScript floating point
		for (var k in keys) {
			var x = parseFloat(keys[k]);
			var w = matches[keys[k]];
			if (x >= lastx + lastw - fudge) {
				count += w;
				lastx = x;
				lastw = w;
			}
		}
		// display matched percent
		matchedtxt.classList.remove("hide");
		var pct = 100 * count / maxwidth;
		if (pct != 100) pct = pct.toFixed(1)
		matchedtxt.firstChild.nodeValue = "Matched: " + pct + "%";
	}
]]>
</script>
<rect x="0.0" y="0" width="1200.0" height="326.0" fill="url(#background)"  />
<text id="title" x="600.00" y="24" >Flame Graph</text>
<text id="details" x="10.00" y="309" > </text>
<text id="unzoom" x="10.00" y="24" class="hide">Reset Zoom</text>
<text id="search" x="1090.00" y="24" >Search</text>
<text id="ignorecase" x="1174.00" y="24" >ic</text>
<text id="matched" x="1090.00" y="309" > </text>
<g id="frames">
<g >
<title>QuadTree::update_bounds (2,250,000 samples, 0.04%)</title><rect x="73.9" y="165" width="0.4" height="15.0" fill="rgb(205,3,0)" rx="2" ry="2" />
<text  x="76.87" y="175.5" ></text>
</g>
<g >
<title>Node::accept_input (8,000,000 samples, 0.13%)</title><rect x="1090.2" y="133" width="1.4" height="15.0" fill="rgb(232,127,30)" rx="2" ry="2" />
<text  x="1093.16" y="143.5" ></text>
</g>
<g >
<title>ThinkingSystem::update (636,750,000 samples, 9.98%)</title><rect x="1047.9" y="165" width="117.8" height="15.0" fill="rgb(245,184,44)" rx="2" ry="2" />
<text  x="1050.93" y="175.5" >ThinkingSystem..</text>
</g>
<g >
<title>std::_Deque_base&lt;int, std::allocator&lt;int&gt; &gt;::~_Deque_base (1,000,000 samples, 0.02%)</title><rect x="517.5" y="149" width="0.1" height="15.0" fill="rgb(242,171,40)" rx="2" ry="2" />
<text  x="520.45" y="159.5" ></text>
</g>
<g >
<title>auto&amp; entt::basic_registry&lt;entt::entity, std::allocator&lt;entt::entity&gt; &gt;::assure&lt;Bite&gt; (750,000 samples, 0.01%)</title><rect x="18.6" y="133" width="0.1" height="15.0" fill="rgb(238,155,37)" rx="2" ry="2" />
<text  x="21.60" y="143.5" ></text>
</g>
<g >
<title>ReproductionSystem::update (1,750,000 samples, 0.03%)</title><rect x="74.3" y="165" width="0.3" height="15.0" fill="rgb(238,152,36)" rx="2" ry="2" />
<text  x="77.28" y="175.5" ></text>
</g>
<g >
<title>decltype (1,750,000 samples, 0.03%)</title><rect x="1106.9" y="133" width="0.3" height="15.0" fill="rgb(220,73,17)" rx="2" ry="2" />
<text  x="1109.90" y="143.5" ></text>
</g>
<g >
<title>__atan2f_finite (11,500,000 samples, 0.18%)</title><rect x="502.4" y="117" width="2.1" height="15.0" fill="rgb(249,204,49)" rx="2" ry="2" />
<text  x="505.42" y="127.5" ></text>
</g>
<g >
<title>auto&amp; entt::basic_registry&lt;entt::entity, std::allocator&lt;entt::entity&gt; &gt;::assure&lt;Age&gt; (2,750,000 samples, 0.04%)</title><rect x="1081.0" y="117" width="0.6" height="15.0" fill="rgb(207,11,2)" rx="2" ry="2" />
<text  x="1084.05" y="127.5" ></text>
</g>
<g >
<title>Brain::think (303,750,000 samples, 4.76%)</title><rect x="1055.7" y="149" width="56.2" height="15.0" fill="rgb(234,136,32)" rx="2" ry="2" />
<text  x="1058.75" y="159.5" >Brain..</text>
</g>
<g >
<title>entt::internal::view_iterator&lt;entt::basic_sparse_set&lt;entt::entity, std::allocator&lt;entt::entity&gt; &gt;, false, 2ul, 0ul&gt;::seek_next (3,750,000 samples, 0.06%)</title><rect x="68.6" y="149" width="0.7" height="15.0" fill="rgb(237,149,35)" rx="2" ry="2" />
<text  x="71.64" y="159.5" ></text>
</g>
<g >
<title>Brain::get_node (1,000,000 samples, 0.02%)</title><rect x="1067.3" y="133" width="0.2" height="15.0" fill="rgb(229,110,26)" rx="2" ry="2" />
<text  x="1070.31" y="143.5" ></text>
</g>
<g >
<title>operator delete (3,000,000 samples, 0.05%)</title><rect x="468.2" y="133" width="0.6" height="15.0" fill="rgb(247,196,46)" rx="2" ry="2" />
<text  x="471.20" y="143.5" ></text>
</g>
<g >
<title>SensorSystem::set_direction (214,250,000 samples, 3.36%)</title><rect x="475.5" y="149" width="39.6" height="15.0" fill="rgb(235,141,33)" rx="2" ry="2" />
<text  x="478.46" y="159.5" >Sen..</text>
</g>
<g >
<title>decltype (5,500,000 samples, 0.09%)</title><rect x="51.9" y="149" width="1.0" height="15.0" fill="rgb(220,73,17)" rx="2" ry="2" />
<text  x="54.85" y="159.5" ></text>
</g>
<g >
<title>[ld-linux-x86-64.so.2] (750,000 samples, 0.01%)</title><rect x="10.1" y="117" width="0.1" height="15.0" fill="rgb(243,178,42)" rx="2" ry="2" />
<text  x="13.09" y="127.5" ></text>
</g>
<g >
<title>_dl_catch_exception (750,000 samples, 0.01%)</title><rect x="10.1" y="165" width="0.1" height="15.0" fill="rgb(253,223,53)" rx="2" ry="2" />
<text  x="13.09" y="175.5" ></text>
</g>
<g >
<title>auto&amp; entt::basic_registry&lt;entt::entity, std::allocator&lt;entt::entity&gt; &gt;::assure&lt;VisionSensors&gt; (11,500,000 samples, 0.18%)</title><rect x="1088.0" y="101" width="2.2" height="15.0" fill="rgb(224,87,20)" rx="2" ry="2" />
<text  x="1091.03" y="111.5" ></text>
</g>
<g >
<title>Node::reset_next_value (59,500,000 samples, 0.93%)</title><rect x="1091.6" y="133" width="11.0" height="15.0" fill="rgb(251,214,51)" rx="2" ry="2" />
<text  x="1094.64" y="143.5" ></text>
</g>
<g >
<title>entt::basic_sparse_set&lt;entt::entity, std::allocator&lt;entt::entity&gt; &gt;::try_emplace (1,250,000 samples, 0.02%)</title><rect x="68.4" y="149" width="0.2" height="15.0" fill="rgb(223,85,20)" rx="2" ry="2" />
<text  x="71.41" y="159.5" ></text>
</g>
<g >
<title>auto&amp; entt::basic_registry&lt;entt::entity, std::allocator&lt;entt::entity&gt; &gt;::assure&lt;BrainTimer&gt; (4,000,000 samples, 0.06%)</title><rect x="1081.6" y="117" width="0.7" height="15.0" fill="rgb(252,220,52)" rx="2" ry="2" />
<text  x="1084.55" y="127.5" ></text>
</g>
<g >
<title>PlantFactory::spawn_random (3,750,000 samples, 0.06%)</title><rect x="69.3" y="149" width="0.7" height="15.0" fill="rgb(233,131,31)" rx="2" ry="2" />
<text  x="72.33" y="159.5" ></text>
</g>
<g >
<title>entt::basic_sigh_mixin&lt;entt::basic_storage&lt;OldPosition, entt::entity, std::allocator&lt;OldPosition&gt;, void&gt;, entt::basic_registry&lt;entt::entity, std::allocator&lt;entt::entity&gt; &gt; &gt;::pop (1,000,000 samples, 0.02%)</title><rect x="1045.9" y="149" width="0.2" height="15.0" fill="rgb(233,129,30)" rx="2" ry="2" />
<text  x="1048.95" y="159.5" ></text>
</g>
<g >
<title>auto&amp; entt::basic_registry&lt;entt::entity, std::allocator&lt;entt::entity&gt; &gt;::assure&lt;Position&gt; (10,000,000 samples, 0.16%)</title><rect x="513.2" y="133" width="1.9" height="15.0" fill="rgb(234,137,32)" rx="2" ry="2" />
<text  x="516.24" y="143.5" ></text>
</g>
<g >
<title>[libm.so.6] (23,000,000 samples, 0.36%)</title><rect x="1102.6" y="133" width="4.3" height="15.0" fill="rgb(208,16,4)" rx="2" ry="2" />
<text  x="1105.64" y="143.5" ></text>
</g>
<g >
<title>auto&amp; entt::basic_registry&lt;entt::entity, std::allocator&lt;entt::entity&gt; &gt;::assure&lt;CreatureState&gt; (2,750,000 samples, 0.04%)</title><rect x="1083.0" y="117" width="0.5" height="15.0" fill="rgb(238,156,37)" rx="2" ry="2" />
<text  x="1085.99" y="127.5" ></text>
</g>
<g >
<title>[ld-linux-x86-64.so.2] (750,000 samples, 0.01%)</title><rect x="10.1" y="149" width="0.1" height="15.0" fill="rgb(243,178,42)" rx="2" ry="2" />
<text  x="13.09" y="159.5" ></text>
</g>
<g >
<title>entt::internal::view_iterator&lt;entt::basic_sparse_set&lt;entt::entity, std::allocator&lt;entt::entity&gt; &gt;, false, 3ul, 1ul&gt;::seek_next (11,250,000 samples, 0.18%)</title><rect x="53.3" y="149" width="2.1" height="15.0" fill="rgb(224,90,21)" rx="2" ry="2" />
<text  x="56.33" y="159.5" ></text>
</g>
<g >
<title>QuadTree::query_closest (750,000 samples, 0.01%)</title><rect x="73.7" y="165" width="0.1" height="15.0" fill="rgb(216,54,12)" rx="2" ry="2" />
<text  x="76.68" y="175.5" ></text>
</g>
<g >
<title>all (6,379,000,000 samples, 100%)</title><rect x="10.0" y="277" width="1180.0" height="15.0" fill="rgb(213,39,9)" rx="2" ry="2" />
<text  x="13.00" y="287.5" ></text>
</g>
<g >
<title>auto&amp; entt::basic_registry&lt;entt::entity, std::allocator&lt;entt::entity&gt; &gt;::assure&lt;CreatureState&gt; (3,250,000 samples, 0.05%)</title><rect x="1051.5" y="117" width="0.6" height="15.0" fill="rgb(238,156,37)" rx="2" ry="2" />
<text  x="1054.49" y="127.5" ></text>
</g>
<g >
<title>QuadNode::intersects_circle (9,250,000 samples, 0.15%)</title><rect x="20.3" y="133" width="1.7" height="15.0" fill="rgb(231,121,29)" rx="2" ry="2" />
<text  x="23.31" y="143.5" ></text>
</g>
<g >
<title>Fertility::random_location (2,000,000 samples, 0.03%)</title><rect x="10.8" y="149" width="0.4" height="15.0" fill="rgb(247,197,47)" rx="2" ry="2" />
<text  x="13.83" y="159.5" ></text>
</g>
<g >
<title>entt::basic_sparse_set&lt;entt::entity, std::allocator&lt;entt::entity&gt; &gt;::index (12,000,000 samples, 0.19%)</title><rect x="1053.5" y="133" width="2.2" height="15.0" fill="rgb(238,154,36)" rx="2" ry="2" />
<text  x="1056.48" y="143.5" ></text>
</g>
<g >
<title>CreatureFactory::spawn_random (2,000,000 samples, 0.03%)</title><rect x="10.5" y="165" width="0.3" height="15.0" fill="rgb(242,171,41)" rx="2" ry="2" />
<text  x="13.46" y="175.5" ></text>
</g>
<g >
<title>QuadTree::query_node (137,500,000 samples, 2.16%)</title><rect x="26.3" y="117" width="25.5" height="15.0" fill="rgb(232,126,30)" rx="2" ry="2" />
<text  x="29.32" y="127.5" >Q..</text>
</g>
<g >
<title>QuadTree::insert (19,500,000 samples, 0.31%)</title><rect x="70.0" y="165" width="3.6" height="15.0" fill="rgb(208,16,3)" rx="2" ry="2" />
<text  x="73.03" y="175.5" ></text>
</g>
<g >
<title>CollisionSystem::update (226,500,000 samples, 3.55%)</title><rect x="13.5" y="165" width="41.9" height="15.0" fill="rgb(221,76,18)" rx="2" ry="2" />
<text  x="16.51" y="175.5" >Col..</text>
</g>
<g >
<title>cfree (17,250,000 samples, 0.27%)</title><rect x="472.3" y="117" width="3.2" height="15.0" fill="rgb(223,86,20)" rx="2" ry="2" />
<text  x="475.27" y="127.5" ></text>
</g>
<g >
<title>entt::basic_sparse_set&lt;entt::entity, std::allocator&lt;entt::entity&gt; &gt;::index (2,500,000 samples, 0.04%)</title><rect x="52.9" y="149" width="0.4" height="15.0" fill="rgb(238,154,36)" rx="2" ry="2" />
<text  x="55.87" y="159.5" ></text>
</g>
<g >
<title>[libc.so.6] (6,377,500,000 samples, 99.98%)</title><rect x="10.3" y="213" width="1179.7" height="15.0" fill="rgb(223,84,20)" rx="2" ry="2" />
<text  x="13.28" y="223.5" >[libc.so.6]</text>
</g>
<g >
<title>[ld-linux-x86-64.so.2] (750,000 samples, 0.01%)</title><rect x="10.1" y="133" width="0.1" height="15.0" fill="rgb(243,178,42)" rx="2" ry="2" />
<text  x="13.09" y="143.5" ></text>
</g>
<g >
<title>Node::activate (28,000,000 samples, 0.44%)</title><rect x="1113.5" y="133" width="5.1" height="15.0" fill="rgb(210,24,5)" rx="2" ry="2" />
<text  x="1116.46" y="143.5" ></text>
</g>
<g >
<title>EnvironmentSystem::update (25,500,000 samples, 0.40%)</title><rect x="58.0" y="165" width="4.7" height="15.0" fill="rgb(216,52,12)" rx="2" ry="2" />
<text  x="60.96" y="175.5" ></text>
</g>
<g >
<title>OutputNode::populate_output (1,000,000 samples, 0.02%)</title><rect x="1165.5" y="149" width="0.2" height="15.0" fill="rgb(240,161,38)" rx="2" ry="2" />
<text  x="1168.54" y="159.5" ></text>
</g>
<g >
<title>QuadTree::collect_leaf (4,500,000 samples, 0.07%)</title><rect x="50.1" y="37" width="0.9" height="15.0" fill="rgb(236,142,34)" rx="2" ry="2" />
<text  x="53.14" y="47.5" ></text>
</g>
<g >
<title>Node::update (1,250,000 samples, 0.02%)</title><rect x="1165.3" y="149" width="0.2" height="15.0" fill="rgb(241,166,39)" rx="2" ry="2" />
<text  x="1168.30" y="159.5" ></text>
</g>
<g >
<title>Brain::populate_outputs (1,000,000 samples, 0.02%)</title><rect x="13.2" y="165" width="0.2" height="15.0" fill="rgb(232,126,30)" rx="2" ry="2" />
<text  x="16.24" y="175.5" ></text>
</g>
<g >
<title>entt::basic_storage&lt;OldPosition, entt::entity, std::allocator&lt;OldPosition&gt;, void&gt;::pop (6,250,000 samples, 0.10%)</title><rect x="1046.8" y="149" width="1.1" height="15.0" fill="rgb(205,1,0)" rx="2" ry="2" />
<text  x="1049.78" y="159.5" ></text>
</g>
<g >
<title>auto&amp; entt::basic_registry&lt;entt::entity, std::allocator&lt;entt::entity&gt; &gt;::assure&lt;OldPosition&gt; (2,750,000 samples, 0.04%)</title><rect x="1045.4" y="149" width="0.5" height="15.0" fill="rgb(230,119,28)" rx="2" ry="2" />
<text  x="1048.44" y="159.5" ></text>
</g>
<g >
<title>__atan2f_finite (1,500,000 samples, 0.02%)</title><rect x="500.6" y="133" width="0.3" height="15.0" fill="rgb(249,204,49)" rx="2" ry="2" />
<text  x="503.62" y="143.5" ></text>
</g>
<g >
<title>QuadTree::collect_leaf (1,750,000 samples, 0.03%)</title><rect x="39.9" y="69" width="0.3" height="15.0" fill="rgb(236,142,34)" rx="2" ry="2" />
<text  x="42.92" y="79.5" ></text>
</g>
<g >
<title>QuadTree::query_closest (2,155,000,000 samples, 33.78%)</title><rect x="76.8" y="149" width="398.7" height="15.0" fill="rgb(216,54,12)" rx="2" ry="2" />
<text  x="79.82" y="159.5" >QuadTree::query_closest</text>
</g>
<g >
<title>Brain::update_nodes (287,750,000 samples, 4.51%)</title><rect x="1111.9" y="149" width="53.3" height="15.0" fill="rgb(249,205,49)" rx="2" ry="2" />
<text  x="1114.94" y="159.5" >Brain..</text>
</g>
<g >
<title>entt::basic_sparse_set&lt;entt::entity, std::allocator&lt;entt::entity&gt; &gt;::swap_and_pop (3,500,000 samples, 0.05%)</title><rect x="1046.1" y="149" width="0.7" height="15.0" fill="rgb(214,44,10)" rx="2" ry="2" />
<text  x="1049.13" y="159.5" ></text>
</g>
<g >
<title>DeathSystem::update (3,250,000 samples, 0.05%)</title><rect x="55.4" y="165" width="0.6" height="15.0" fill="rgb(254,227,54)" rx="2" ry="2" />
<text  x="58.41" y="175.5" ></text>
</g>
<g >
<title>operator new (13,500,000 samples, 0.21%)</title><rect x="468.8" y="133" width="2.5" height="15.0" fill="rgb(216,51,12)" rx="2" ry="2" />
<text  x="471.76" y="143.5" ></text>
</g>
<g >
<title>QuadTree::divide_node (287,750,000 samples, 4.51%)</title><rect x="554.1" y="149" width="53.2" height="15.0" fill="rgb(225,94,22)" rx="2" ry="2" />
<text  x="557.08" y="159.5" >QuadT..</text>
</g>
<g >
<title>QuadTree::collect_leaf (7,250,000 samples, 0.11%)</title><rect x="45.2" y="53" width="1.4" height="15.0" fill="rgb(236,142,34)" rx="2" ry="2" />
<text  x="48.24" y="63.5" ></text>
</g>
<g >
<title>QuadTree::query_node (160,750,000 samples, 2.52%)</title><rect x="22.0" y="133" width="29.8" height="15.0" fill="rgb(232,126,30)" rx="2" ry="2" />
<text  x="25.02" y="143.5" >Qu..</text>
</g>
<g >
<title>PlantFactory::spawn_random (13,000,000 samples, 0.20%)</title><rect x="10.8" y="165" width="2.4" height="15.0" fill="rgb(233,131,31)" rx="2" ry="2" />
<text  x="13.83" y="175.5" ></text>
</g>
<g >
<title>entt::internal::view_iterator&lt;entt::basic_sparse_set&lt;entt::entity, std::allocator&lt;entt::entity&gt; &gt;, false, 4ul, 0ul&gt;::seek_next (7,000,000 samples, 0.11%)</title><rect x="515.8" y="149" width="1.3" height="15.0" fill="rgb(224,90,21)" rx="2" ry="2" />
<text  x="518.83" y="159.5" ></text>
</g>
<g >
<title>QuadNode::intersects_circle (7,500,000 samples, 0.12%)</title><rect x="48.8" y="37" width="1.3" height="15.0" fill="rgb(231,121,29)" rx="2" ry="2" />
<text  x="51.75" y="47.5" ></text>
</g>
<g >
<title>decltype (35,000,000 samples, 0.55%)</title><rect x="1083.7" y="117" width="6.5" height="15.0" fill="rgb(220,73,17)" rx="2" ry="2" />
<text  x="1086.68" y="127.5" ></text>
</g>
<g >
<title>[libm.so.6] (18,250,000 samples, 0.29%)</title><rect x="1165.7" y="165" width="3.4" height="15.0" fill="rgb(208,16,4)" rx="2" ry="2" />
<text  x="1168.72" y="175.5" ></text>
</g>
<g >
<title>auto&amp; entt::basic_registry&lt;entt::entity, std::allocator&lt;entt::entity&gt; &gt;::assure&lt;CreatureEnergy&gt; (2,250,000 samples, 0.04%)</title><rect x="1082.6" y="117" width="0.4" height="15.0" fill="rgb(210,25,6)" rx="2" ry="2" />
<text  x="1085.57" y="127.5" ></text>
</g>
<g >
<title>InputNode::load_input (750,000 samples, 0.01%)</title><rect x="1165.2" y="149" width="0.1" height="15.0" fill="rgb(215,48,11)" rx="2" ry="2" />
<text  x="1168.17" y="159.5" ></text>
</g>
<g >
<title>siv::BasicPerlinNoise&lt;double&gt;::noise3D (10,750,000 samples, 0.17%)</title><rect x="11.2" y="149" width="2.0" height="15.0" fill="rgb(220,73,17)" rx="2" ry="2" />
<text  x="14.25" y="159.5" ></text>
</g>
<g >
<title>QuadTree::query_node (174,250,000 samples, 2.73%)</title><rect x="19.5" y="149" width="32.3" height="15.0" fill="rgb(232,126,30)" rx="2" ry="2" />
<text  x="22.53" y="159.5" >Qu..</text>
</g>
<g >
<title>[libc.so.6] (5,250,000 samples, 0.08%)</title><rect x="466.9" y="117" width="0.9" height="15.0" fill="rgb(223,84,20)" rx="2" ry="2" />
<text  x="469.86" y="127.5" ></text>
</g>
<g >
<title>QuadNode::intersects_circle (13,750,000 samples, 0.22%)</title><rect x="28.4" y="101" width="2.5" height="15.0" fill="rgb(231,121,29)" rx="2" ry="2" />
<text  x="31.41" y="111.5" ></text>
</g>
<g >
<title>auto&amp; entt::basic_registry&lt;entt::entity, std::allocator&lt;entt::entity&gt; &gt;::assure&lt;ChildEnergy&gt; (1,500,000 samples, 0.02%)</title><rect x="1082.3" y="117" width="0.3" height="15.0" fill="rgb(226,98,23)" rx="2" ry="2" />
<text  x="1085.29" y="127.5" ></text>
</g>
<g >
<title>QuadTree::query_node (90,000,000 samples, 1.41%)</title><rect x="35.1" y="85" width="16.7" height="15.0" fill="rgb(232,126,30)" rx="2" ry="2" />
<text  x="38.11" y="95.5" ></text>
</g>
<g >
<title>QuadNode::intersects_circle (17,500,000 samples, 0.27%)</title><rect x="42.0" y="53" width="3.2" height="15.0" fill="rgb(231,121,29)" rx="2" ry="2" />
<text  x="45.00" y="63.5" ></text>
</g>
<g >
<title>__libc_start_main (6,377,500,000 samples, 99.98%)</title><rect x="10.3" y="229" width="1179.7" height="15.0" fill="rgb(236,142,34)" rx="2" ry="2" />
<text  x="13.28" y="239.5" >__libc_start_main</text>
</g>
<g >
<title>atanf32 (47,000,000 samples, 0.74%)</title><rect x="504.5" y="117" width="8.7" height="15.0" fill="rgb(239,156,37)" rx="2" ry="2" />
<text  x="507.55" y="127.5" ></text>
</g>
<g >
<title>[ld-linux-x86-64.so.2] (1,500,000 samples, 0.02%)</title><rect x="10.0" y="197" width="0.3" height="15.0" fill="rgb(243,178,42)" rx="2" ry="2" />
<text  x="13.00" y="207.5" ></text>
</g>
<g >
<title>main (6,377,500,000 samples, 99.98%)</title><rect x="10.3" y="197" width="1179.7" height="15.0" fill="rgb(243,179,42)" rx="2" ry="2" />
<text  x="13.28" y="207.5" >main</text>
</g>
<g >
<title>atan2f32 (1,500,000 samples, 0.02%)</title><rect x="515.1" y="149" width="0.3" height="15.0" fill="rgb(216,50,12)" rx="2" ry="2" />
<text  x="518.09" y="159.5" ></text>
</g>
<g >
<title>[ld-linux-x86-64.so.2] (1,500,000 samples, 0.02%)</title><rect x="10.0" y="213" width="0.3" height="15.0" fill="rgb(243,178,42)" rx="2" ry="2" />
<text  x="13.00" y="223.5" ></text>
</g>
<g >
<title>Brain::populate_outputs (41,000,000 samples, 0.64%)</title><rect x="1048.1" y="149" width="7.6" height="15.0" fill="rgb(232,126,30)" rx="2" ry="2" />
<text  x="1051.12" y="159.5" ></text>
</g>
<g >
<title>malloc (1,250,000 samples, 0.02%)</title><rect x="467.8" y="133" width="0.3" height="15.0" fill="rgb(230,119,28)" rx="2" ry="2" />
<text  x="470.83" y="143.5" ></text>
</g>
<g >
<title>expm1f32 (29,250,000 samples, 0.46%)</title><rect x="1154.5" y="117" width="5.4" height="15.0" fill="rgb(230,116,27)" rx="2" ry="2" />
<text  x="1157.48" y="127.5" ></text>
</g>
<g >
<title>QuadNode::intersects_circle (4,000,000 samples, 0.06%)</title><rect x="18.8" y="149" width="0.7" height="15.0" fill="rgb(231,121,29)" rx="2" ry="2" />
<text  x="21.79" y="159.5" ></text>
</g>
<g >
<title>auto&amp; entt::basic_registry&lt;entt::entity, std::allocator&lt;entt::entity&gt; &gt;::assure&lt;OldPosition&gt; (1,000,000 samples, 0.02%)</title><rect x="68.2" y="149" width="0.2" height="15.0" fill="rgb(230,119,28)" rx="2" ry="2" />
<text  x="71.18" y="159.5" ></text>
</g>
<g >
<title>[ld-linux-x86-64.so.2] (1,500,000 samples, 0.02%)</title><rect x="10.0" y="181" width="0.3" height="15.0" fill="rgb(243,178,42)" rx="2" ry="2" />
<text  x="13.00" y="191.5" ></text>
</g>
<g >
<title>auto&amp; entt::basic_registry&lt;entt::entity, std::allocator&lt;entt::entity&gt; &gt;::assure&lt;Stomach&gt; (1,000,000 samples, 0.02%)</title><rect x="1083.5" y="117" width="0.2" height="15.0" fill="rgb(250,209,50)" rx="2" ry="2" />
<text  x="1086.50" y="127.5" ></text>
</g>
<g >
<title>QuadNode::intersects_circle (11,000,000 samples, 0.17%)</title><rect x="24.3" y="117" width="2.0" height="15.0" fill="rgb(231,121,29)" rx="2" ry="2" />
<text  x="27.29" y="127.5" ></text>
</g>
<g >
<title>QuadTree::query_node (62,250,000 samples, 0.98%)</title><rect x="40.2" y="69" width="11.6" height="15.0" fill="rgb(232,126,30)" rx="2" ry="2" />
<text  x="43.24" y="79.5" ></text>
</g>
<g >
<title>main (6,379,000,000 samples, 100.00%)</title><rect x="10.0" y="261" width="1180.0" height="15.0" fill="rgb(243,179,42)" rx="2" ry="2" />
<text  x="13.00" y="271.5" >main</text>
</g>
<g >
<title>PlantSystem::update (3,750,000 samples, 0.06%)</title><rect x="69.3" y="165" width="0.7" height="15.0" fill="rgb(242,174,41)" rx="2" ry="2" />
<text  x="72.33" y="175.5" ></text>
</g>
<g >
<title>entt::basic_sparse_set&lt;entt::entity, std::allocator&lt;entt::entity&gt; &gt;::index (25,250,000 samples, 0.40%)</title><rect x="1107.2" y="133" width="4.7" height="15.0" fill="rgb(238,154,36)" rx="2" ry="2" />
<text  x="1110.22" y="143.5" ></text>
</g>
<g >
<title>bool entt::internal::all_of&lt;entt::basic_sparse_set&lt;entt::entity, std::allocator&lt;entt::entity&gt; &gt; const* const*, entt::entity&gt; (110,750,000 samples, 1.74%)</title><rect x="1169.2" y="165" width="20.5" height="15.0" fill="rgb(208,14,3)" rx="2" ry="2" />
<text  x="1172.19" y="175.5" ></text>
</g>
<g >
<title>[ld-linux-x86-64.so.2] (1,500,000 samples, 0.02%)</title><rect x="10.0" y="229" width="0.3" height="15.0" fill="rgb(243,178,42)" rx="2" ry="2" />
<text  x="13.00" y="239.5" ></text>
</g>
<g >
<title>DigestionSystem::update (10,500,000 samples, 0.16%)</title><rect x="56.0" y="165" width="2.0" height="15.0" fill="rgb(210,24,5)" rx="2" ry="2" />
<text  x="59.01" y="175.5" ></text>
</g>
<g >
<title>MetabolismSystem::update (10,750,000 samples, 0.17%)</title><rect x="62.7" y="165" width="2.0" height="15.0" fill="rgb(244,183,43)" rx="2" ry="2" />
<text  x="65.67" y="175.5" ></text>
</g>
<g >
<title>entt::internal::view_iterator&lt;entt::basic_sparse_set&lt;entt::entity, std::allocator&lt;entt::entity&gt; &gt;, false, 3ul, 0ul&gt;::seek_next (4,750,000 samples, 0.07%)</title><rect x="57.1" y="149" width="0.9" height="15.0" fill="rgb(231,120,28)" rx="2" ry="2" />
<text  x="60.08" y="159.5" ></text>
</g>
<g >
<title>QuadTree::query_node (28,000,000 samples, 0.44%)</title><rect x="46.6" y="53" width="5.2" height="15.0" fill="rgb(232,126,30)" rx="2" ry="2" />
<text  x="49.58" y="63.5" ></text>
</g>
<g >
<title>[libm.so.6] (18,500,000 samples, 0.29%)</title><rect x="1161.7" y="133" width="3.4" height="15.0" fill="rgb(208,16,4)" rx="2" ry="2" />
<text  x="1164.70" y="143.5" ></text>
</g>
<g >
<title>CollisionSystem::handle_eating (5,000,000 samples, 0.08%)</title><rect x="17.9" y="149" width="0.9" height="15.0" fill="rgb(223,86,20)" rx="2" ry="2" />
<text  x="20.86" y="159.5" ></text>
</g>
<g >
<title>Simulation::update (6,361,000,000 samples, 99.72%)</title><rect x="13.2" y="181" width="1176.7" height="15.0" fill="rgb(206,7,1)" rx="2" ry="2" />
<text  x="16.24" y="191.5" >Simulation::update</text>
</g>
<g >
<title>atan2f32 (66,750,000 samples, 1.05%)</title><rect x="500.9" y="133" width="12.3" height="15.0" fill="rgb(216,50,12)" rx="2" ry="2" />
<text  x="503.90" y="143.5" ></text>
</g>
<g >
<title>OutputNode::populate_output (27,750,000 samples, 0.44%)</title><rect x="1048.2" y="133" width="5.1" height="15.0" fill="rgb(240,161,38)" rx="2" ry="2" />
<text  x="1051.21" y="143.5" ></text>
</g>
<g >
<title>entt::internal::view_iterator&lt;entt::basic_sparse_set&lt;entt::entity, std::allocator&lt;entt::entity&gt; &gt;, false, 3ul, 0ul&gt;::seek_next (7,000,000 samples, 0.11%)</title><rect x="61.4" y="149" width="1.3" height="15.0" fill="rgb(231,120,28)" rx="2" ry="2" />
<text  x="64.38" y="159.5" ></text>
</g>
<g >
<title>Node::activate (45,500,000 samples, 0.71%)</title><rect x="1140.0" y="117" width="8.4" height="15.0" fill="rgb(210,24,5)" rx="2" ry="2" />
<text  x="1143.01" y="127.5" ></text>
</g>
<g >
<title>Brain::reset_next_values (2,750,000 samples, 0.04%)</title><rect x="1067.5" y="133" width="0.5" height="15.0" fill="rgb(249,205,49)" rx="2" ry="2" />
<text  x="1070.50" y="143.5" ></text>
</g>
<g >
<title>MovementSystem::update (25,250,000 samples, 0.40%)</title><rect x="64.7" y="165" width="4.6" height="15.0" fill="rgb(248,198,47)" rx="2" ry="2" />
<text  x="67.66" y="175.5" ></text>
</g>
<g >
<title>operator delete (750,000 samples, 0.01%)</title><rect x="517.1" y="149" width="0.2" height="15.0" fill="rgb(247,196,46)" rx="2" ry="2" />
<text  x="520.13" y="159.5" ></text>
</g>
<g >
<title>siv::BasicPerlinNoise&lt;double&gt;::noise3D (3,000,000 samples, 0.05%)</title><rect x="69.5" y="133" width="0.5" height="15.0" fill="rgb(220,73,17)" rx="2" ry="2" />
<text  x="72.47" y="143.5" ></text>
</g>
<g >
<title>QuadTree::query_node (4,250,000 samples, 0.07%)</title><rect x="51.0" y="37" width="0.8" height="15.0" fill="rgb(232,126,30)" rx="2" ry="2" />
<text  x="53.97" y="47.5" ></text>
</g>
<g >
<title>malloc@plt (750,000 samples, 0.01%)</title><rect x="468.1" y="133" width="0.1" height="15.0" fill="rgb(246,192,46)" rx="2" ry="2" />
<text  x="471.06" y="143.5" ></text>
</g>
<g >
<title>auto&amp; entt::basic_registry&lt;entt::entity, std::allocator&lt;entt::entity&gt; &gt;::assure&lt;BrainTimer&gt; (1,000,000 samples, 0.02%)</title><rect x="1051.3" y="117" width="0.2" height="15.0" fill="rgb(252,220,52)" rx="2" ry="2" />
<text  x="1054.31" y="127.5" ></text>
</g>
<g >
<title>std::_Hashtable&lt;int, std::pair&lt;int const, std::pair&lt;NodeType, int&gt; &gt;, std::allocator&lt;std::pair&lt;int const, std::pair&lt;NodeType, int&gt; &gt; &gt;, std::__detail::_Select1st, std::equal_to&lt;int&gt;, std::hash&lt;int&gt;, std::__detail::_Mod_range_hashing, std::__detail::_Default_ranged_hash, std::__detail::_Prime_rehash_policy, std::__detail::_Hashtable_traits&lt;false, false, true&gt; &gt;::find (41,250,000 samples, 0.65%)</title><rect x="1059.7" y="117" width="7.6" height="15.0" fill="rgb(243,176,42)" rx="2" ry="2" />
<text  x="1062.68" y="127.5" ></text>
</g>
<g >
<title>Brain::get_node (12,500,000 samples, 0.20%)</title><rect x="1057.4" y="117" width="2.3" height="15.0" fill="rgb(229,110,26)" rx="2" ry="2" />
<text  x="1060.37" y="127.5" ></text>
</g>
<g >
<title>Brain::apply_weights (56,750,000 samples, 0.89%)</title><rect x="1056.8" y="133" width="10.5" height="15.0" fill="rgb(240,162,38)" rx="2" ry="2" />
<text  x="1059.81" y="143.5" ></text>
</g>
<g >
<title>malloc (12,750,000 samples, 0.20%)</title><rect x="468.9" y="117" width="2.4" height="15.0" fill="rgb(230,119,28)" rx="2" ry="2" />
<text  x="471.89" y="127.5" ></text>
</g>
<g >
<title>siv::BasicPerlinNoise&lt;double&gt;::noise3D (1,250,000 samples, 0.02%)</title><rect x="10.6" y="149" width="0.2" height="15.0" fill="rgb(220,73,17)" rx="2" ry="2" />
<text  x="13.60" y="159.5" ></text>
</g>
<g >
<title>QuadNode::intersects_circle (13,750,000 samples, 0.22%)</title><rect x="37.4" y="69" width="2.5" height="15.0" fill="rgb(231,121,29)" rx="2" ry="2" />
<text  x="40.38" y="79.5" ></text>
</g>
<g >
<title>SpatialIndexSystem::update (2,866,750,000 samples, 44.94%)</title><rect x="517.6" y="165" width="530.3" height="15.0" fill="rgb(249,206,49)" rx="2" ry="2" />
<text  x="520.64" y="175.5" >SpatialIndexSystem::update</text>
</g>
<g >
<title>entt::internal::view_iterator&lt;entt::basic_sparse_set&lt;entt::entity, std::allocator&lt;entt::entity&gt; &gt;, false, 2ul, 0ul&gt;::seek_next (3,000,000 samples, 0.05%)</title><rect x="64.1" y="149" width="0.6" height="15.0" fill="rgb(237,149,35)" rx="2" ry="2" />
<text  x="67.11" y="159.5" ></text>
</g>
<g >
<title>Simulation::initialize (15,000,000 samples, 0.24%)</title><rect x="10.5" y="181" width="2.7" height="15.0" fill="rgb(222,79,19)" rx="2" ry="2" />
<text  x="13.46" y="191.5" ></text>
</g>
<g >
<title>_start (6,377,500,000 samples, 99.98%)</title><rect x="10.3" y="245" width="1179.7" height="15.0" fill="rgb(245,185,44)" rx="2" ry="2" />
<text  x="13.28" y="255.5" >_start</text>
</g>
<g >
<title>[libc.so.6] (9,250,000 samples, 0.15%)</title><rect x="473.7" y="101" width="1.8" height="15.0" fill="rgb(223,84,20)" rx="2" ry="2" />
<text  x="476.75" y="111.5" ></text>
</g>
<g >
<title>entt::basic_storage&lt;Position, entt::entity, std::allocator&lt;Position&gt;, void&gt;::pop (750,000 samples, 0.01%)</title><rect x="55.8" y="149" width="0.2" height="15.0" fill="rgb(213,38,9)" rx="2" ry="2" />
<text  x="58.83" y="159.5" ></text>
</g>
<g >
<title>cfree (12,250,000 samples, 0.19%)</title><rect x="465.6" y="133" width="2.2" height="15.0" fill="rgb(223,86,20)" rx="2" ry="2" />
<text  x="468.56" y="143.5" ></text>
</g>
<g >
<title>QuadTree::insert (2,368,500,000 samples, 37.13%)</title><rect x="607.3" y="149" width="438.1" height="15.0" fill="rgb(208,16,3)" rx="2" ry="2" />
<text  x="610.31" y="159.5" >QuadTree::insert</text>
</g>
<g >
<title>QuadTree::query_node (112,500,000 samples, 1.76%)</title><rect x="30.9" y="101" width="20.9" height="15.0" fill="rgb(232,126,30)" rx="2" ry="2" />
<text  x="33.95" y="111.5" ></text>
</g>
<g >
<title>tanhf32 (9,750,000 samples, 0.15%)</title><rect x="1159.9" y="117" width="1.8" height="15.0" fill="rgb(243,178,42)" rx="2" ry="2" />
<text  x="1162.89" y="127.5" ></text>
</g>
<g >
<title>cfree (1,750,000 samples, 0.03%)</title><rect x="515.5" y="149" width="0.3" height="15.0" fill="rgb(223,86,20)" rx="2" ry="2" />
<text  x="518.51" y="159.5" ></text>
</g>
<g >
<title>[ld-linux-x86-64.so.2] (1,500,000 samples, 0.02%)</title><rect x="10.0" y="245" width="0.3" height="15.0" fill="rgb(243,178,42)" rx="2" ry="2" />
<text  x="13.00" y="255.5" ></text>
</g>
<g >
<title>QuadNode::intersects_circle (11,500,000 samples, 0.18%)</title><rect x="32.9" y="85" width="2.1" height="15.0" fill="rgb(231,121,29)" rx="2" ry="2" />
<text  x="35.89" y="95.5" ></text>
</g>
<g >
<title>InputNode::load_input (119,750,000 samples, 1.88%)</title><rect x="1068.0" y="133" width="22.2" height="15.0" fill="rgb(215,48,11)" rx="2" ry="2" />
<text  x="1071.00" y="143.5" >I..</text>
</g>
<g >
<title>auto&amp; entt::basic_registry&lt;entt::entity, std::allocator&lt;entt::entity&gt; &gt;::assure&lt;Velocity&gt; (6,750,000 samples, 0.11%)</title><rect x="1052.1" y="117" width="1.2" height="15.0" fill="rgb(223,85,20)" rx="2" ry="2" />
<text  x="1055.10" y="127.5" ></text>
</g>
<g >
<title>std::_Deque_base&lt;int, std::allocator&lt;int&gt; &gt;::~_Deque_base (22,750,000 samples, 0.36%)</title><rect x="471.3" y="133" width="4.2" height="15.0" fill="rgb(242,171,40)" rx="2" ry="2" />
<text  x="474.25" y="143.5" ></text>
</g>
<g >
<title>operator new (1,000,000 samples, 0.02%)</title><rect x="517.3" y="149" width="0.2" height="15.0" fill="rgb(216,51,12)" rx="2" ry="2" />
<text  x="520.27" y="159.5" ></text>
</g>
<g >
<title>SensorSystem::update (2,395,000,000 samples, 37.55%)</title><rect x="74.6" y="165" width="443.0" height="15.0" fill="rgb(248,199,47)" rx="2" ry="2" />
<text  x="77.60" y="175.5" >SensorSystem::update</text>
</g>
<g >
<title>[libm.so.6] (32,500,000 samples, 0.51%)</title><rect x="1148.4" y="117" width="6.0" height="15.0" fill="rgb(208,16,4)" rx="2" ry="2" />
<text  x="1151.43" y="127.5" ></text>
</g>
<g >
<title>Node::update (232,750,000 samples, 3.65%)</title><rect x="1118.6" y="133" width="43.1" height="15.0" fill="rgb(241,166,39)" rx="2" ry="2" />
<text  x="1121.64" y="143.5" >Node..</text>
</g>
</g>
</svg>
